<?xml version="1.0" encoding="utf-8"?>
<svg width="180.955" height="187.698" viewBox="0 0 180.955 187.698" fill="none" stroke="none" version="1.1" xmlns:xlink="http://www.w3.org/1999/xlink" xmlns="http://www.w3.org/2000/svg">
  <defs>
    <path id="path_1" d="M139.576 3.8147e-06L139.576 3.8147e-06L139.577 150.453L4.57764e-05 150.453L0 0L139.576 3.8147e-06Z" />
    <rect id="rect_2" x="0" y="0" width="180.955" height="187.698" />
    <clipPath id="clip_path_3">
      <use xlink:href="#rect_2" />
    </clipPath>
  </defs>
  <g id="Boy" opacity="1" clip-path="url(#clip_path_3)" transform="matrix(0.946 0.326 -0.326 0.946 48.983 0)">
    <g>
      <use xlink:href="#path_1" style="mix-blend-mode:normal;" />
      <g>
        <g id="Group" transform="matrix(1 0 0 1 15.279 1.469)">
          <path id="Shape" d="M3.62278 14.0924C0.897734 15.8464 -0.986052 19.9913 0.55271 23.3661C1.35031 25.1108 2.96042 26.5078 5.34044 27.5202C7.42336 28.4041 9.65004 28.8517 11.9598 28.8517C16.0883 28.8517 20.103 27.4008 23.2657 24.7665C25.5275 28.0138 29.2706 30.0409 33.0413 30.0582C33.0413 30.0582 33.0818 30.0582 33.0818 30.0582C36.8302 30.0582 40.5701 28.0643 42.8426 24.8526C44.2077 26.323 46.1874 27.1678 48.2746 27.1678C49.8527 27.1678 51.3606 26.6972 52.6321 25.8087C55.5499 23.777 57.1163 19.6676 56.4401 15.8177C55.8022 12.1801 53.2103 8.89945 49.8357 7.46002C48.5695 6.92166 47.2469 6.65995 45.7923 6.65995C43.9841 6.65995 41.9992 7.07204 39.7214 7.92605C39.9099 6.77589 39.485 5.48223 38.5851 4.46866C37.8184 3.59858 36.8536 3.01316 35.6429 2.40135C32.4471 0.785145 29.6444 8.83471e-07 27.0737 8.0686e-07C26.4092 7.87056e-07 25.7501 0.0539509 25.1175 0.160703C23.6001 0.417826 22.1028 0.996353 20.6652 1.88136C19.6877 2.48514 18.757 3.22208 17.8965 4.0715C16.0383 5.91039 14.4548 8.31862 13.1887 11.2331C13.0385 11.582 12.9405 11.9092 12.899 12.2053C12.899 12.2053 12.8042 12.8998 12.8042 12.8998C12.8042 12.8998 13.243 13.4175 13.243 13.4175C11.7947 12.9021 10.3294 12.6415 8.88864 12.6415C6.91328 12.6415 5.09126 13.1431 3.62278 14.0924C3.62278 14.0924 3.62278 14.0924 3.62278 14.0924Z" style="fill:#FFFFFF;fill-rule:evenodd;mix-blend-mode:normal;" transform="matrix(1 0 0 1 26.796 0)" />
          <path id="Shape" d="M28.1025 51.3431C28.1025 51.3431 25.8333 36.764 25.8333 36.764C25.6373 35.4968 25.3424 33.5821 26.2177 32.2196C26.683 31.493 27.4125 31.0017 28.4465 30.7182C29.4187 30.4542 30.4251 30.4415 31.0917 30.4335C31.0917 30.4335 33.1874 30.4083 33.1874 30.4083C33.1874 30.4083 33.1267 16.4123 33.1267 16.4123C33.1245 15.6019 33.1213 14.4919 33.6431 13.6941C34.429 12.4946 36.0594 12.3764 37.0337 12.3052C44.1323 11.7944 51.3991 11.4856 58.6328 11.3892C58.6328 11.3892 59.6147 11.3754 59.6147 11.3754L61.475 5.09999C61.475 5.09999 59.2696 5.5006 59.2696 5.5006C58.0014 5.73017 56.7246 5.84726 55.4755 5.84726C55.1688 5.84726 54.8461 5.84037 54.4968 5.82545C49.9732 5.60965 45.4687 3.88784 41.8119 0.977989C41.8119 0.977989 40.583 0 40.583 0C40.583 0 39.8216 1.42566 39.8216 1.42566C39.5628 1.91006 39.2721 2.33247 38.9367 2.71471C37.087 4.81532 34.5611 6.03207 32.3323 7.0112C32.0969 7.11565 31.8616 7.21781 31.6252 7.31998C31.6252 7.31998 31.3909 7.42099 31.3909 7.42099C29.2324 8.35535 27.1942 9.23807 25.3796 10.6718C21.6706 13.6023 19.6793 18.3326 18.3588 22.1264C17.9893 23.1904 17.6347 24.2844 17.2918 25.3427C17.2918 25.3427 17.2716 25.4058 17.2716 25.4058C16.2227 28.652 15.1375 32.0084 13.439 34.9733C11.912 37.6456 9.89191 39.993 7.93678 42.2635C7.93678 42.2635 7.69931 42.5401 7.69931 42.5401C7.54064 42.7238 7.38304 42.9074 7.2297 43.0876C5.08182 45.598 2.86473 48.3173 1.4431 51.5257C-0.108438 55.0267 -0.425775 58.7515 0.573089 61.7463C1.51871 64.5723 3.7752 66.7763 6.32028 67.3605C6.32028 67.3605 7.89951 67.7221 7.89951 67.7221C7.89951 67.7221 7.9666 65.9842 7.9666 65.9842C8.12207 61.9495 9.43933 58.2074 11.7768 55.1609C13.8501 52.4543 16.737 50.3755 19.904 49.3057C19.904 49.3057 22.2435 48.5159 22.2435 48.5159C22.2861 48.5745 22.3287 48.6342 22.3703 48.695C22.3703 48.695 22.4523 49.4606 22.4523 49.4606C22.4523 49.4606 23.0827 49.8233 23.0827 49.8233C24.0645 50.3881 25.1155 50.7795 26.2049 50.985C26.2049 50.985 28.1025 51.3431 28.1025 51.3431ZM16.8232 45.6772C15.2621 45.6772 13.6764 46.2683 12.4699 47.2968C13.6935 46.2511 15.2344 45.6749 16.8083 45.6749C17.1043 45.6749 17.4035 45.6955 17.6953 45.7369C17.7869 45.7495 17.8785 45.7667 17.969 45.7839C17.8774 45.7667 17.7869 45.7506 17.6953 45.738C17.4089 45.6978 17.116 45.6772 16.8232 45.6772C16.8232 45.6772 16.8232 45.6772 16.8232 45.6772ZM18.625 45.9411C18.5291 45.9136 18.4344 45.8872 18.3385 45.8631C18.4354 45.8872 18.5302 45.9136 18.625 45.9411C18.625 45.9411 18.625 45.9411 18.625 45.9411ZM18.2576 45.8448C18.1767 45.8253 18.0957 45.807 18.0148 45.7909C18.0957 45.807 18.1767 45.8253 18.2576 45.8448C18.2576 45.8448 18.2576 45.8448 18.2576 45.8448ZM20.1574 46.6186C19.6782 46.3316 19.1649 46.1055 18.6442 45.9471C19.2597 46.1319 19.8475 46.4039 20.3916 46.7586C20.3916 46.7586 20.1574 46.6186 20.1574 46.6186Z" style="fill:#FFFFFF;mix-blend-mode:normal;" transform="matrix(1 0 0 1 0 79.303)" />
          <path id="Shape" d="M37.1092 41.7205C36.9526 41.5357 36.794 41.3532 36.6364 41.1696C36.6364 41.1696 36.3968 40.8906 36.3968 40.8906C34.4427 38.6213 32.4226 36.2739 30.8945 33.6016C29.1971 30.6367 28.1119 27.2803 27.0609 24.0272C27.0609 24.0272 27.0428 23.9699 27.0428 23.9699C26.6999 22.9127 26.3464 21.8187 25.9758 20.7547C24.6564 16.9609 22.665 12.2317 18.955 9.3012C17.1415 7.86636 15.1022 6.98479 12.9405 6.04929C12.9405 6.04929 12.7094 5.94942 12.7094 5.94942C12.473 5.84611 12.2377 5.74509 11.9949 5.63605C9.79057 4.67069 7.28489 3.46542 5.43198 1.37974C5.43198 1.37974 4.2063 0 4.2063 0C4.2063 0 3.28411 1.63113 3.28411 1.63113C2.14042 3.65253 1.22356 5.82201 0.559067 8.08102C0.559067 8.08102 0 9.97959 0 9.97959C0 9.97959 2.54827 10.0003 2.54827 10.0003C3.0115 10.0037 3.47472 10.0071 3.9454 10.0129C5.44476 10.0347 7.95364 10.0714 9.32308 11.7714C10.438 13.1558 10.4721 15.215 10.4977 16.7199C10.4977 16.7199 10.7277 29.4854 10.7277 29.4854C10.7277 29.4854 12.03 29.521 12.03 29.521C13.1567 29.5519 14.0799 29.5657 14.934 29.5657C15.1672 29.5657 15.4004 29.5646 15.6347 29.5623C15.9669 29.5588 16.3098 29.5072 16.6591 29.4498C16.9754 29.3981 17.3332 29.3396 17.6792 29.3396C18.1851 29.3396 18.5695 29.4601 18.922 29.7276C20.3127 30.7894 20.1104 32.735 19.808 34.4866C19.808 34.4866 17.0137 50.5603 17.0137 50.5603L21.0986 48.8844L22.1092 48.4735C22.1092 48.4735 21.9665 47.3187 21.9665 47.3187C22.0069 47.2602 22.0485 47.2016 22.0911 47.1442C22.0911 47.1442 24.4317 47.9351 24.4317 47.9351C27.5987 49.0038 30.4856 51.0837 32.5589 53.7904C34.8623 56.7921 36.2157 60.6352 36.3691 64.6125C36.3691 64.6125 36.4362 66.3504 36.4362 66.3504C36.4362 66.3504 38.0154 65.9888 38.0154 65.9888C40.5605 65.4057 42.8159 63.2029 43.7626 60.3735C44.7614 57.3809 44.4441 53.6561 42.8926 50.154C41.4699 46.9456 39.2528 44.2263 37.1092 41.7205C37.1092 41.7205 37.1092 41.7205 37.1092 41.7205ZM24.1772 45.2479C24.1772 45.2479 23.9333 45.3949 23.9333 45.3949C24.5712 44.977 25.273 44.6706 26.0056 44.4903C25.3752 44.6464 24.7522 44.9036 24.1772 45.2479C24.1772 45.2479 24.1772 45.2479 24.1772 45.2479ZM27.5135 44.3067C27.2196 44.3067 26.9257 44.3274 26.6467 44.3664C26.5445 44.3813 26.4412 44.3986 26.3379 44.4181C26.438 44.3986 26.5381 44.3802 26.6393 44.3664C26.9321 44.3251 27.2303 44.3044 27.5274 44.3044C29.1013 44.3044 30.6422 44.8807 31.8636 45.9287C30.6411 44.883 29.0959 44.3067 27.5135 44.3067C27.5135 44.3067 27.5135 44.3067 27.5135 44.3067ZM26.045 44.4812C26.1387 44.4594 26.2335 44.4376 26.3294 44.4193C26.2335 44.4376 26.1387 44.4583 26.045 44.4812C26.045 44.4812 26.045 44.4812 26.045 44.4812Z" style="fill:#FFFFFF;mix-blend-mode:normal;" transform="matrix(1 0 0 1 64.598 80.673)" />
        </g>
        <path id="Shape" d="M57.8917 0.751854C57.5467 0.491287 57.1431 0.363876 56.6575 0.363876C56.3742 0.363876 56.0665 0.405197 55.615 0.477516C55.2827 0.530319 54.9398 0.586563 54.6033 0.587708C54.3829 0.590004 54.1614 0.591156 53.941 0.591156C51.6813 0.591156 49.4013 0.500473 47.197 0.413231C47.197 0.413231 47.0362 0.406349 47.0362 0.406349C45.6146 0.350098 44.144 0.290413 42.7043 0.259422C34.8901 0.0872345 26.8822 0 18.9019 0C14.4273 0 9.90681 0.0298462 5.4673 0.0883865C3.5143 0.114784 1.57088 0.347801 0.591187 1.87562C-0.217064 3.13254 -0.0402908 4.81302 0.211021 6.42464C0.211021 6.42464 0.685963 9.49174 0.685963 9.49174C0.685963 9.49174 0.753048 9.65819 0.753048 9.65819C1.67418 11.939 4.36301 14.6032 8.90902 14.6032C8.90902 14.6032 9.04532 14.6021 9.04532 14.6021C11.8524 14.5642 14.5465 13.5678 17.1512 12.6048C17.1512 12.6048 17.1832 12.5933 17.1832 12.5933C17.6358 12.4246 18.0894 12.2558 18.5356 12.094C20.5152 11.3846 22.8537 10.6603 25.1975 10.6603C26.1187 10.6603 26.9951 10.7762 27.8012 11.0046C29.6125 11.5189 31.2908 12.6438 32.9126 13.7308C35.0403 15.1588 37.2393 16.6361 39.8067 16.7922C39.9622 16.8014 40.1166 16.806 40.271 16.806C42.6297 16.806 44.8351 15.7052 46.9894 14.6296C47.3919 14.4264 47.7966 14.2244 48.197 14.0316C50.1627 13.0892 51.8953 12.6105 53.3489 12.6105C54.2359 12.6105 55.0197 12.7815 55.7427 13.1305C55.7427 13.1305 57.322 13.8938 57.322 13.8938C57.322 13.8938 58.7809 5.51208 58.7809 5.51208C59.0141 4.16333 59.4049 1.90662 57.8917 0.751854C57.8917 0.751854 57.8917 0.751854 57.8917 0.751854Z" style="fill:#F9D889;fill-rule:evenodd;mix-blend-mode:normal;" transform="matrix(1 0 0 1 40.904 111.117)" />
        <path id="Shape" d="M0.353714 9.04408C1.69015 10.6809 3.66977 11.6922 5.65046 11.7496C5.71755 11.7519 5.7857 11.7531 5.85386 11.7531C8.24452 11.7531 10.4052 10.5191 12.5137 9.31612C14.4688 8.1981 16.4899 7.04219 18.6357 6.96184C18.7134 6.95954 18.7901 6.9584 18.8678 6.9584C21.0988 6.9584 23.2424 8.08446 25.3285 9.18182C27.4604 10.2987 29.6636 11.4535 32.0181 11.4535C32.2843 11.4535 32.5506 11.4397 32.8115 11.4098C34.0297 11.2732 35.1744 10.8072 36.2926 10.3526C36.6493 10.208 37.006 10.0622 37.3617 9.92908C38.0614 9.66737 39.1166 9.31842 40.1954 9.31842C40.3083 9.31842 40.4233 9.32301 40.5372 9.33105C40.5372 9.33105 42.0227 9.43665 42.0227 9.43665C42.0227 9.43665 41.9684 6.74145 41.9684 6.74145C41.9365 4.86124 41.8225 3.06826 40.796 1.79412C39.5298 0.222687 37.3521 0.0608368 35.4076 0.033287C33.773 0.0114822 32.1118 0 30.4698 0C21.6195 0 12.683 0.322556 3.90831 0.956177C2.64854 1.048 1.24396 1.2374 0.515579 2.3474C0.0331841 3.08778 -0.00302124 4.01984 0.000171661 5.07474C0.000171661 5.07474 0.0172119 8.63084 0.0172119 8.63084C0.0172119 8.63084 0.353714 9.04408 0.353714 9.04408Z" style="fill:#F9D889;fill-rule:evenodd;mix-blend-mode:normal;" transform="matrix(1 0 0 1 48.405 92.121)" />
        <path id="Shape" d="M42.4165 0.782852L42.0311 0C42.0311 0 5.9197 0.110199 5.9197 0.110199C5.9197 0.110199 6.35631 1.95941 6.35737 1.96631C6.18912 3.98656 5.09122 5.88742 3.09456 7.61612C3.09456 7.61612 0 10.2975 0 10.2975C0 10.2975 3.9699 10.231 3.9699 10.231C10.9768 10.1139 18.1616 9.97958 24.4998 9.86021C31.9455 9.72017 39.2208 9.58472 46.363 9.46764C46.363 9.46764 49.6887 9.41254 49.6887 9.41254C49.6887 9.41254 47.2841 6.93544 47.2841 6.93544C45.7433 5.34908 44.2375 3.44476 42.4165 0.782852C42.4165 0.782852 42.4165 0.782852 42.4165 0.782852Z" style="fill:#D8DEEC;fill-rule:evenodd;mix-blend-mode:normal;" transform="matrix(1 0 0 1 44.2 136.217)" />
        <path id="Shape" d="M18.3352 16.6372C22.9132 16.6372 27.4826 16.1391 31.9189 15.1565C33.643 14.772 35.5214 14.1601 36.3733 12.5462C36.8802 11.5866 36.9367 10.4387 36.9856 9.42976C36.9856 9.42976 37.3062 3.22782 37.3062 3.22782L37.5372 2.03862C37.5372 2.03862 36.5277 1.55766 36.5277 1.55766C36.0794 1.34301 35.6929 1.11344 35.3457 0.855164C35.3457 0.855164 34.3873 0.141188 34.3873 0.141188C34.3873 0.141188 33.5833 1.04915 33.5833 1.04915C31.2747 3.66056 27.932 5.21937 24.6415 5.21937C24.6415 5.21937 24.5936 5.21937 24.5936 5.21937C21.2573 5.2033 17.8922 3.59513 15.5899 0.918297C15.5899 0.918297 14.8009 0 14.8009 0C14.8009 0 13.835 0.693314 13.835 0.693314C10.8597 2.83065 7.19331 4.00607 3.50986 4.00607C2.92524 4.00607 2.33423 3.97623 1.756 3.91769C1.756 3.91769 0 3.73977 0 3.73977L1.60265 14.3909C1.60265 14.3909 2.48438 14.6204 2.48438 14.6204C7.64376 15.9589 12.9767 16.6372 18.3352 16.6372C18.3352 16.6372 18.3352 16.6372 18.3352 16.6372Z" style="fill:#D8DEEC;fill-rule:evenodd;mix-blend-mode:normal;" transform="matrix(1 0 0 1 50.515 26.308)" />
        <path id="Shape" d="M0.831593 21.9507C0.831593 21.9507 2.45874 20.9268 2.45874 20.9268C6.81412 18.1869 9.92252 13.4691 10.8937 8.18892C13.1459 10.4387 16.413 11.714 19.991 11.714C20.6672 11.714 21.353 11.667 22.0271 11.574C26.1961 11.0012 29.9573 8.89486 32.8793 6.97562C32.7867 10.029 33.6833 13.1087 35.3935 15.5422C37.1282 18.0147 39.635 19.7755 42.4505 20.4987C42.4505 20.4987 44.0095 20.9004 44.0095 20.9004C44.0095 20.9004 44.1267 19.1763 44.1267 19.1763C44.2939 16.7038 44.0266 14.0672 43.3536 11.551C42.3941 7.97311 40.5987 4.37224 38.0196 0.845982C38.0196 0.845982 37.4009 0 37.4009 0C37.4009 0 36.4648 0.383389 36.4648 0.383389C35.9026 0.614113 35.2487 0.808102 34.4096 0.996353C29.9754 1.97778 25.4049 2.47596 20.8248 2.47596C15.8071 2.47596 10.8011 1.87907 5.94518 0.702496C5.94518 0.702496 4.68328 0.404049 4.68328 0.404049C4.68328 0.404049 4.33294 1.74477 4.33294 1.74477C0.672924 6.61174 -0.818981 13.5931 0.438648 19.9638C0.438648 19.9638 0.831593 21.9507 0.831593 21.9507Z" style="fill:#935252;fill-rule:evenodd;mix-blend-mode:normal;" transform="matrix(1 0 0 1 48.021 40.47)" />
        <path id="Shape" d="M29.8871 14.2256C29.3419 11.3042 28.1386 8.5677 26.4071 6.31215C24.1889 3.41951 21.0933 1.27643 17.692 0.276642C17.692 0.276642 16.7326 0 16.7326 0L16.1905 0.897629L11.521 2.81572L10.8214 2.99365C10.8214 2.99365 10.5541 3.68811 10.5541 3.68811C10.208 4.5869 9.7682 5.22052 9.16867 5.68541C8.02179 6.575 6.48409 6.57845 5.2467 6.58189C5.2467 6.58189 0 6.60025 0 6.60025C0 6.60025 1.6953 8.95914 1.6953 8.95914C4.36391 12.6725 8.058 17.0895 12.9884 18.2844C14.5826 18.6724 16.2395 18.8687 17.9114 18.8687C21.712 18.8687 25.4519 17.8689 28.736 15.9715C28.736 15.9715 30.1725 15.7511 30.1725 15.7511C30.1725 15.7511 29.8871 14.2256 29.8871 14.2256Z" style="fill:#FFD2BB;fill-rule:evenodd;mix-blend-mode:normal;" transform="matrix(1 0 0 1 86.028 129.62)" />
        <path id="Shape" d="M42.833 18.1226C43.0544 17.4201 43.2376 16.6694 43.3771 15.89C43.3771 15.89 43.6284 14.4861 43.6284 14.4861C43.6284 14.4861 42.3346 14.1762 42.3346 14.1762C39.6734 13.5391 37.2082 11.8357 35.5715 9.50438C34.1605 7.4956 33.3267 4.98635 33.2234 2.43808C33.2234 2.43808 33.1254 0 33.1254 0C33.1254 0 31.1724 1.23396 31.1724 1.23396C27.5561 3.52052 24.4668 4.77744 21.4479 5.19067C20.7845 5.28136 20.1147 5.32727 19.4587 5.32727C16.4514 5.32727 13.6593 4.36076 11.5956 2.60567C11.5956 2.60567 9.94711 1.20297 9.94711 1.20297C9.94711 1.20297 9.42958 3.3977 9.42958 3.3977C8.29227 8.22794 5.19878 12.5325 1.15434 14.9109C1.15434 14.9109 0 15.5904 0 15.5904C0 15.5904 0.544159 16.7647 0.544159 16.7647C2.63027 23.4774 7.88443 29.102 14.2716 31.4528C16.6197 32.3172 19.1169 32.7557 21.6917 32.7557C25.9023 32.7557 30.0501 31.5871 33.6877 29.3763C38.1613 26.657 41.4092 22.6601 42.833 18.1226C42.833 18.1226 42.833 18.1226 42.833 18.1226Z" style="fill:#FFD2BB;fill-rule:evenodd;mix-blend-mode:normal;" transform="matrix(1 0 0 1 48.496 45.978)" />
        <path id="Shape" d="M21.5714 5.37318C21.0645 4.86009 20.6833 4.16792 20.4054 3.25995C20.4054 3.25995 20.0603 2.127 20.0603 2.127C20.0603 2.127 18.9358 2.26245 18.9358 2.26245C17.2842 2.06387 15.6815 1.43713 14.294 0.447662C14.2578 0.415527 14.2194 0.384537 14.179 0.355835C14.179 0.355835 13.6859 0 13.6859 0C13.6859 0 13.1077 0.148071 13.1077 0.148071C9.48601 1.07211 6.19764 3.26913 3.84957 6.33395C1.6921 9.14738 0.392942 12.5967 0.0915794 16.309C0.0915794 16.309 0 17.4304 0 17.4304C0 17.4304 0.980761 17.8173 0.980761 17.8173C3.627 18.8618 6.45108 19.391 9.3742 19.391C14.0235 19.391 18.6781 17.9929 22.483 15.4527C25.454 13.4634 27.1365 11.0942 27.3505 8.59985C27.3527 8.58838 27.7946 6.74719 27.7946 6.74719C27.7946 6.74719 26.0514 6.72882 26.0514 6.72882C24.1431 6.70816 22.6512 6.47055 21.5714 5.37318C21.5714 5.37318 21.5714 5.37318 21.5714 5.37318Z" style="fill:#FFD2BB;fill-rule:evenodd;mix-blend-mode:normal;" transform="matrix(1 0 0 1 23.207 129.599)" />
        <path id="Shape" d="M28.8978 7.75272C28.8978 7.75272 28.6391 7.15125 28.6391 7.15125C28.1929 6.11356 27.9447 4.94733 27.6785 3.70189C27.5976 3.32539 27.5145 2.9397 27.4261 2.54828C27.4261 2.54828 27.0236 0.773666 27.0236 0.773666C27.0236 0.773666 25.5019 1.57718 25.5019 1.57718C22.1688 3.33801 18.4364 4.26894 14.7093 4.26894C12.1354 4.26894 9.63935 3.8316 7.29341 2.96954C5.91118 2.45989 4.56517 1.79182 3.29263 0.98143C3.29263 0.98143 1.74961 0 1.74961 0C1.74961 0 1.28425 1.8653 1.28425 1.8653C1.12984 2.48399 0.998863 3.08778 0.867882 3.70189C0.708149 4.45489 0.526054 5.30891 0.293907 6.08372C0.293907 6.08372 0 7.06744 0 7.06744C0 7.06744 0.759262 7.69878 0.759262 7.69878C4.61522 10.9002 9.41253 12.7884 14.2673 13.0157C14.606 13.0318 14.9499 13.0398 15.2896 13.0398C16.8987 13.0398 18.5162 12.8539 20.1029 12.4992C20.1029 12.4992 18.562 17.6921 18.562 17.6921C18.562 17.6921 20.4458 17.6749 20.4458 17.6749C21.4159 17.6657 22.3871 17.6623 23.3561 17.6623C23.3561 17.6623 25.2868 17.6657 25.2868 17.6657C25.2868 17.6657 25.5754 16.6074 25.5754 16.6074C26.0514 14.8592 26.6935 13.1385 27.4837 11.4948C27.4837 11.4948 28.9468 8.44949 28.9468 8.44949L29.1395 8.31747L29.0788 8.17514L29.4175 7.4715L28.8978 7.75272Z" style="fill:#ED6D66;fill-rule:evenodd;mix-blend-mode:normal;" transform="matrix(1 0 0 1 55.472 74.46)" />
        <path id="Shape" d="M52.6224 2.03058C51.0347 2.03058 49.2436 2.52072 47.15 3.52626C46.7411 3.7214 46.3322 3.92571 45.9019 4.14152C43.7562 5.21248 41.7308 6.2249 39.5499 6.2249C39.4093 6.2249 39.2677 6.21916 39.1367 6.21227C36.7833 6.06879 34.7686 4.72004 32.6281 3.2852C30.9584 2.16259 29.2322 1.00209 27.2909 0.451111C26.4188 0.205467 25.4742 0.0803528 24.4839 0.0803528C21.9984 0.0803528 19.4789 0.871231 17.5632 1.55995C17.1617 1.70229 16.7624 1.85152 16.3609 1.99959C16.3609 1.99959 16.1724 2.06961 16.1724 2.06961C13.6274 3.00971 10.995 3.98311 8.31464 4.02099C8.31464 4.02099 8.18472 4.02214 8.18472 4.02214C6.19551 4.02214 4.15199 3.33571 2.71972 2.18439C2.71972 2.18439 0 0 0 0C0 0 1.51853 9.76492 1.51853 9.76492C1.79753 11.5407 2.1138 13.0961 3.15739 14.159C4.38733 15.4067 6.22533 15.5112 8.00262 15.5112C8.00262 15.5112 49.6503 15.3849 49.6503 15.3849C51.1689 15.3815 52.5128 15.3114 53.5745 14.4873C54.9013 13.4565 55.3102 11.6463 55.6435 9.72476C55.6435 9.72476 56.5593 4.45603 56.5593 4.45603L56.7244 3.25421C56.7244 3.25421 55.7628 2.83753 55.7628 2.83753C54.8406 2.30148 53.7842 2.03058 52.6224 2.03058C52.6224 2.03058 52.6224 2.03058 52.6224 2.03058Z" style="fill:#F7B36F;fill-rule:evenodd;mix-blend-mode:normal;" transform="matrix(1 0 0 1 41.623 120.817)" />
        <path id="Shape" d="M40.1941 2.35887C39.2901 2.35887 38.2731 2.57468 37.0836 3.02005C36.7162 3.15665 36.352 3.30357 35.9815 3.45509C34.8729 3.90506 33.8272 4.33092 32.7144 4.45489C32.479 4.48129 32.2373 4.49506 31.9977 4.49506C29.8317 4.49506 27.8063 3.42984 25.6553 2.29919C23.4988 1.16853 21.269 0 18.8613 0C18.7739 0 18.6856 0.00114441 18.5972 0.0045929C16.2576 0.0895309 14.1534 1.29365 12.096 2.47021C10.0046 3.66515 8.02818 4.79351 5.8409 4.79351C5.8409 4.79351 5.65561 4.79007 5.65561 4.79007C4.4459 4.75449 3.20211 4.30337 2.15107 3.52052C2.15107 3.52052 0 1.91695 0 1.91695L0.0489845 12.9813C0.0489845 12.9813 1.41737 12.9687 1.41737 12.9687C4.83033 12.9354 8.18472 12.9181 11.3879 12.9181C19.5098 12.9216 27.5188 13.0088 35.1902 13.1764C36.6726 13.2108 38.1623 13.2682 39.6819 13.3291C39.6819 13.3291 42.1855 13.4324 42.1855 13.4324L41.9906 2.52761C41.9906 2.52761 40.7937 2.39217 40.7937 2.39217C40.5999 2.37035 40.3986 2.35887 40.1941 2.35887C40.1941 2.35887 40.1941 2.35887 40.1941 2.35887Z" style="fill:#F7B36F;fill-rule:evenodd;mix-blend-mode:normal;" transform="matrix(1 0 0 1 48.417 98.199)" />
        <path id="Shape" d="M110.096 131.665C108.591 128.269 106.298 125.453 104.08 122.861C103.844 122.586 103.607 122.31 103.37 122.034C101.46 119.816 99.4861 117.521 98.0283 114.973C96.4097 112.144 95.3959 109.008 94.3225 105.688C93.9711 104.602 93.6079 103.479 93.2256 102.381C91.8381 98.3967 89.7339 93.4183 85.7352 90.2582C83.7822 88.7144 81.5651 87.7547 79.4205 86.8273C79.1074 86.6918 78.7954 86.5575 78.4834 86.4198C76.394 85.5015 74.0247 84.3628 72.3613 82.4734C71.3103 81.2796 71.0025 79.8344 70.5766 77.8337C70.4413 77.2035 70.3018 76.5538 70.1293 75.8651C74.2866 73.0023 77.3152 69.0387 78.7187 64.5712C79.9486 60.6512 79.9699 56.0494 78.7805 51.6129C77.7976 47.9443 75.9862 44.2653 73.3996 40.6725C73.6914 40.3557 73.9512 39.9953 74.1695 39.5832C74.8319 38.3297 74.9032 36.9362 74.9607 35.817C74.9607 35.817 75.2589 29.995 75.2589 29.995C77.4163 30.282 79.6867 29.8091 81.546 28.512C84.9163 26.1623 86.7288 21.433 85.9525 17.0137C85.2283 12.8906 82.3063 9.18066 78.5079 7.56331C75.7658 6.39592 72.7468 6.35001 69.1102 7.44049C68.8685 6.53941 68.4021 5.66703 67.7418 4.92091C66.7771 3.82814 65.562 3.13138 64.3928 2.53908C60.1322 0.38567 56.4317 -0.386847 53.0784 0.179053C51.3948 0.463725 49.741 1.10079 48.1628 2.07419C47.0958 2.73192 46.082 3.53313 45.1481 4.45602C43.1568 6.42692 41.4668 8.99126 40.1272 12.0779C40.0015 12.366 39.9025 12.6495 39.8312 12.9239C36.6301 12.257 33.5281 12.7287 31.0938 14.299C27.8491 16.3916 25.6309 21.3848 27.5019 25.4827C28.4539 27.5684 30.3079 29.2076 33.0127 30.3554C33.7922 30.686 34.5898 30.9569 35.3991 31.1716C35.3991 31.1716 36.8686 40.9285 36.8686 40.9285C36.907 41.1856 37.0103 41.4198 37.1562 41.6138C33.4003 46.8205 31.9414 53.9924 33.1959 60.5915C33.1863 60.6363 33.1724 60.6788 33.1671 60.7258C33.1171 61.1425 33.2374 61.5374 33.4653 61.8393C33.5728 62.2755 33.6921 62.7093 33.8231 63.1387C35.2575 67.8047 38.1284 71.9773 41.8331 75.0145C41.7714 75.1224 41.7192 75.2372 41.6841 75.3635C41.4477 76.2439 41.2751 77.052 41.109 77.8337C40.682 79.8344 40.3743 81.2796 39.3232 82.4734C37.6599 84.3628 35.2915 85.5015 33.2012 86.4198C32.8892 86.5575 32.5772 86.6918 32.2641 86.8273C30.1194 87.7547 27.9023 88.7144 25.9493 90.2582C21.9517 93.4183 19.8464 98.3967 18.4589 102.381C18.0766 103.479 17.7135 104.602 17.3621 105.688C16.2897 109.008 15.2759 112.144 13.6563 114.973C12.1984 117.521 10.2241 119.816 8.31584 122.034C8.07837 122.31 7.8409 122.586 7.6045 122.861C5.38634 125.453 3.0947 128.269 1.58895 131.664C-0.144683 135.576 -0.471603 139.606 0.66676 143.016C1.99361 146.985 5.4481 149.752 8.99417 149.751C9.1358 149.751 9.27743 149.747 9.41906 149.739C9.87803 149.709 10.2699 149.438 10.4967 149.046C13.1164 149.987 15.8861 150.454 18.6644 150.454C22.4043 150.454 26.1527 149.614 29.5529 147.979C29.5965 147.984 29.6391 147.993 29.6839 147.993C29.6839 147.993 29.7052 147.993 29.7052 147.993C38.0251 147.861 46.5634 147.701 54.8205 147.546C63.0755 147.392 71.6116 147.233 79.9284 147.101C79.9465 147.101 79.9614 147.096 79.9785 147.095C81.465 148.127 83.0698 148.917 84.8141 149.34C86.519 149.754 88.2697 149.957 90.0246 149.957C93.8145 149.957 97.6183 149.006 100.988 147.174C100.995 147.52 100.995 147.866 100.983 148.215C100.955 149.014 101.524 149.692 102.265 149.739C102.407 149.748 102.55 149.752 102.691 149.752C106.238 149.751 109.692 146.985 111.018 143.016C112.156 139.606 111.829 135.576 110.096 131.665C110.096 131.665 110.096 131.665 110.096 131.665ZM84.4415 116.36C84.09 118.378 83.8728 120.469 83.5746 122.518C81.3384 121.855 78.9232 121.836 76.6859 122.481C75.4868 122.827 74.3698 123.346 73.29 123.846C72.0377 124.427 70.8546 124.977 69.6299 125.228C66.9592 125.777 64.3055 124.83 62.5516 123.938C61.639 123.474 60.752 122.931 59.8117 122.355C57.4157 120.889 54.9398 119.373 52.0167 119.236C49.1554 119.101 46.6252 120.326 44.1749 121.509C42.6766 122.232 41.2614 122.916 39.7993 123.294C36.1105 124.248 31.95 123.044 29.2005 120.227C29.1323 120.157 29.0588 120.096 28.9822 120.044C28.8405 119.132 28.6989 118.218 28.5562 117.302C28.3517 115.987 28.1952 114.636 28.7117 113.83C29.3432 112.848 30.8979 112.695 32.4846 112.674C36.9401 112.618 41.4552 112.588 45.9032 112.587C53.7983 112.587 61.7913 112.672 69.6779 112.846C71.1612 112.878 72.6787 112.939 74.1472 112.998C76.5922 113.095 79.1191 113.195 81.6142 113.174C82.0508 113.171 82.4661 113.104 82.8324 113.046C83.5459 112.931 83.8813 112.899 84.1092 113.071C84.7737 113.578 84.729 114.706 84.4415 116.36C84.4415 116.36 84.4415 116.36 84.4415 116.36ZM83.0646 125.423C82.7249 127.032 82.3096 128.627 82.0231 130.27C81.742 131.889 81.414 133.402 80.4971 134.113C79.7666 134.68 78.6474 134.729 77.3674 134.733C77.3674 134.733 35.8166 134.859 35.8166 134.859C34.2065 134.861 32.6858 134.795 31.8105 133.905C31.0725 133.155 30.818 131.845 30.5827 130.335C30.2664 128.298 29.9512 126.274 29.6371 124.25C32.8285 126.338 36.8144 127.089 40.435 126.152C42.1442 125.71 43.7426 124.938 45.2898 124.191C47.5495 123.099 49.6857 122.07 51.8985 122.173C54.1646 122.278 56.2539 123.557 58.4646 124.91C59.4081 125.488 60.3835 126.085 61.3888 126.595C63.6453 127.742 65.8943 128.328 68.0007 128.328C68.7333 128.328 69.4479 128.258 70.14 128.115C71.6586 127.803 73.0355 127.164 74.3676 126.546C75.4038 126.065 76.3835 125.611 77.3908 125.32C79.2352 124.789 81.233 124.831 83.0646 125.423C83.0646 125.423 83.0646 125.423 83.0646 125.423ZM75.3111 110.103C74.9565 110.089 74.5997 110.075 74.2472 110.061C72.7692 110.002 71.24 109.941 69.7332 109.908C62.1778 109.741 54.5213 109.66 46.9531 109.649C46.6028 109.648 46.2524 109.648 45.9021 109.648C42.5935 109.648 39.2487 109.665 35.9188 109.698C36.0018 109.696 35.9135 106.731 35.8634 103.489C37.3457 104.472 39.0794 105.008 40.8215 105.008C41.3444 105.008 41.8672 104.96 42.3848 104.862C44.4432 104.47 46.2035 103.377 47.9051 102.321C49.5366 101.308 51.0774 100.35 52.7355 100.099C53.7972 99.9394 54.8844 100.079 55.8811 100.505C56.7757 100.889 57.6126 101.504 58.4976 102.155C59.3335 102.77 60.1982 103.406 61.18 103.895C63.6144 105.107 66.448 105.216 68.9548 104.196C69.5404 103.957 70.0825 103.67 70.6064 103.392C71.1899 103.082 71.7405 102.79 72.2953 102.596C73.2345 102.265 74.2558 102.206 75.2259 102.414C75.2131 102.712 75.2035 102.999 75.2035 103.269C75.2046 103.81 75.2461 110.1 75.3111 110.103C75.3111 110.103 75.3111 110.103 75.3111 110.103ZM75.3644 99.4585C74.0578 99.2484 72.7043 99.3609 71.4509 99.8017C70.7119 100.061 70.0463 100.415 69.4021 100.756C68.9154 101.014 68.4543 101.258 67.9922 101.447C66.1914 102.18 64.0723 102.099 62.3238 101.227C61.5475 100.842 60.8127 100.301 60.0343 99.7283C59.0652 99.0154 58.0632 98.2785 56.8875 97.7746C55.4521 97.1605 53.8856 96.9584 52.3564 97.1903C50.1745 97.5209 48.329 98.6665 46.5443 99.7753C44.9778 100.748 43.4987 101.666 41.911 101.968C39.8387 102.363 37.6237 101.612 36.135 100.007C36.0434 99.9096 35.9412 99.835 35.8337 99.7696C35.8411 97.5025 35.9125 95.651 36.134 95.3135C36.4949 94.7614 37.4853 94.6179 38.5023 94.5445C48.9051 93.7938 59.4667 93.4838 69.893 93.625C71.5372 93.6468 73.3656 93.7639 74.2665 94.8751C75.2068 96.0367 75.3867 97.7424 75.3644 99.4585C75.3644 99.4585 75.3644 99.4585 75.3644 99.4585ZM62.2972 85.0264C60.0811 85.4718 57.6468 85.5544 54.4053 85.2939C50.7943 85.0035 46.2429 84.2895 43.0696 81.3176C43.0685 81.3165 43.0674 81.3153 43.0653 81.3142C43.3507 80.4372 43.5498 79.5051 43.766 78.4927C43.8895 77.9142 44.0163 77.3196 44.1685 76.7078C45.5146 77.563 46.9394 78.2746 48.4228 78.821C50.9327 79.7451 53.596 80.1985 56.2774 80.1985C60.1791 80.1985 64.116 79.2343 67.6706 77.3563C67.759 77.742 67.8399 78.1208 67.9187 78.4927C68.1849 79.7428 68.5065 80.8275 68.9495 81.8468C67.2276 83.3964 64.936 84.4961 62.2972 85.0264C62.2972 85.0264 62.2972 85.0264 62.2972 85.0264ZM66.4161 89.6156C66.2734 89.9209 66.0966 90.3054 65.9912 90.76C64.4759 90.7439 62.9552 90.69 61.4388 90.659C61.4388 90.659 62.2769 88.0131 62.2769 88.0131C62.4515 87.9821 62.6251 87.95 62.7976 87.9156C64.7453 87.5241 66.546 86.8572 68.1327 85.9515C68.1327 85.9515 66.4161 89.6156 66.4161 89.6156ZM34.0116 27.6223C31.9574 26.7499 30.5901 25.594 29.948 24.1856C28.7585 21.5799 30.3346 18.2132 32.4931 16.822C34.7219 15.3837 37.8974 15.1828 40.9866 16.2825C41.6234 16.5098 42.3177 16.2033 42.6255 15.5616C42.8917 15.0049 42.7991 14.3392 42.4178 13.8926C42.4359 13.7756 42.4839 13.5804 42.5957 13.3233C43.7841 10.5868 45.2632 8.3312 46.9915 6.62202C47.7753 5.84606 48.6251 5.1734 49.5164 4.62472C50.8049 3.8304 52.1456 3.31041 53.499 3.08313C56.2976 2.61021 59.4826 3.30352 63.2353 5.19981C64.3076 5.74275 65.1489 6.24781 65.7676 6.94687C66.3618 7.61952 66.6621 8.45861 66.5514 9.137C66.4683 9.64896 66.6429 10.1712 67.0103 10.5087C67.3788 10.8462 67.8835 10.9483 68.3404 10.7785C72.0856 9.3815 74.998 9.22769 77.5059 10.2964C80.4556 11.5521 82.7196 14.4034 83.2733 17.5601C83.8494 20.8373 82.5289 24.3256 80.0648 26.0451C77.5538 27.7968 74.0013 27.4628 71.9791 25.283C71.7012 24.9834 71.3146 24.8273 70.9249 24.856C70.5319 24.8846 70.1709 25.0936 69.9324 25.431C67.9091 28.2869 64.5866 30.057 61.2535 30.057C61.2397 30.057 61.2259 30.057 61.212 30.057C57.864 30.042 54.5362 28.2399 52.5268 25.3541C52.3085 25.0396 51.9805 24.8318 51.6195 24.7802C51.5588 24.771 51.4971 24.7664 51.4364 24.7664C51.1371 24.7664 50.8432 24.8732 50.6036 25.0729C45.9714 28.9332 39.4585 29.9341 34.0116 27.6223C34.0116 27.6223 34.0116 27.6223 34.0116 27.6223ZM72.5892 29.2088C72.5754 29.28 72.5615 29.3511 72.5573 29.4257C72.5573 29.4257 72.2378 35.6552 72.2378 35.6552C72.192 36.5506 72.1452 37.4769 71.8001 38.1277C71.2145 39.2366 69.6789 39.7095 68.253 40.0252C58.7755 42.1258 48.8252 41.9421 39.4159 39.5006C39.4159 39.5006 38.2392 31.6893 38.2392 31.6893C42.7554 32.1462 47.4206 30.9386 51.2031 28.2239C53.7439 31.1797 57.4625 32.9795 61.2003 32.9968C61.2003 32.9968 61.2524 32.9968 61.2524 32.9968C64.9476 32.9968 68.6311 31.2566 71.1814 28.3731C71.6234 28.6991 72.0973 28.9746 72.5892 29.2088C72.5892 29.2088 72.5892 29.2088 72.5892 29.2088ZM39.5096 43.1405C39.6331 42.9775 39.7162 42.7939 39.7641 42.6045C44.735 43.8097 49.839 44.4147 54.943 44.4147C59.5987 44.4147 64.2533 43.9119 68.8025 42.9041C69.5532 42.7376 70.3296 42.5299 71.0686 42.2268C73.5381 45.6039 75.2515 49.0372 76.1619 52.4291C76.5102 53.7308 76.7476 55.0681 76.8584 56.418C76.902 56.9517 76.9989 57.5647 77.0671 58.1742C74.5167 57.4706 72.2783 55.9646 70.7374 53.903C69.0762 51.6807 68.2722 48.7651 68.5853 46.1032C68.6555 45.5051 68.3797 44.9209 67.8899 44.6305C67.3979 44.3389 66.7931 44.402 66.3628 44.7877C63.6101 47.2488 61.0523 48.8856 58.5413 49.7913C55.5383 50.8737 52.5033 50.9024 49.9966 49.874C49.2065 49.5503 47.3216 48.6033 46.8658 46.8149C46.6955 46.1457 46.114 45.6968 45.4708 45.737C44.8287 45.7783 44.3005 46.2972 44.2036 46.9836C43.6754 50.7326 42.0195 54.2795 39.5426 56.9724C38.7557 57.8276 37.3319 59.1292 35.7527 59.4219C35.0978 53.7262 36.1083 47.6654 39.5096 43.1405C39.5096 43.1405 39.5096 43.1405 39.5096 43.1405ZM36.2926 62.3064C38.4299 61.8886 40.2359 60.3918 41.4786 59.0407C43.6052 56.7289 45.2111 53.8753 46.1535 50.7864C46.933 51.5336 47.9042 52.1592 49.0266 52.6195C52.1222 53.8902 55.8078 53.8753 59.4071 52.5771C61.5379 51.8091 63.6741 50.597 65.8848 48.8958C66.1734 51.3454 67.1126 53.7364 68.6152 55.7475C70.6065 58.4105 73.5126 60.3218 76.7967 61.1299C76.8244 61.1356 76.8521 61.1356 76.8797 61.1402C75.6956 66.6832 72.2347 71.2633 67.611 74.0732C62.0267 77.4686 55.1827 78.2033 49.3045 76.0384C47.5772 75.4025 45.9331 74.5106 44.422 73.4075C40.9962 70.9097 37.5748 66.7728 36.2926 62.3064C36.2926 62.3064 36.2926 62.3064 36.2926 62.3064ZM7.98043 146.695C5.94224 146.226 4.0297 144.406 3.2321 142.019C2.35463 139.394 2.6528 136.082 4.04887 132.932C5.39062 129.905 7.53105 127.282 9.60864 124.854C9.84291 124.58 10.0783 124.306 10.3136 124.032C12.3124 121.71 14.3793 119.309 15.9767 116.516C17.7518 113.413 18.8625 109.976 19.937 106.655C20.282 105.585 20.6398 104.479 21.0114 103.413C22.2659 99.8109 24.1433 95.3296 27.5616 92.6287C29.2377 91.304 31.2003 90.4546 33.2789 89.5547C33.5973 89.4181 33.9147 89.2803 34.2299 89.1414C36.5833 88.1072 39.2647 86.809 41.3007 84.4972C41.4626 84.3135 41.6085 84.1287 41.7469 83.9416C45.4719 87.1327 50.3331 87.9132 54.2018 88.2243C55.4882 88.3276 56.6607 88.3804 57.7522 88.3804C58.2835 88.3804 58.7947 88.3666 59.292 88.3414C59.292 88.3414 58.5966 90.535 58.5966 90.535C58.5849 90.5717 58.5817 90.6084 58.5732 90.6452C56.4754 90.6624 54.3786 90.714 52.2818 90.7944C47.623 90.9712 42.9694 91.2765 38.319 91.6128C37.1817 91.6943 35.0658 91.847 33.9051 93.6193C33.1288 94.805 33.1352 96.2491 33.1394 97.2041C33.1394 97.2041 33.1927 109.727 33.1927 109.727C32.9456 109.73 32.6975 109.732 32.4526 109.735C31.0033 109.754 27.9886 109.793 26.4701 112.157C25.2795 114.011 25.6469 116.375 25.8663 117.788C25.8663 117.788 27.815 130.311 27.815 130.311C26.8673 130.13 25.9483 129.785 25.0985 129.297C25.0719 129.043 24.9845 128.796 24.8386 128.585C23.5022 126.652 21.463 125.364 19.2459 125.051C17.0288 124.74 14.751 125.42 12.9992 126.919C12.4093 127.423 12.3113 128.347 12.7788 128.983C13.2463 129.619 14.1046 129.726 14.6935 129.221C15.8542 128.229 17.4238 127.758 18.8923 127.966C19.5813 128.062 20.2564 128.309 20.8709 128.676C17.4707 129.823 14.3676 132.039 12.1005 134.994C9.58308 138.278 8.14655 142.383 7.98043 146.695C7.98043 146.695 7.98043 146.695 7.98043 146.695ZM31.0672 143.803C25.1092 147.781 17.3345 148.633 10.7535 146.036C11.0271 142.652 12.2177 139.456 14.2026 136.868C16.3665 134.047 19.4227 132.021 22.727 131.175C22.7505 131.194 22.7686 131.217 22.792 131.234C24.3765 132.38 26.2167 133.103 28.1132 133.325C28.1644 133.331 28.2133 133.335 28.2634 133.335C28.3156 133.335 28.3656 133.325 28.4167 133.319C28.7138 134.291 29.1707 135.261 29.9417 136.044C31.424 137.55 33.3983 137.776 35.3438 137.796C35.3236 137.877 35.3065 137.958 35.2991 138.043C35.0882 140.609 32.8807 142.591 31.0672 143.803C31.0672 143.803 31.0672 143.803 31.0672 143.803ZM54.7738 144.608C48.0277 144.734 41.0953 144.864 34.246 144.978C36.5227 143.006 37.8155 140.728 38.0146 138.302C38.0295 138.125 38.0093 137.953 37.9688 137.792C37.9688 137.792 71.5085 137.689 71.5085 137.689C71.5319 137.731 71.55 137.774 71.5777 137.815C73.0792 140.013 74.7479 142.268 76.6391 144.215C69.3563 144.336 61.9586 144.475 54.7738 144.608C54.7738 144.608 54.7738 144.608 54.7738 144.608ZM100.227 144.29C95.7601 146.877 90.3611 147.673 85.4126 146.473C81.1839 145.447 77.8445 141.781 74.8968 137.679C74.8968 137.679 77.3759 137.671 77.3759 137.671C78.7315 137.668 80.5887 137.661 82.0891 136.498C82.9804 135.808 83.5459 134.89 83.9377 133.872C83.9846 133.858 84.0325 133.848 84.0794 133.828C84.0794 133.828 88.8 131.892 88.8 131.892C89.0822 131.776 89.3048 131.568 89.457 131.314C92.5686 132.229 95.4289 134.19 97.482 136.868C99.0911 138.965 100.176 141.463 100.677 144.135C100.524 144.159 100.372 144.206 100.227 144.29C100.227 144.29 100.227 144.29 100.227 144.29ZM108.452 142.019C107.655 144.406 105.742 146.226 103.705 146.695C103.538 142.383 102.101 138.278 99.583 134.995C97.3169 132.04 94.2139 129.823 90.8137 128.676C91.4271 128.31 92.1022 128.063 92.7912 127.966C94.2597 127.759 95.8293 128.229 96.99 129.222C97.58 129.726 98.4372 129.619 98.9047 128.983C99.3732 128.348 99.2742 127.423 98.6843 126.919C96.9325 125.421 94.6569 124.74 92.4387 125.051C90.2205 125.364 88.1824 126.652 86.8459 128.585C86.6308 128.896 86.5414 129.28 86.5872 129.654C86.5872 129.654 84.7747 130.398 84.7747 130.398C84.7747 130.398 87.1207 116.902 87.1207 116.902C87.3762 115.43 87.9076 112.369 85.682 110.672C84.5372 109.8 83.319 109.996 82.4288 110.138C82.1253 110.188 81.8378 110.234 81.5918 110.236C80.4161 110.246 79.2267 110.228 78.0382 110.196C78.0382 110.196 77.8338 98.8341 77.8338 98.8341C77.805 97.2007 77.7603 94.7316 76.327 92.9524C74.7765 91.0286 72.0195 90.5419 69.7609 90.6831C69.4915 90.7003 69.222 90.7095 68.9516 90.7209C68.9516 90.7209 71.371 85.5567 71.371 85.5567C73.0258 87.2268 75.441 88.2576 77.4536 89.1415C77.7699 89.2815 78.0872 89.4181 78.4046 89.5559C80.4832 90.4546 82.4469 91.3041 84.123 92.6287C87.5402 95.3296 89.4187 99.8109 90.6721 103.413C91.0437 104.479 91.4015 105.586 91.7476 106.655C92.821 109.978 93.9317 113.413 95.7068 116.516C97.3052 119.31 99.3711 121.71 101.37 124.033C101.605 124.307 101.842 124.581 102.076 124.854C104.152 127.282 106.293 129.905 107.636 132.932C109.032 136.083 109.33 139.394 108.452 142.019C108.452 142.019 108.452 142.019 108.452 142.019Z" style="fill:#000000;mix-blend-mode:normal;" transform="matrix(1 0 0 1 13.903 0)" />
      </g>
    </g>
  </g>
</svg>