<?xml version="1.0" encoding="utf-8"?>
<svg width="102.065" height="94.975" viewBox="0 0 102.065 94.975" fill="none" stroke="none" version="1.1" xmlns:xlink="http://www.w3.org/1999/xlink" xmlns="http://www.w3.org/2000/svg">
  <defs>
    <path id="path_1" d="M102.065 0L102.065 0L102.065 94.9754L0 94.9754L0 0L102.065 0Z" />
    <rect id="rect_2" x="0" y="0" width="102.065" height="94.975" />
    <clipPath id="clip_path_3">
      <use xlink:href="#rect_2" />
    </clipPath>
  </defs>
  <g id="Bread basket" opacity="1" clip-path="url(#clip_path_3)" transform="translate(0 0)">
    <g>
      <use xlink:href="#path_1" style="mix-blend-mode:normal;" />
      <g>
        <path id="Shape" d="M27.1834 6.68013C26.5021 4.69036 24.8512 1.20864 21.4515 0.251438C20.8597 0.0847788 20.2227 0 19.5585 0C17.3291 0 15.137 0.945609 13.6824 1.65717C8.49244 4.19184 3.86077 7.81993 0.289675 12.1494C0.289675 12.1494 0 12.5009 0 12.5009C0 12.5009 0.111353 12.9313 0.111353 12.9313C0.969475 16.25 1.78944 19.5861 2.54789 22.8461C2.54789 22.8461 2.82121 24.0199 2.82121 24.0199C2.82121 24.0199 3.9729 23.4772 3.9729 23.4772C8.96589 21.1229 14.5717 19.8788 20.1838 19.8788C22.2543 19.8788 24.3225 20.0491 26.3308 20.3846C26.3308 20.3846 27.2286 20.5353 27.2286 20.5353C27.2286 20.5353 27.4684 19.7165 27.4684 19.7165C28.7112 15.479 28.61 10.8495 27.1834 6.68013C27.1834 6.68013 27.1834 6.68013 27.1834 6.68013Z" style="fill:#EFB17C;fill-rule:evenodd;mix-blend-mode:normal;" transform="translate(27.574 3.912)" />
        <path id="Shape" d="M44.9996 20.0643C45.0175 20.0737 45.0339 20.0817 45.0518 20.0911C45.0518 20.0911 45.9613 20.5643 45.9613 20.5643C45.9613 20.5643 46.4285 19.6969 46.4285 19.6969C49.0706 14.7935 52.9508 10.3242 57.6541 6.7707C57.704 6.7323 57.7554 6.69534 57.8068 6.65839C57.8535 6.62506 57.8994 6.591 57.9462 6.55694C57.9462 6.55694 58.7887 5.93016 58.7887 5.93016C58.7887 5.93016 58.0497 5.19831 58.0497 5.19831C55.4567 2.62814 51.9938 0.870974 48.3005 0.250713C47.3069 0.0847788 46.2805 0 45.248 0C42.194 0 39.2046 0.713735 36.5998 2.06512C36.5998 2.06512 35.709 2.41945 35.709 2.41945C35.709 2.41945 35.9761 3.21869 35.9761 3.21869C37.3497 7.32213 37.447 11.8712 36.2502 16.0297C36.2502 16.0297 35.9854 16.9492 35.9854 16.9492C35.9854 16.9492 36.9806 17.1709 36.9806 17.1709C39.4101 17.7137 41.7408 18.5049 43.9079 19.5216C44.1633 19.6418 44.4319 19.7737 44.7372 19.9295C44.4631 19.7904 44.1874 19.6534 43.9079 19.5223C39.4265 17.418 34.2552 16.3058 28.953 16.3058C28.5419 16.3058 28.1253 16.3123 27.7134 16.3253C22.3116 16.5007 16.9612 17.8144 12.2407 20.1252C12.2407 20.1252 11.5742 20.4512 11.5742 20.4512C11.5742 20.4512 11.7299 21.1374 11.7299 21.1374C11.9207 21.9794 12.1083 22.8229 12.2937 23.6663C12.2937 23.6663 10.3251 23.7873 10.3251 23.7873C10.3345 23.662 10.4357 23.5583 10.5704 23.5359C6.85839 24.1634 3.45549 25.9698 0.98859 28.6204C-0.00969505 29.6907 -0.271338 30.7667 0.292439 31.5036C0.647522 31.9623 1.25023 32.1949 2.08343 32.1949C2.34274 32.1949 2.63163 32.1724 2.94233 32.1282C6.42699 31.6326 9.81041 30.3906 12.7251 28.5364C12.7251 28.5364 13.2647 28.1936 13.2647 28.1936C13.918 31.3283 14.534 34.4644 15.1094 37.591C15.1094 37.591 14.0714 37.9135 14.0714 37.9135C13.4384 37.8084 12.7835 37.7548 12.1247 37.7548C9.35721 37.7548 6.59519 38.6873 4.54566 40.3126C3.35271 41.2568 2.87303 42.3517 3.26004 43.2357C3.49521 43.7813 4.06132 44.2168 4.76837 44.3987C5.08608 44.4827 5.43649 44.524 5.83908 44.524C6.061 44.524 6.30941 44.5117 6.62244 44.4864C9.62742 44.2364 12.5748 43.335 15.1507 41.8785C15.1507 41.8785 15.8204 41.5662 15.8204 41.5662C16.0618 42.9545 16.2977 44.3407 16.522 45.7218C16.522 45.7218 16.198 46.9478 16.198 46.9478C16.198 46.9478 17.5506 46.8696 17.5506 46.8696C24.2217 46.4863 31.0361 46.1776 37.8045 45.953C37.8045 45.953 38.5543 45.9283 38.5543 45.9283C38.5543 45.9283 38.7366 45.2508 38.7366 45.2508C38.742 45.2291 38.7467 45.2081 38.7514 45.1863C39.7847 41.7546 41.9697 38.6055 44.9069 36.3128C45.6529 35.7302 46.3522 35.4223 46.93 35.4223C47.1714 35.4223 47.3863 35.4773 47.5841 35.5889C47.9797 35.8136 48.2343 36.2701 48.2662 36.8099C48.2966 37.3236 48.1331 37.862 47.9516 38.3671C47.201 40.4518 46.0321 42.4835 44.5713 44.2422C44.5713 44.2422 43.2857 45.7899 43.2857 45.7899C43.2857 45.7899 45.3874 45.7363 45.3874 45.7363C46.4744 45.708 47.5631 45.682 48.6486 45.6602C52.1519 45.5907 55.9254 45.5414 59.8641 45.5138C59.8641 45.5138 60.8499 45.5066 60.8499 45.5066C60.8499 45.5066 60.853 44.59 60.853 44.59C60.8935 34.7455 54.5682 25.0336 44.9996 20.0643C44.9996 20.0643 44.9996 20.0643 44.9996 20.0643ZM15.3057 38.6663C15.4154 39.2714 15.5237 39.875 15.6304 40.4793C15.5229 39.8743 15.4162 39.2699 15.3057 38.6663C15.3057 38.6663 15.3057 38.6663 15.3057 38.6663ZM27.6737 26.8198C27.6737 26.8198 27.6433 26.9176 27.6433 26.9176C27.6168 27.001 27.5942 27.0727 27.5771 27.1343C26.5049 31.0776 24.0333 34.6137 20.6164 37.094C20.3999 37.2527 19.893 37.6222 19.4109 37.6222C19.3331 37.6222 19.2599 37.6121 19.1867 37.5918C18.8604 37.5019 18.6019 37.2005 18.5123 36.8049C18.4306 36.4454 18.4866 36.0556 18.5941 35.5817C19.0956 33.3869 20.1639 31.2624 21.6847 29.4364C22.9696 27.8915 24.555 26.5778 26.2697 25.6358C26.2697 25.6358 26.4402 25.5402 26.4402 25.5402C26.7642 25.3532 27.3661 25.0047 27.7539 25.0047C27.8481 25.0047 27.8824 25.0271 27.9151 25.0532C28.179 25.267 27.8138 26.3872 27.6737 26.8198C27.6737 26.8198 27.6737 26.8198 27.6737 26.8198ZM37.4361 35.7368C36.2338 37.5403 34.6577 39.0946 33.8253 39.8598C33.2771 40.3634 32.6105 40.917 31.8272 41.2068C31.4721 41.338 31.1123 41.4046 30.758 41.4046C30.3212 41.4046 29.9233 41.301 29.6024 41.1039C28.9507 40.7061 28.5839 39.9054 28.6446 39.0142C28.7023 38.1671 29.1064 37.3628 29.5339 36.6201C30.6046 34.7578 31.8731 33.1108 33.3051 31.7254C33.9662 31.0848 35.9029 29.6805 37.3528 29.6805C37.5077 29.6805 37.6534 29.6972 37.7842 29.7298C38.316 29.8639 38.6626 30.2646 38.8448 30.9551C39.1788 32.2239 38.7054 33.8325 37.4361 35.7368C37.4361 35.7368 37.4361 35.7368 37.4361 35.7368Z" style="fill:#C67045;mix-blend-mode:normal;" transform="translate(18.821 7.499)" />
        <path id="Shape" d="M13.3488 3.67447C13.3488 3.67447 13.2063 3.10855 13.2063 3.10855C13.0171 2.34989 12.8255 1.59196 12.6316 0.835468C12.6316 0.835468 12.4175 0 12.4175 0C12.4175 0 11.5064 0.134052 11.5064 0.134052C7.46963 0.726778 3.60965 2.6977 0.915364 5.54104C-0.015954 6.52868 -0.252677 7.51342 0.279171 8.17208C0.491755 8.43801 0.917701 8.75466 1.74 8.75466C2.04836 8.75466 2.40267 8.71264 2.79513 8.62786C6.45266 7.83007 9.9342 6.24391 12.8629 4.04039C12.8629 4.04039 13.3488 3.67447 13.3488 3.67447Z" style="fill:#C67045;fill-rule:evenodd;mix-blend-mode:normal;" transform="translate(15.306 16.993)" />
        <path id="Shape" d="M88.2282 0.24564C87.5866 0.0804329 86.7915 0 85.7956 0C84.8635 0 83.9049 0.0673866 82.9612 0.133327C82.0952 0.19347 81.2768 0.250713 80.5441 0.250713C80.5441 0.250713 79.4905 0.249264 78.9789 0.249264C73.3435 0.249264 67.6606 0.306507 62.0875 0.418098C49.9733 0.661564 37.7003 1.17748 25.6096 1.95208C19.8877 2.31873 13.9245 2.76654 7.88492 3.28246C7.88492 3.28246 7.7175 3.29623 7.7175 3.29623L7.58668 3.35202L7.43639 3.32086C7.43639 3.32086 6.51676 3.3984 6.51676 3.3984C5.98724 3.44332 5.45851 3.48825 4.93056 3.53462C3.89334 3.62737 2.71751 3.73244 1.71377 4.22082C0.808928 4.66283 -0.0709958 5.59177 0.00453758 6.67361C0.0831857 7.72936 1.06045 8.54092 1.99176 8.87496C2.853 9.18581 3.79522 9.22857 4.68527 9.22857C4.85736 9.22857 5.02945 9.22712 5.21556 9.22494C31.5167 8.96698 58.1496 7.81631 84.3768 5.80553C86.262 5.65989 88.0507 5.43309 89.2141 4.27806C89.8432 3.65636 90.0776 2.68104 89.8098 1.78615C89.5699 1.0043 88.9937 0.442734 88.2282 0.24564C88.2282 0.24564 88.2282 0.24564 88.2282 0.24564Z" style="fill:#FF8984;fill-rule:evenodd;mix-blend-mode:normal;" transform="translate(5.382 52.741)" />
        <path id="Shape" d="M11.2241 5.64104C10.3932 6.92939 9.72745 8.30107 9.08347 9.62709C8.66609 10.485 8.23391 11.3727 7.75969 12.2328C5.99516 15.4276 3.75486 17.5861 1.28017 18.4752C1.28017 18.4752 0 18.9354 0 18.9354C0 18.9354 0.865906 19.9259 0.865906 19.9259C2.91855 22.2758 4.55692 24.8728 5.73353 27.6451C5.73353 27.6451 6.18517 28.7074 6.18517 28.7074C6.18517 28.7074 7.20915 28.0784 7.20915 28.0784C9.73757 26.527 11.7046 23.9685 12.8983 20.6795C13.9083 17.8919 14.2813 14.9247 14.6418 12.0538C14.6418 12.0538 14.6488 11.998 14.6488 11.998C14.7025 11.5712 14.7555 11.1437 14.8108 10.7191C15.1347 8.23585 15.5747 5.36352 16.7007 2.69335C16.7007 2.69335 17.8368 0 17.8368 0C17.8368 0 15.2297 1.57674 15.2297 1.57674C13.7299 2.48394 12.382 3.85055 11.2241 5.64104C11.2241 5.64104 11.2241 5.64104 11.2241 5.64104Z" style="fill:#F9D889;fill-rule:evenodd;mix-blend-mode:normal;" transform="translate(71.91 14.669)" />
        <path id="Shape" d="M1.14935 3.46433L0 3.47593C0 3.47593 0.175206 4.53312 0.175206 4.53312C0.917302 8.99379 1.71157 13.3342 3.26974 17.4057C5.16897 22.362 8.06883 26.3502 11.6555 28.9385C16.3097 32.3 22.2115 33.5369 27.3711 34.3035C32.9434 35.1303 38.631 35.5491 44.2766 35.5491C48.0252 35.5491 51.8151 35.3636 55.5396 34.9977C59.6838 34.5926 64.0437 33.939 67.8507 31.9246C72.8336 29.2878 76.6445 24.3373 78.5811 17.9861C80.313 12.3081 80.4266 6.31348 80.5271 1.02459C80.5271 1.02459 80.5466 0 80.5466 0C80.5466 0 79.4494 0.0833282 79.4494 0.0833282C53.501 2.06367 27.1577 3.2013 1.14935 3.46433C1.14935 3.46433 1.14935 3.46433 1.14935 3.46433Z" style="fill:#ED6D66;fill-rule:evenodd;mix-blend-mode:normal;" transform="translate(9.827 58.499)" />
        <g id="Group" transform="translate(5.517 0.926)">
          <path id="Shape" d="M28.4021 0C28.4021 0 27.5292 0.215932 27.5292 0.215932C21.854 1.61877 16.3759 4.23241 11.6874 7.775C6.9444 11.3589 3.04002 15.8746 0.394798 20.8324C0.394798 20.8324 0 21.5729 0 21.5729C0 21.5729 0.745991 22.0229 0.745991 22.0229C3.05637 23.417 5.17831 25.1148 7.05264 27.069C7.05264 27.069 7.47935 27.514 7.47935 27.514C7.47935 27.514 8.09141 27.3379 8.09141 27.3379C11.668 26.306 14.0492 23.1366 15.4166 20.6599C15.8815 19.8179 16.3082 18.9441 16.7201 18.0992C16.7201 18.0992 16.7598 18.0166 16.7598 18.0166C17.3984 16.705 18.0587 15.3486 18.8639 14.1001C20.232 11.9806 21.8977 10.4669 23.719 9.67999C22.2473 12.6443 21.7209 15.9384 21.344 18.8252C21.2934 19.2114 21.2443 19.5984 21.1961 19.9846C21.1961 19.9846 21.1735 20.165 21.1735 20.165C20.8168 23.0062 20.4477 25.9445 19.4572 28.674C18.2806 31.9145 16.256 34.4926 13.7564 35.9346C13.7564 35.9346 13.0813 36.3244 13.0813 36.3244C13.0813 36.3244 13.339 37.0237 13.339 37.0237C14.3786 39.846 14.9011 42.7219 14.8917 45.5718C14.8917 45.5718 14.8886 46.5066 14.8886 46.5066C14.8886 46.5066 15.8932 46.5029 15.8932 46.5029C17.1686 46.4971 18.4434 46.4935 19.7158 46.4935C20.1814 46.4935 20.6463 46.4942 21.1135 46.495C21.5371 46.495 22.0207 46.4768 22.681 46.4355C22.681 46.4355 23.3094 46.3942 23.3094 46.3942C23.3094 46.3942 23.5423 45.8508 23.5423 45.8508C32.6351 32.7166 34.6184 15.4493 28.719 0.78692C28.719 0.78692 28.4021 0 28.4021 0Z" style="fill:#F7B36F;fill-rule:evenodd;mix-blend-mode:normal;" transform="translate(59.267 5.571)" />
          <path id="Shape" d="M0 11.077C0 11.077 1.38841 11.0335 1.38841 11.0335C2.8142 10.9893 4.23999 10.9488 5.66344 10.9118C5.66344 10.9118 6.10107 10.9002 6.10107 10.9002C6.10107 10.9002 6.3884 10.5915 6.3884 10.5915C8.26272 8.57931 9.73212 6.18812 10.6377 3.67374C10.8254 3.14985 11.0224 2.53829 10.9819 1.91078C10.9407 1.19994 10.5708 0.562294 10.0148 0.244915C9.72744 0.0826035 9.40195 0 9.04765 0C8.13813 0 7.2364 0.552872 6.63914 1.01735C3.7206 3.2955 1.50521 6.42869 0.401028 9.8394C0.401028 9.8394 0 11.077 0 11.077Z" style="fill:#F7B36F;fill-rule:evenodd;mix-blend-mode:normal;" transform="translate(51.185 41.442)" />
          <path id="Shape" d="M1.23359 12.4472C1.65019 12.7016 2.16335 12.8356 2.71856 12.8356C3.1445 12.8356 3.58992 12.7545 4.00652 12.6009C4.88411 12.2777 5.60907 11.6784 6.20399 11.1335C7.65159 9.80244 12.3027 5.19034 11.3854 1.6992C11.1495 0.809383 10.6503 0.261581 9.895 0.069561C9.70656 0.0231857 9.50566 0 9.29697 0C7.7131 0 5.71809 1.36008 4.83271 2.21729C3.36176 3.64041 2.06056 5.32874 0.963383 7.2359C0.506287 8.03586 0.0733337 8.90683 0.00792313 9.85679C-0.0676079 10.9459 0.401165 11.9379 1.23359 12.4472C1.23359 12.4472 1.23359 12.4472 1.23359 12.4472Z" style="fill:#F7B36F;fill-rule:evenodd;mix-blend-mode:normal;" transform="translate(41.346 35.695)" />
          <path id="Shape" d="M1.144 13.9508C1.27015 13.9849 1.40331 14.003 1.53958 14.003C2.01303 14.003 2.49816 13.803 3.10943 13.3566C6.62835 10.8053 9.17468 7.16127 10.2789 3.10131C10.2983 3.03392 10.3272 2.94334 10.3606 2.83828C10.3606 2.83828 10.3747 2.79625 10.3747 2.79625C10.6838 1.84195 10.7258 1.45646 10.7274 1.22748C10.7274 1.22748 10.7383 0 10.7383 0C10.7383 0 9.46669 0.326073 9.46669 0.326073C9.16845 0.402155 8.79234 0.576061 8.25037 0.88909C8.25037 0.88909 8.08918 0.981838 8.08918 0.981838C6.30986 1.96078 4.66604 3.32159 3.33447 4.91934C2.5511 5.86205 1.87987 6.88446 1.34101 7.95688C0.798264 9.03437 0.391785 10.1561 0.134037 11.2886C0.0102253 11.8306 -0.0512924 12.2864 0.0530529 12.7501C0.19166 13.3458 0.609819 13.8052 1.144 13.9508C1.144 13.9508 1.144 13.9508 1.144 13.9508Z" style="fill:#F7B36F;fill-rule:evenodd;mix-blend-mode:normal;" transform="translate(31.18 30.749)" />
          <path id="Shape" d="M7.19129 54.4236L7.43969 55.1228C7.43969 55.1228 8.22851 55.0562 8.22851 55.0562C14.096 54.5576 19.898 54.1236 25.4735 53.7664C26.355 53.7098 27.2388 53.6569 28.1226 53.604C28.1226 53.604 30.285 53.4729 30.285 53.4729C30.285 53.4729 29.8256 52.2976 29.8256 52.2976C29.6457 51.1962 29.4565 50.0658 29.2462 48.8419C29.2462 48.8419 29.0181 47.5137 29.0181 47.5137C29.0181 47.5137 27.7652 48.184 27.7652 48.184C25.3559 49.4738 22.6266 50.2759 19.8715 50.5042C19.585 50.5281 19.3545 50.539 19.1474 50.539C18.7954 50.539 18.4972 50.5056 18.2355 50.4368C17.7099 50.2991 17.2824 49.9803 17.1196 49.6028C16.8378 48.9572 17.266 48.0775 18.2371 47.3087C20.2118 45.7435 22.7473 44.8813 25.3769 44.8813C25.9975 44.8813 26.6189 44.9313 27.224 45.0291C27.224 45.0291 28.6147 45.2544 28.6147 45.2544C28.6147 45.2544 28.3772 43.9588 28.3772 43.9588C27.8734 41.2177 27.3205 38.3888 26.7326 35.5498C26.7326 35.5498 26.4531 34.1992 26.4531 34.1992C26.4531 34.1992 25.2126 34.9462 25.2126 34.9462C22.4833 36.5889 19.3514 37.6975 16.1548 38.1511C15.8877 38.1895 15.6355 38.2091 15.4042 38.2091C14.4355 38.2091 14.1684 37.862 14.0812 37.749C13.6911 37.241 13.9387 36.4215 14.7438 35.5571C17.1243 33.0014 20.4057 31.2616 23.9807 30.6573C23.9636 30.6602 23.9457 30.6616 23.9285 30.6616C23.8141 30.6616 23.7113 30.6029 23.6599 30.508C23.6599 30.508 25.5264 29.9037 25.5264 29.9037C24.8155 26.6973 24.0812 23.5583 23.3445 20.5751C23.3445 20.5751 22.998 19.1701 22.998 19.1701C22.998 19.1701 21.7677 20.0462 21.7677 20.0462C19.0204 22.0019 15.7966 23.4214 12.4451 24.1518C12.1025 24.2264 11.7949 24.2648 11.5325 24.2648C10.9064 24.2648 10.6713 24.0619 10.5482 23.9098C10.134 23.3931 10.5895 22.5729 11.1541 21.9765C13.7284 19.2571 17.4218 17.3579 21.2872 16.7673C21.2872 16.7673 22.3462 16.605 22.3462 16.605C22.3462 16.605 22.0939 15.6341 22.0939 15.6341C21.6158 13.7957 21.1198 11.94 20.6191 10.1176C19.9619 7.7337 19.367 5.76785 18.2051 3.97445C16.8487 1.87817 14.8669 0.46592 12.7691 0.10072C12.3891 0.0340562 11.9927 0 11.5909 0C10.1581 0 8.64044 0.434038 7.31744 1.22096C5.87374 2.08034 4.57254 3.37883 3.44889 5.0802C-0.541143 11.1212 -0.31065 18.6897 0.44079 25.2967C1.56522 35.1766 3.83668 44.9762 7.19129 54.4236C7.19129 54.4236 7.19129 54.4236 7.19129 54.4236Z" style="fill:#F7B36F;fill-rule:evenodd;mix-blend-mode:normal;" />
        </g>
        <path id="Shape" d="M89.4913 52.0924C88.2991 51.7851 86.8601 51.7801 85.4491 51.8503C94.3262 38.3169 95.9809 20.9279 89.7226 6.1684C89.5403 5.73798 89.0451 5.49814 88.5615 5.60683C83.1761 6.81692 77.9612 9.08203 73.349 12.2C70.6048 9.40738 66.9255 7.51109 62.9129 6.83793C58.7321 6.13652 54.3909 6.79808 50.6672 8.69654C49.3356 5.85754 47.339 3.95401 44.9274 3.27505C41.7963 2.39321 38.5647 3.69315 36.4062 4.74745C31.5502 7.11908 27.1794 10.4233 23.6706 14.3543C23.3568 13.1724 23.0399 11.992 22.7159 10.8146C22.1841 8.88277 21.5222 6.47925 20.1914 4.4221C18.6878 2.09975 16.4622 0.52953 14.0849 0.115056C12.0836 -0.234928 9.83322 0.222297 7.91062 1.36717C6.33922 2.30409 4.93212 3.70185 3.7306 5.52133C-0.415171 11.7993 -0.187793 19.5584 0.580778 26.3204C1.69743 36.133 3.93539 45.8528 7.2316 55.2328C6.76594 55.2734 6.29639 55.3118 5.83151 55.3531C4.70163 55.4538 3.42068 55.5683 2.24796 56.1407C0.792583 56.8508 -0.0873413 58.1595 0.00688076 59.4739C0.0987668 60.7594 1.1282 61.9397 2.62874 62.481C3.27428 62.7136 3.93539 62.8187 4.58093 62.8643C5.3168 67.3054 6.11184 71.8748 7.7728 76.2152C9.73355 81.3359 12.7463 85.4698 16.4864 88.1704C21.3182 91.6594 27.3717 92.9318 32.656 93.7165C38.3054 94.5556 44.0124 94.9752 49.7242 94.9752C53.5148 94.9752 57.3086 94.7897 61.0853 94.4194C65.1345 94.0216 69.8098 93.3318 73.785 91.229C78.9953 88.4726 82.9721 83.3257 84.9819 76.7369C86.7238 71.0299 86.8601 65.0794 86.9691 59.3159C88.4595 59.1102 89.8853 58.6979 90.9389 57.653C91.8149 56.7842 92.1318 55.4922 91.7666 54.2807C91.4333 53.1771 90.604 52.3793 89.4913 52.0924C89.4913 52.0924 89.4913 52.0924 89.4913 52.0924ZM88.1831 7.60955C93.9852 22.0256 92.0649 38.8987 83.1006 51.8459C83.0648 51.8974 83.0359 51.951 83.0126 52.0061C82.4768 52.0394 81.9684 52.064 81.5097 52.0648C79.774 52.0611 78.0305 52.0648 76.2854 52.0727C76.294 49.4149 75.8058 46.8411 75.0481 44.2876C74.9578 43.9832 74.8916 43.6731 74.8285 43.363C78.5553 40.9211 80.9366 36.7147 82.1062 30.5085C82.3561 29.1825 82.5532 27.8282 82.7439 26.5188C83.2485 23.0552 83.7243 19.7829 85.1119 16.7251C85.2739 16.3686 85.1805 15.9563 84.8791 15.6903C84.577 15.4244 84.13 15.3606 83.757 15.5302C80.8245 16.8613 78.2773 19.0242 76.586 21.6205C75.7793 22.8589 75.1657 24.1827 74.5715 25.4624C74.1098 26.458 73.6324 27.4876 73.0788 28.4361C71.4412 31.2418 69.5801 32.2758 68.3724 32.6555C67.6723 31.9722 66.7044 31.4722 65.9701 30.8411C64.6393 29.6977 63.2057 28.6579 61.6865 27.7412C64.2679 22.9023 68.0671 18.5033 72.7144 14.9911C77.3055 11.5224 82.6373 8.97978 88.1831 7.60955C88.1831 7.60955 88.1831 7.60955 88.1831 7.60955ZM74.2889 41.3914C73.8349 40.398 73.0881 39.5444 72.4994 38.6213C71.8337 37.5778 71.1648 36.5134 70.4055 35.525C70.0723 35.0903 69.8028 34.6569 69.5365 34.2323C71.1702 33.599 73.1348 32.2266 74.8301 29.3224C75.4273 28.2993 75.9226 27.2312 76.4015 26.1979C76.9948 24.9197 77.5547 23.7111 78.2906 22.5821C79.3231 20.9981 80.7147 19.5968 82.3304 18.4932C81.5292 21.0438 81.1445 23.6901 80.7684 26.2704C80.5807 27.5623 80.386 28.8985 80.1431 30.1883C79.1378 35.5199 77.2214 39.2024 74.2974 41.4124C74.2943 41.4052 74.292 41.3979 74.2889 41.3914C74.2889 41.3914 74.2889 41.3914 74.2889 41.3914ZM51.4903 10.3892C54.7966 8.66679 58.831 8.03711 62.5594 8.66317C66.0301 9.24575 69.3395 10.9326 71.7581 13.3311C71.6585 13.405 71.5572 13.4767 71.4583 13.5513C66.6335 17.1976 62.6786 21.7589 59.9734 26.7812C59.584 26.5783 59.1923 26.3805 58.7929 26.1935C56.5245 25.1276 54.1238 24.3211 51.6483 23.7675C52.8958 19.4337 52.7977 14.723 51.3626 10.4406C51.4054 10.4254 51.449 10.4109 51.4903 10.3892C51.4903 10.3892 51.4903 10.3892 51.4903 10.3892ZM57.895 27.8493C67.7493 32.4766 74.3324 42.2117 74.2919 52.0852C70.541 52.1098 66.7853 52.1569 63.0624 52.2315C62.4823 52.2438 61.9014 52.2576 61.3197 52.2736C62.8444 50.5099 63.9384 48.4056 64.4547 46.2028C64.6058 45.5586 64.7537 44.7109 64.5551 43.8623C64.3192 42.8544 63.5989 42.0305 62.6777 41.7124C61.9777 41.4711 61.1593 41.503 60.2466 41.8081C58.7437 42.3102 57.5555 43.2631 56.688 44.0377C54.6533 45.8543 52.99 47.9701 51.7456 50.3258C51.3921 50.9946 51.0214 51.7801 50.8392 52.6489C49.7802 52.688 48.722 52.7257 47.666 52.7576C44.9087 52.8416 42.1521 52.9431 39.3971 53.0641C38.6534 53.0967 32.0065 53.1293 31.9247 53.4423C31.9543 53.3293 31.9621 53.209 31.9419 53.0858C30.6072 44.8637 28.9992 36.6243 27.1397 28.4435C31.7301 26.1987 36.9154 24.9226 42.1833 24.7516C47.7618 24.5705 53.194 25.6422 57.895 27.8493C57.895 27.8493 57.895 27.8493 57.895 27.8493ZM58.5663 52.3583C56.6842 52.4228 54.7974 52.4974 52.9098 52.5706C53.0695 52.0634 53.3054 51.5764 53.5343 51.1439C54.6759 48.9831 56.2014 47.0426 58.0679 45.376C58.7921 44.7289 59.7709 43.9377 60.9195 43.5536C61.3719 43.4029 61.7402 43.3674 61.9847 43.4515C62.2666 43.5493 62.5174 43.8732 62.6077 44.2579C62.7237 44.7528 62.6217 45.3188 62.5072 45.8071C61.9435 48.2136 60.5909 50.4866 58.6986 52.209C58.648 52.2547 58.6036 52.3054 58.5663 52.3583C58.5663 52.3583 58.5663 52.3583 58.5663 52.3583ZM28.7415 46.6434C28.8544 47.2006 28.9689 47.7571 29.0763 48.315C26.2138 49.5331 22.9169 50.762 19.6479 50.47C19.0031 50.412 18.7072 50.2454 18.666 50.1475C18.6294 50.0599 18.7033 49.7715 19.0615 49.3715C20.316 47.9687 22.0813 47.3114 23.342 47.0071C24.8091 46.6521 26.5051 46.5376 28.6792 46.6463C28.7002 46.647 28.7205 46.6434 28.7415 46.6434C28.7415 46.6434 28.7415 46.6434 28.7415 46.6434ZM25.4258 31.7201C25.4258 31.7201 25.4266 31.7194 25.4266 31.7194C25.6415 32.7309 25.8557 33.7374 26.1048 34.7323C23.4433 36.7365 20.112 37.8814 16.6865 37.9568C15.9203 37.9742 15.7825 37.8256 15.7692 37.8082C15.728 37.7546 15.7046 37.5133 15.8985 37.1119C16.6313 35.5917 18.3857 34.5736 20.119 33.6613C21.8812 32.7338 23.6138 31.8875 25.4258 31.7201C25.4258 31.7201 25.4258 31.7201 25.4258 31.7201ZM37.3328 6.39011C39.1806 5.48652 41.9193 4.36556 44.3496 5.05031C47.3148 5.88506 48.8006 9.05737 49.4212 10.874C50.7948 14.8875 50.8875 19.3199 49.6953 23.385C42.0672 22.1068 33.8816 23.1806 26.709 26.5609C25.9374 23.2364 25.1213 19.9243 24.2671 16.6266C27.7517 12.4036 32.2666 8.86463 37.3328 6.39011C37.3328 6.39011 37.3328 6.39011 37.3328 6.39011ZM22.5135 18.1585C22.6311 18.6642 22.7463 19.1707 22.8616 19.6772C19.9874 21.9126 16.3906 23.435 12.6934 23.972C12.5353 23.9951 12.3936 23.9966 12.2822 23.9886C13.2462 22.0793 15.0139 20.8576 16.3338 20.1656C18.3077 19.1323 20.5239 18.6055 22.2347 18.2614C22.3359 18.2411 22.4278 18.2034 22.5135 18.1585C22.5135 18.1585 22.5135 18.1585 22.5135 18.1585ZM2.56332 26.1247C1.82979 19.6736 1.59696 12.2964 5.42892 6.49304C6.47237 4.91268 7.66922 3.71418 8.98599 2.92944C10.485 2.03673 12.2098 1.67515 13.7173 1.93818C15.5364 2.25556 17.2729 3.50985 18.4837 5.37933C19.577 7.06838 20.1494 8.96757 20.7848 11.2754C21.2567 12.9884 21.6927 14.7093 22.107 16.4346C22.0112 16.4274 21.9131 16.4288 21.8142 16.4484C19.9664 16.8194 17.5625 17.394 15.3565 18.5497C13.7625 19.3838 11.6156 20.883 10.4367 23.2829C10.2856 23.5908 10.14 23.9647 10.2054 24.4038C10.2677 24.8248 10.4974 25.1828 10.8681 25.4393C11.3439 25.7675 11.9365 25.8479 12.4021 25.8479C12.6497 25.8479 12.8623 25.8248 13.0002 25.8045C16.7044 25.2668 20.3168 23.8263 23.3155 21.7119C23.6387 23.1756 24.1978 24.5516 24.5435 26.0277C24.8433 27.3073 24.9157 28.6058 25.0894 29.8898C22.9488 30.1195 21.0511 31.0397 19.137 32.0469C17.1156 33.1107 15.0598 34.32 14.0794 36.3533C13.6114 37.3221 13.6364 38.2227 14.148 38.8879C14.7989 39.735 15.9483 39.8147 16.5276 39.8147C16.6079 39.8147 16.6772 39.8132 16.7332 39.8118C20.3012 39.7328 23.7788 38.6263 26.6538 36.6779C26.7721 37.0474 26.8967 37.4155 27.0346 37.7807C27.6645 39.4451 27.5944 41.3878 27.9861 43.1102C28.1123 43.6631 28.2299 44.2196 28.3498 44.7746C26.1687 44.692 24.4088 44.8326 22.8405 45.2115C20.6275 45.747 18.7905 46.7745 17.529 48.1846C16.7254 49.0831 16.47 50.0215 16.8103 50.8272C17.0618 51.4207 17.7245 52.1612 19.4571 52.3163C19.8566 52.3518 20.2537 52.3692 20.6493 52.3692C23.7804 52.3692 26.7729 51.3127 29.4252 50.2041C29.6159 51.2591 29.8005 52.3134 29.9702 53.3633C29.9811 53.43 30.0006 53.4938 30.0255 53.5539C28.8614 53.6235 27.6972 53.6938 26.5362 53.7677C20.8019 54.135 15.0107 54.5705 9.26866 55.0582C5.93818 45.6775 3.68075 35.9482 2.56332 26.1247C2.56332 26.1247 2.56332 26.1247 2.56332 26.1247ZM83.064 76.2304C81.1974 82.3482 77.5524 87.1023 72.8 89.616C69.1526 91.5456 64.9134 92.1782 60.8758 92.5745C51.5852 93.4861 42.1958 93.2542 32.9698 91.8847C27.9347 91.1369 22.1841 89.937 17.7082 86.7052C14.2694 84.222 11.4833 80.3794 9.651 75.5927C8.08895 71.5132 7.30947 67.1482 6.60164 62.8897C32.649 62.6259 59.0101 61.4876 84.971 59.5058C84.8651 65.0809 84.7132 70.8255 83.064 76.2304C83.064 76.2304 83.064 76.2304 83.064 76.2304ZM89.4851 56.3835C88.5607 57.3001 86.9738 57.4914 85.2902 57.6211C59.095 59.6312 32.4846 60.7818 6.2006 61.0391C5.21789 61.0485 4.20247 61.0586 3.34902 60.7507C2.72918 60.5275 2.04159 59.9942 1.99565 59.35C1.94815 58.6921 2.57266 58.0769 3.17381 57.7834C4.00001 57.3798 5.02788 57.2885 6.0215 57.1994C6.80097 57.1306 7.58512 57.0654 8.3677 56.998C8.43934 57.0132 8.51176 57.0233 8.58652 57.0233C8.69164 57.0233 8.7991 57.0081 8.905 56.9748C8.92914 56.9675 8.95017 56.9552 8.97353 56.9458C14.8573 56.4429 20.7957 55.9951 26.674 55.6183C38.7477 54.8452 51.0043 54.33 63.1052 54.0865C69.2071 53.9633 75.3985 53.9075 81.5058 53.9198C82.2868 53.9213 83.1348 53.8612 84.0373 53.7981C85.7333 53.6786 87.6551 53.5438 88.9594 53.88C89.5404 54.03 89.7654 54.5097 89.8472 54.7821C90.0192 55.3538 89.8744 55.998 89.4851 56.3835C89.4851 56.3835 89.4851 56.3835 89.4851 56.3835Z" style="fill:#000000;mix-blend-mode:normal;" transform="translate(4.386 0)" />
        <path id="Shape" d="M9.6011 0.848551C9.47729 0.929707 9.34959 1.01304 9.28807 1.04637C6.09465 2.77817 3.6511 5.06357 2.02519 7.84026C1.04092 9.51989 0.386818 11.2988 0.0792351 13.1277C-0.00798035 13.6422 -0.0617065 14.195 0.129848 14.7523C0.496616 15.8203 1.67789 16.5319 2.98922 16.5319C3.15118 16.5319 3.31471 16.521 3.47979 16.4993C4.70078 16.3326 5.67727 15.6334 6.39289 15.0428C8.97036 12.9139 10.7442 10.1365 11.8546 8.23299C12.7673 6.66857 13.6854 4.80706 13.5748 2.86223C13.5397 2.25211 13.4346 0.394224 11.9746 0.0420666C11.1421 -0.158649 10.2879 0.400021 9.6011 0.848551C9.6011 0.848551 9.6011 0.848551 9.6011 0.848551ZM10.1026 7.34823C8.42921 10.2169 6.8765 12.1625 5.06915 13.6559C4.56222 14.0747 3.88942 14.5682 3.19172 14.6638C2.69179 14.7312 2.13814 14.5044 2.02913 14.1878C1.9606 13.9885 2.00343 13.6842 2.04859 13.4146C2.32035 11.7966 2.90126 10.2198 3.77496 8.72788C5.22411 6.25336 7.41691 4.2078 10.2918 2.64917C10.4258 2.57671 10.5745 2.47962 10.7466 2.36658C10.8992 2.26731 11.1951 2.07384 11.4248 1.95283C11.484 2.12094 11.5541 2.42527 11.5837 2.96003C11.6678 4.44039 10.9218 5.94395 10.1026 7.34823C10.1026 7.34823 10.1026 7.34823 10.1026 7.34823Z" style="fill:#000000;mix-blend-mode:normal;" transform="translate(35.583 30.091)" />
        <path id="Shape" d="M0.711922 13.8474C1.41586 14.7365 2.65009 15.2604 3.9692 15.2604C4.17711 15.2604 4.38658 15.2473 4.59605 15.2205C6.01405 15.0415 7.22414 14.3227 8.0114 13.7974C10.3187 12.2576 12.2202 10.1997 13.5098 7.84622C14.7269 5.62603 14.9924 3.65656 14.3001 1.99287C13.7722 0.723362 12.8712 0.261063 12.2086 0.0973053C10.1069 -0.422237 7.57455 1.24652 5.85286 2.54792C3.51288 4.31595 1.69541 6.5941 0.598232 9.13602C-0.236526 11.0693 -0.196815 12.6982 0.711922 13.8474C0.711922 13.8474 0.711922 13.8474 0.711922 13.8474ZM2.44758 9.82802C3.4194 7.5774 5.03129 5.55793 7.10963 3.98771C9.9137 1.86897 11.1876 1.76462 11.6969 1.88998C11.8994 1.93998 12.1968 2.07475 12.4413 2.66241C13.0378 4.09568 12.3861 5.81444 11.7343 7.00351C10.5881 9.09399 8.89984 10.9222 6.85032 12.2902C5.8606 12.9503 5.08268 13.2873 4.32813 13.3829C3.50895 13.4865 2.69988 13.2308 2.31754 12.7474C1.71328 11.9837 2.05434 10.7381 2.44758 9.82802C2.44758 9.82802 2.44758 9.82802 2.44758 9.82802Z" style="fill:#000000;mix-blend-mode:normal;" transform="translate(45.161 35.3)" />
        <path id="Shape" d="M0.768089 1.83062C3.38528 2.40451 5.87944 3.53344 7.98035 5.09497C8.16412 5.23119 8.38372 5.29785 8.60175 5.29785C8.89454 5.29785 9.18422 5.17829 9.38122 4.94932C9.72463 4.54934 9.65454 3.96531 9.2247 3.64576C6.89407 1.91323 4.12815 0.661839 1.22518 0.0249119C0.69022 -0.092474 0.15292 0.216208 0.0267715 0.714735C-0.0993767 1.21326 0.232346 1.71324 0.768089 1.83062C0.768089 1.83062 0.768089 1.83062 0.768089 1.83062Z" style="fill:#000000;fill-rule:evenodd;mix-blend-mode:normal;" transform="translate(36.226 15.048)" />
        <path id="Shape" d="M0.687859 1.80894C2.30132 2.2995 3.84468 3.09294 5.15055 4.10231C5.33666 4.24651 5.56248 4.3168 5.78675 4.3168C6.07253 4.3168 6.35675 4.20231 6.55376 3.9813C6.90573 3.58784 6.84811 3.00309 6.4245 2.67557C4.92707 1.51765 3.1571 0.608272 1.30692 0.0459785C0.783638 -0.11271 0.220646 0.152495 0.0493317 0.639429C-0.121201 1.12636 0.164577 1.65025 0.687859 1.80894C0.687859 1.80894 0.687859 1.80894 0.687859 1.80894Z" style="fill:#000000;fill-rule:evenodd;mix-blend-mode:normal;" transform="translate(40.848 11.178)" />
        <path id="Shape" d="M0.997837 19.5659C1.15358 19.5659 1.31165 19.5325 1.45882 19.4608C2.64555 18.884 3.76454 18.1956 4.80799 17.4196C4.93102 17.4486 5.04549 17.4594 5.13816 17.4594C5.21369 17.4594 5.2752 17.4536 5.31803 17.45C7.5521 17.258 9.7488 16.7834 11.8458 16.0399C12.3598 15.8581 12.6183 15.3218 12.4221 14.8436C12.2258 14.3646 11.6504 14.1241 11.1357 14.3067C9.86483 14.7574 8.5535 15.0994 7.21415 15.332C8.42347 14.1125 9.48015 12.7582 10.3531 11.309C10.3531 11.309 15.4122 8.74607 15.4122 8.74607C15.8958 8.50115 16.0741 7.93741 15.8109 7.48743C15.5485 7.03818 14.9427 6.87151 14.4591 7.11643C14.4591 7.11643 11.7734 8.47724 11.7734 8.47724C12.0833 7.71786 12.3481 6.94398 12.5599 6.15706C14.2785 4.65568 16.0064 3.12169 17.6985 1.59277C18.0933 1.23627 18.1026 0.648621 17.7187 0.281242C17.3356 -0.0861282 16.7041 -0.0948257 16.3093 0.262405C15.2549 1.21526 14.185 2.16811 13.1128 3.11662C13.1712 2.50867 13.2023 1.89856 13.1976 1.28699C13.1937 0.776871 12.7483 0.36602 12.2009 0.36602C12.1986 0.36602 12.1962 0.36602 12.1939 0.36602C11.6434 0.370369 11.2003 0.788467 11.2042 1.30076C11.2104 2.11666 11.152 2.93112 11.0352 3.73833C10.1148 2.8775 9.30339 1.92247 8.6158 0.881943C8.32769 0.445724 7.71329 0.309502 7.24452 0.577606C6.77575 0.845711 6.62935 1.41669 6.91747 1.85363C7.91653 3.36588 9.14765 4.71799 10.5797 5.88316C10.357 6.68022 10.0774 7.46352 9.74491 8.22797C9.46692 7.46207 9.16166 6.70558 8.82605 5.96503C8.6119 5.49259 8.0271 5.27159 7.52018 5.47013C7.01325 5.6694 6.77497 6.21358 6.98911 6.6853C7.57391 7.97581 8.06449 9.31488 8.45694 10.6684C7.66034 11.9445 6.708 13.135 5.6225 14.2067C5.52127 12.9966 5.49012 11.7793 5.53139 10.5699C5.5493 10.0583 5.11713 9.63009 4.56737 9.61342C4.02151 9.6011 3.55663 9.99891 3.53949 10.5112C3.47876 12.2734 3.56441 14.0509 3.78946 15.803C2.7826 16.5747 1.69477 17.2529 0.536072 17.8167C0.0478325 18.0536 -0.141392 18.6137 0.113243 19.0681C0.291561 19.3847 0.638859 19.5659 0.997837 19.5659C0.997837 19.5659 0.997837 19.5659 0.997837 19.5659Z" style="fill:#000000;fill-rule:evenodd;mix-blend-mode:normal;" transform="translate(59.614 67.177)" />
        <path id="Shape" d="M3.47098 6.04396C3.55741 6.13019 3.74819 6.32003 4.03008 6.44829C4.1352 7.8388 4.40152 9.22134 4.8189 10.564C3.78946 10.0162 2.78495 9.42423 1.81781 8.79456C1.36617 8.50109 0.74477 8.60398 0.429399 9.02353C0.114029 9.44308 0.223824 10.022 0.675467 10.3155C2.31695 11.3828 4.05733 12.3466 5.84911 13.1799C6.2517 14.0175 6.71502 14.8283 7.23596 15.6051C5.73698 15.4283 4.26525 15.0972 2.84024 14.6102C2.32318 14.4334 1.75084 14.6798 1.56084 15.1609C1.37084 15.6421 1.6356 16.1747 2.15265 16.3514C4.27615 17.0775 6.49621 17.4891 8.75442 17.5847C9.61643 18.5687 10.5836 19.4723 11.6473 20.2687C11.8318 20.4063 12.0522 20.4737 12.2718 20.4737C12.563 20.4737 12.8519 20.3549 13.0489 20.1274C13.3939 19.7281 13.3261 19.1441 12.8971 18.8231C12.0771 18.2093 11.3194 17.5253 10.6311 16.7855C10.6552 16.7391 10.6747 16.6964 10.691 16.6601C11.525 14.8196 12.6144 13.0864 13.9296 11.5082C14.2668 11.1031 14.1881 10.5206 13.7529 10.2068C13.3183 9.89305 12.6923 9.96696 12.3543 10.3713C11.1341 11.8357 10.0945 13.424 9.25434 15.103C8.58622 14.1762 8.01155 13.1893 7.5381 12.1611C8.35573 10.5242 9.31819 8.9431 10.4076 7.45259C10.7167 7.02942 10.5984 6.45264 10.1436 6.16424C9.68885 5.87585 9.06823 5.98599 8.75909 6.40988C7.98507 7.46925 7.27256 8.5721 6.62469 9.70683C6.2626 8.45037 6.04612 7.15985 5.98616 5.86426C7.58171 4.5136 9.09393 3.05714 10.4839 1.52605C10.839 1.13477 10.786 0.549286 10.3655 0.218864C9.94504 -0.111557 9.31586 -0.0622787 8.96077 0.329002C8.05359 1.32823 7.08957 2.29123 6.08583 3.21583C6.13801 2.80063 6.20575 2.38688 6.29219 1.97603C6.39809 1.47388 6.04612 0.986221 5.50571 0.887672C4.96607 0.789856 4.44201 1.11592 4.33611 1.6188C4.17881 2.36369 4.07758 3.11728 4.02307 3.87304C4.02307 3.87304 1.7267 1.5775 1.7267 1.5775C1.35137 1.20287 0.720631 1.18186 0.317268 1.53112C-0.0853176 1.88038 -0.107899 2.46658 0.267431 2.84193C0.267431 2.84193 3.47098 6.04396 3.47098 6.04396Z" style="fill:#000000;fill-rule:evenodd;mix-blend-mode:normal;" transform="translate(25.668 67)" />
      </g>
    </g>
  </g>
</svg>