<?xml version="1.0" encoding="utf-8"?>
<svg width="299.15" height="334.84" viewBox="0 0 299.15 334.84" fill="none" stroke="none" version="1.1" xmlns:xlink="http://www.w3.org/1999/xlink" xmlns="http://www.w3.org/2000/svg">
  <defs>
    <path id="path_1" d="M237 0L237 0L237 286L7.62939e-06 286L0 0L237 0Z" />
    <rect id="rect_2" x="0" y="0" width="299.15" height="334.84" />
    <clipPath id="clip_path_3">
      <use xlink:href="#rect_2" />
    </clipPath>
  </defs>
  <g id="Frame" opacity="1" clip-path="url(#clip_path_3)" transform="matrix(0.97 0.242 -0.242 0.97 69.19 0)">
    <g>
      <use xlink:href="#path_1" style="mix-blend-mode:normal;" />
      <g>
        <g id="Page-1" transform="translate(2.707 -0.001)">
          <g id="037---Happy-Chick">
            <path id="Shape" d="M0 0.702217C7.20294 -0.537117 18.7276 -1.06145 23.2353 7.32788C27.6035 15.4789 15.01 32.3052 5.43707 36.9289C5.43707 36.9289 0 0.702217 0 0.702217Z" style="fill:#F29C1F;fill-rule:evenodd;mix-blend-mode:normal;" transform="translate(209.989 95.347)" />
            <path id="Shape#1" d="M23.2353 42.9C22.8545 42.9015 22.475 42.8535 22.1061 42.757C22.1061 42.757 3.51782 37.9903 3.51782 37.9903C1.4502 37.459 5.34058e-05 35.553 0 33.3666C0 33.3666 0 4.76666 0 4.76666C0 2.13411 2.08056 0 4.64706 0C7.21355 0 9.29411 2.13411 9.29411 4.76666C9.29411 4.76666 9.29411 29.6439 9.29411 29.6439C9.29411 29.6439 24.3599 33.5096 24.3599 33.5096C26.635 34.0945 28.1285 36.3267 27.8426 38.7145C27.5566 41.1024 25.5807 42.8973 23.2353 42.9C23.2353 42.9 23.2353 42.9 23.2353 42.9Z" style="fill:#E57E25;fill-rule:evenodd;mix-blend-mode:normal;" transform="translate(80.941 243.101)" />
            <path id="Shape#2" d="M32.4803 33.3339C32.4803 33.3339 13.892 33.3339 13.892 33.3339C11.9893 33.3339 10.2789 32.144 9.57489 30.3309C9.57489 30.3309 0.317947 6.49756 0.317947 6.49756C-0.608292 4.05775 0.557404 1.30833 2.9288 0.339539C5.30022 -0.629257 7.98952 0.545288 8.95218 2.97021C8.95218 2.97021 17.0427 23.8005 17.0427 23.8005C17.0427 23.8005 32.4802 23.8005 32.4802 23.8005C35.0468 23.8005 37.1273 25.9347 37.1273 28.5672C37.1273 31.1998 35.0468 33.3339 32.4802 33.3339C32.4802 33.3339 32.4803 33.3339 32.4803 33.3339Z" style="fill:#E57E25;fill-rule:evenodd;mix-blend-mode:normal;" transform="translate(132.107 238.367)" />
            <path id="Shape#3" d="M113.47 0C66.9993 0 15.8817 33.3667 15.8817 90.5667C15.8817 147.767 11.2346 152.533 1.94047 171.6C-7.35364 190.667 15.8817 233.567 90.2346 233.567C164.588 233.567 215.705 200.2 215.705 119.167C215.705 38.1333 173.882 0 113.47 0C113.47 0 113.47 0 113.47 0Z" style="fill:#F0C419;fill-rule:evenodd;mix-blend-mode:normal;" transform="translate(0 23.834)" />
            <path id="Shape#4" d="M32.5294 4.76777C29.9629 4.76777 27.8823 6.90187 27.8823 9.53443C27.8794 10.6934 27.6585 11.8409 27.2318 12.914C24.9084 7.88586 21.1905 3.67261 16.5435 0.801899C14.4082 -0.659171 11.5225 -0.0680221 10.0981 2.12227C8.67365 4.31255 9.24996 7.27256 11.3853 8.73363C12.5256 9.5127 13.6125 10.3711 14.6382 11.3029C11.4078 10.2249 8.0429 9.62927 4.64706 9.53443C2.08056 9.53443 0 11.6685 0 14.3011C0 16.9337 2.08056 19.0678 4.64706 19.0678C4.75394 19.0678 15.8 19.2584 19.0762 25.9651C20.2276 28.3113 23.0123 29.2599 25.3032 28.0863C32.1826 24.4931 36.698 17.4378 37.1765 9.53443C37.1765 6.90188 35.0959 4.76777 32.5294 4.76777C32.5294 4.76777 32.5294 4.76777 32.5294 4.76777Z" style="fill:#F29C1F;fill-rule:evenodd;mix-blend-mode:normal;" transform="translate(90.235 0)" />
            <path id="Shape#5" d="M5.82903 34.6394C3.69925 34.6371 1.84356 33.1501 1.32603 31.031C0.75444 28.7001 -3.87403 8.06999 8.4035 1.77798C20.2117 -4.26615 31.9455 6.06798 37.8751 18.2087C38.6173 19.7328 38.5103 21.5473 37.5945 22.9686C36.6787 24.39 35.0933 25.2022 33.4354 25.0993C31.7775 24.9965 30.299 23.9942 29.5569 22.4701C26.2807 15.7538 19.0592 6.97841 12.558 10.3055C8.09679 12.5888 9.17025 23.9048 10.3413 28.7144C10.6406 29.9413 10.4523 31.24 9.81778 32.3244C9.18327 33.4089 8.1546 34.1902 6.95825 34.4964C6.58926 34.5929 6.20981 34.6409 5.82902 34.6394C5.82902 34.6394 5.82903 34.6394 5.82903 34.6394Z" style="fill:#F29C1F;fill-rule:evenodd;mix-blend-mode:normal;" transform="translate(33.288 119.163)" />
            <path id="Shape#6" d="M23.2353 19.0667C20.6688 19.0667 18.5882 16.9326 18.5882 14.3C18.5882 11.6674 16.5077 9.53333 13.9412 9.53333C11.3747 9.53333 9.29412 11.6674 9.29412 14.3C9.29412 16.9326 7.21355 19.0667 4.64706 19.0667C2.08056 19.0667 0 16.9326 0 14.3C0 6.40233 6.24168 0 13.9412 0C21.6407 0 27.8824 6.40233 27.8824 14.3C27.8824 16.9326 25.8018 19.0667 23.2353 19.0667C23.2353 19.0667 23.2353 19.0667 23.2353 19.0667Z" style="fill:#3F5C6C;fill-rule:evenodd;mix-blend-mode:normal;" transform="translate(90.235 81.034)" />
            <path id="Shape#7" d="M23.2353 19.0667C20.6688 19.0667 18.5882 16.9326 18.5882 14.3C18.5882 11.6674 16.5077 9.53334 13.9412 9.53334C11.3747 9.53334 9.29411 11.6674 9.29411 14.3C9.29411 16.9326 7.21355 19.0667 4.64706 19.0667C2.08057 19.0667 0 16.9326 0 14.3C0 6.40233 6.24168 0 13.9412 0C21.6407 0 27.8823 6.40233 27.8823 14.3C27.8823 16.9326 25.8018 19.0667 23.2353 19.0667C23.2353 19.0667 23.2353 19.0667 23.2353 19.0667Z" style="fill:#3F5C6C;fill-rule:evenodd;mix-blend-mode:normal;" transform="translate(164.588 76.268)" />
            <path id="Shape#8" d="M13.9412 23.8333C2.91371 23.8333 0 11.359 0 4.76667C0 2.13411 2.08057 0 4.64706 0C4.64706 0 18.5882 0 18.5882 0C21.1547 0 23.2353 2.13411 23.2353 4.76667C23.2353 7.39922 21.1547 9.53333 18.5882 9.53333C18.5882 9.53333 9.96794 9.53333 9.96794 9.53333C10.5721 11.9167 11.7338 14.3 13.9412 14.3C16.5077 14.3 18.5882 16.4341 18.5882 19.0667C18.5882 21.6992 16.5077 23.8333 13.9412 23.8333C13.9412 23.8333 13.9412 23.8333 13.9412 23.8333Z" style="fill:#E57E25;fill-rule:evenodd;mix-blend-mode:normal;" transform="translate(132.058 90.568)" />
            <path id="Shape" d="M106.882 9.53334L111.529 9.53334C114.096 9.53334 116.176 7.39923 116.176 4.76667C116.176 2.13411 114.096 0 111.529 0L106.882 0C104.316 0 102.235 2.13411 102.235 4.76667C102.235 7.39923 104.316 9.53334 106.882 9.53334ZM4.64706 19.0668L9.29411 19.0668C11.8606 19.0668 13.9412 16.9327 13.9412 14.3001C13.9412 11.6676 11.8606 9.53345 9.29411 9.53345L4.64706 9.53345C2.08056 9.53345 0 11.6676 0 14.3001C0 16.9327 2.08056 19.0668 4.64706 19.0668Z" style="fill:#FB7B76;fill-rule:evenodd;mix-blend-mode:normal;" transform="translate(85.588 104.868)" />
          </g>
        </g>
      </g>
    </g>
  </g>
</svg>