<?xml version="1.0" encoding="utf-8"?>
<svg width="190.809" height="187.766" viewBox="0 0 190.809 187.766" fill="none" stroke="none" version="1.1" xmlns:xlink="http://www.w3.org/1999/xlink" xmlns="http://www.w3.org/2000/svg">
  <defs>
    <path id="path_1" d="M155.254 0L155.254 0L155.254 150.815L0 150.815L5.72205e-06 0L155.254 0Z" />
    <rect id="rect_2" x="0" y="0" width="190.809" height="187.766" />
    <clipPath id="clip_path_3">
      <use xlink:href="#rect_2" />
    </clipPath>
  </defs>
  <g id="Girl" opacity="1" clip-path="url(#clip_path_3)" transform="matrix(0.961 -0.276 0.276 0.961 0 42.794)">
    <g>
      <use xlink:href="#path_1" style="mix-blend-mode:normal;" />
      <g>
        <g id="Group" transform="matrix(1 0 -0 1 20.027 1.474)">
          <path id="Shape" d="M43.236 7.76787C43.4373 6.64946 42.9766 5.38262 41.9946 4.37468C41.1584 3.52552 40.1113 2.9525 38.7953 2.35418C35.3212 0.769768 32.27 0 29.4687 0C28.7449 0 28.0271 0.0540795 27.3378 0.158786C26.5205 0.283054 25.6913 0.489015 24.8681 0.77322C24.065 1.05512 23.2667 1.41527 22.4967 1.84215C21.4319 2.43242 20.4168 3.15501 19.481 3.99037C17.4544 5.8003 15.7298 8.16368 14.3557 11.0149C14.2041 11.3291 14.0999 11.6328 14.0478 11.917C14.0478 11.917 13.9139 12.6247 13.9139 12.6247C13.9139 12.6247 14.415 13.1608 14.415 13.1608C12.8384 12.6546 11.2429 12.398 9.67227 12.398C7.52361 12.398 5.54196 12.8893 3.94289 13.8202C0.978113 15.5415 -1.07342 19.609 0.601446 22.9204C1.47086 24.6314 3.22391 26.0018 5.81202 26.9937C8.08032 27.8612 10.505 28.2996 13.0185 28.2996C17.5136 28.2996 21.8832 26.8774 25.3218 24.292C27.7808 27.4769 31.8554 29.4652 35.9632 29.4825C35.9632 29.4825 36.0082 29.4825 36.0082 29.4825C40.0852 29.4825 44.1563 27.5264 46.6343 24.376C48.1042 25.8051 50.2671 26.6255 52.5698 26.6255C54.2956 26.6255 55.9278 26.1733 57.2911 25.3172C60.4644 23.322 62.1689 19.2914 61.4357 15.515C60.7404 11.9446 57.9177 8.72749 54.2446 7.31682C52.8671 6.78754 51.4279 6.53095 49.8454 6.53095C47.878 6.53095 45.7163 6.93482 43.236 7.76787C43.236 7.76787 43.236 7.76787 43.236 7.76787Z" style="fill:#FFFFFF;fill-rule:evenodd;mix-blend-mode:normal;" transform="matrix(1 0 0 1 27.019 0)" />
          <path id="Shape" d="M15.1078 22.8687C16.4629 23.4693 18.0003 24.1493 19.5046 24.7638C19.6882 24.8385 20.4356 25.1366 20.4356 25.1366C22.9468 26.133 26.0643 27.3711 27.34 29.8288C27.34 29.8288 27.5248 30.3972 27.5248 30.3972L28.1254 30.6642L18.7323 49.3008C18.7323 49.3008 20.3622 49.8405 20.3622 49.8405C20.4487 49.8693 20.5363 49.9049 20.6228 49.9463C20.6228 49.9463 21.356 50.303 21.356 50.303L24.3634 48.5955L24.6797 48.4183L24.8751 48.126C24.8751 48.126 25.0812 47.9684 25.0812 47.9684C25.0812 47.9684 25.2506 47.7049 25.266 47.6819C25.3051 47.6324 25.3442 47.5818 25.3844 47.5323C25.3844 47.5323 27.9986 48.3366 27.9986 48.3366C31.4135 49.3871 34.5311 51.418 36.7769 54.0564C39.3117 57.0353 40.7449 60.6955 40.9214 64.6398C40.9214 64.6398 40.9996 66.3934 40.9996 66.3934C40.9996 66.3934 42.7633 66.0148 42.7633 66.0148C45.5149 65.4234 47.9502 63.2648 48.9688 60.516C50.0574 57.5807 49.7139 53.9275 48.0248 50.4917C46.4802 47.3494 44.065 44.6788 41.7292 42.2187C41.471 41.9426 41.2092 41.671 40.9522 41.4029C40.9522 41.4029 40.9297 41.3799 40.9297 41.3799C38.8118 39.1592 36.6229 36.8626 34.9658 34.2518C33.1168 31.3419 31.9347 28.0488 30.7916 24.865C30.7916 24.865 30.7348 24.7074 30.7348 24.7074C30.3735 23.7006 30.0004 22.6593 29.6083 21.6513C28.1739 17.9313 26.0087 13.2932 21.9696 10.4178C19.9974 9.00939 17.7776 8.14527 15.4229 7.22823C15.4229 7.22823 14.3912 6.82436 14.3912 6.82436C11.9736 5.86474 9.22562 4.66924 7.22501 2.62343C7.16579 2.56129 7.10894 2.49916 7.05327 2.43472C7.05327 2.43472 4.97803 0 4.97803 0C4.97803 0 4.39408 3.11014 4.39408 3.11014C4.04347 4.98681 3.14919 6.83472 2.27503 8.63889C2.27503 8.63889 1.94693 9.31776 1.94693 9.31776C0.816925 11.6708 -0.196999 14.2045 0.0327911 16.7888C0.0327911 16.7888 0.133476 17.9095 0.133476 17.9095C0.133476 17.9095 1.27177 18.1108 1.27177 18.1108C2.64577 18.3548 3.98425 18.6643 5.25166 19.0336C8.631 20.014 11.9026 21.4557 15.0663 22.8514C15.0663 22.8514 15.1078 22.8687 15.1078 22.8687ZM31.2986 44.7523C32.778 44.7523 34.229 45.1746 35.455 45.949C34.2314 45.1758 32.7769 44.7546 31.288 44.7523C31.288 44.7523 31.2986 44.7523 31.2986 44.7523ZM27.7357 45.636C27.7357 45.636 27.4183 45.8029 27.4183 45.8029C27.776 45.5946 28.1538 45.4174 28.5435 45.2678C28.2699 45.3748 28.001 45.4968 27.7357 45.636C27.7357 45.636 27.7357 45.636 27.7357 45.636ZM28.5613 45.2621C28.6892 45.2126 28.8183 45.1655 28.9486 45.124C28.8183 45.1666 28.6892 45.2126 28.5613 45.2621C28.5613 45.2621 28.5613 45.2621 28.5613 45.2621Z" style="fill:#FFFFFF;mix-blend-mode:normal;" transform="matrix(1 0 0 1 65.67 80.299)" />
          <path id="Shape" d="M6.83147 64.8216L8.59518 65.2002C8.59518 65.2002 8.67335 63.4466 8.67335 63.4466C8.84866 59.5023 10.2831 55.8421 12.8191 52.8632C15.0637 50.2248 18.1801 48.1928 21.5961 47.1434C21.5961 47.1434 24.2091 46.3403 24.2091 46.3403C24.2553 46.3967 24.3015 46.4553 24.3465 46.514C24.3465 46.514 24.51 47.11 24.51 47.11C24.51 47.11 25.062 47.415 25.062 47.415C25.2586 47.5231 25.4599 47.6359 25.666 47.7509C25.666 47.7509 25.7442 47.7947 25.7442 47.7947C26.6504 48.3032 27.3765 48.7094 27.7673 48.9131C27.7673 48.9131 28.4472 49.9935 28.4472 49.9935C28.4472 49.9935 29.6483 49.5033 29.6483 49.5033C29.8283 49.4309 30.0119 49.3687 30.1979 49.3204C30.1979 49.3204 32.0291 48.8429 32.0291 48.8429L22.3518 30.9564L22.9583 30.7551C22.9583 30.7551 23.2236 30.1775 23.2236 30.1775C30.179 23.6695 39.3907 19.0808 49.1616 17.2548C52.2365 16.6783 55.2688 16.3504 58.1732 16.2813C58.1732 16.2813 59.5164 16.2503 59.5164 16.2503C59.5164 16.2503 59.6443 14.9501 59.6443 14.9501C60.0222 11.1346 61.7077 7.49978 62.679 5.67258C62.679 5.67258 64.1584 2.89037 64.1584 2.89037C64.1584 2.89037 61.0077 3.55888 61.0077 3.55888C59.4655 3.88566 57.8984 4.05251 56.3491 4.05251C55.9203 4.05251 55.501 4.03985 55.103 4.01568C51.4939 3.80627 47.8089 2.63378 44.7257 0.714539C44.7257 0.714539 43.5779 0 43.5779 0C43.5779 0 42.7239 1.03326 42.7239 1.03326C42.6007 1.18285 42.4941 1.30251 42.3804 1.41757C40.3679 3.47604 37.6199 4.67154 35.2071 5.62886C35.2071 5.62886 34.166 6.03618 34.166 6.03618C31.8159 6.95208 29.5962 7.8162 27.6252 9.22341C23.5849 12.1 21.4196 16.7381 19.9864 20.4547C19.5932 21.4661 19.2201 22.5074 18.8588 23.5142C18.8588 23.5142 18.8031 23.6707 18.8031 23.6707C17.6589 26.8556 16.478 30.1487 14.629 33.0586C12.9719 35.6694 10.7817 37.966 8.66388 40.1867C8.66388 40.1867 8.64611 40.2063 8.64611 40.2063C8.38434 40.4778 8.12375 40.7494 7.86908 41.0198C5.52853 43.4856 3.11454 46.1562 1.56997 49.2985C-0.119116 52.7343 -0.463803 56.3875 0.625928 59.3216C1.6434 62.0716 4.0799 64.2302 6.83147 64.8216C6.83147 64.8216 6.83147 64.8216 6.83147 64.8216ZM21.8591 44.443C21.5926 44.3037 21.3225 44.1806 21.0477 44.0736C21.4386 44.2232 21.8176 44.4004 22.1777 44.611C22.1777 44.611 21.8591 44.443 21.8591 44.443ZM21.0323 44.0678C20.9032 44.0183 20.7729 43.9723 20.6414 43.9286C20.7741 43.9712 20.9032 44.0195 21.0323 44.0678C21.0323 44.0678 21.0323 44.0678 21.0323 44.0678ZM18.2949 43.5592C18.3163 43.5592 18.3388 43.5592 18.3601 43.5603C18.3471 43.5592 18.334 43.5592 18.321 43.5592C16.6189 43.5592 14.8895 44.1391 13.5747 45.1505C14.9061 44.1253 16.5822 43.5592 18.2949 43.5592C18.2949 43.5592 18.2949 43.5592 18.2949 43.5592Z" style="fill:#FFFFFF;mix-blend-mode:normal;" transform="matrix(1 0 0 1 0 81.492)" />
        </g>
        <path id="Shape" d="M58.2927 0.477509C57.8011 0.142685 57.165 0 56.1641 0C55.8242 0 55.4925 0.0161133 55.1869 0.0299225C55.1869 0.0299225 55.1135 0.033371 55.1135 0.033371C54.9038 0.0437164 54.7025 0.0529327 54.526 0.0586853C53.21 0.08284 51.8941 0.0966492 50.5781 0.110458C50.5781 0.110458 47.7211 0.143829 47.7211 0.143829C47.7211 0.143829 3.9305 0.682327 3.9305 0.682327C2.61335 0.697281 0.791603 0.865265 0.179222 2.14017C-0.376305 3.27812 0.437439 4.67268 1.55204 5.26526C2.59558 5.81296 3.84285 5.85898 4.93021 5.85898C4.93021 5.85898 53.3522 5.57477 53.3522 5.57477C54.9844 5.56442 57.2195 5.54831 58.4798 4.02719C58.9655 3.43692 59.2118 2.57394 59.1064 1.82144C59.0211 1.24152 58.7368 0.774368 58.2927 0.477509C58.2927 0.477509 58.2927 0.477509 58.2927 0.477509Z" style="fill:#BFC7D8;fill-rule:evenodd;mix-blend-mode:normal;" transform="matrix(1 0 -0 1 48.288 131.392)" />
        <path id="Shape" d="M63.8642 7.67236C63.5491 7.54925 63.2435 7.42613 62.9391 7.30071C61.5236 6.7231 60.0987 6.09486 58.7211 5.48733C58.7211 5.48733 58.5174 5.39758 58.5174 5.39758C55.35 4.00072 52.0761 2.55669 48.6932 1.57405C45.0971 0.529289 41.1966 0 37.0982 0C33.8551 0 30.4343 0.332527 26.9306 0.988388C17.4333 2.76265 8.4087 7.18335 1.5197 13.4347C1.5197 13.4347 0 14.8143 0 14.8143C0 14.8143 1.81701 15.7981 1.81701 15.7981C3.70745 16.821 5.87033 17.3618 8.0723 17.3618C9.89405 17.3618 11.6992 16.9809 13.2995 16.2572C13.9047 15.981 14.4899 15.6623 15.0549 15.3539C16.4905 14.5738 17.9746 13.7672 19.6152 13.7339C19.6152 13.7339 19.7028 13.7327 19.7028 13.7327C21.4855 13.7327 23.1331 14.6348 24.5865 15.4322C25.8586 16.1283 27.1734 16.8486 28.6019 17.0937C28.9762 17.157 29.3671 17.1892 29.7627 17.1892C31.7337 17.1892 33.6751 16.3918 35.5631 15.6174C37.546 14.8016 39.4198 14.0307 41.4157 14.0307C41.6396 14.0307 41.8634 14.0411 42.0826 14.0606C43.6189 14.1964 44.9834 14.8074 46.4344 15.4563C46.4344 15.4563 46.5599 15.5116 46.5599 15.5116C47.1273 15.7636 47.6627 16.0017 48.223 16.2134C50.2567 16.9844 52.557 17.3756 55.0587 17.3756C56.6826 17.3756 58.3859 17.2087 60.1188 16.8785C63.433 16.2468 66.6773 15.0881 69.6883 13.9306C69.6883 13.9306 71.4532 13.2517 71.4532 13.2517C71.4532 13.2517 70.3812 11.7295 70.3812 11.7295C68.9433 9.68941 66.2497 8.61933 63.8642 7.67236C63.8642 7.67236 63.8642 7.67236 63.8642 7.67236Z" style="fill:#F9D889;fill-rule:evenodd;mix-blend-mode:normal;" transform="matrix(1 0 -0 1 42.258 99.232)" />
        <path id="Shape" d="M46.2259 5.94528C44.949 4.6163 43.8818 3.15387 43.0562 1.59706C43.0562 1.59706 43.1841 0 43.1841 0L7.2396 0.210571L5.77439 0.230118C5.77439 0.230118 5.73056 1.65115 5.73056 1.65115C5.32784 3.37248 4.27601 5.09612 2.77052 6.50449C2.77052 6.50449 0 9.09569 0 9.09569L48.5558 8.37195C48.5558 8.37195 46.2259 5.94528 46.2259 5.94528Z" style="fill:#D8DEEC;fill-rule:evenodd;mix-blend-mode:normal;" transform="matrix(1 0 -0 1 52.616 137.002)" />
        <path id="Shape" d="M2.7267 14.3471C8.3317 15.6554 14.1274 16.3193 19.9504 16.3193C24.9335 16.3193 29.9084 15.8303 34.7387 14.8672C36.615 14.4921 38.6582 13.8949 39.5928 12.3048C40.1412 11.367 40.2028 10.2394 40.2584 9.24642C40.2584 9.24642 40.6043 3.18263 40.6043 3.18263L40.8377 1.99633C40.8377 1.99633 39.7432 1.51998 39.7432 1.51998C39.2694 1.31401 38.8584 1.09424 38.4865 0.848011C38.4865 0.848011 37.4251 0.142677 37.4251 0.142677C37.4251 0.142677 36.5356 1.04592 36.5356 1.04592C34.0257 3.5957 30.394 5.11798 26.8216 5.11798C26.8216 5.11798 26.7707 5.11798 26.7707 5.11798C23.1485 5.10187 19.4908 3.53127 16.988 0.915897C16.988 0.915897 16.1114 0 16.1114 0C16.1114 0 15.0395 0.691525 15.0395 0.691525C11.8011 2.77876 7.8129 3.92823 3.8105 3.92823C3.18983 3.92823 2.56324 3.90062 1.94849 3.84539C1.94849 3.84539 0 3.67279 0 3.67279L1.74594 14.1182C1.74594 14.1182 2.7267 14.3471 2.7267 14.3471Z" style="fill:#D8DEEC;fill-rule:evenodd;mix-blend-mode:normal;" transform="matrix(1 0 -0 1 56.232 25.838)" />
        <path id="Shape" d="M16.3163 21.7836C19.5701 18.1649 20.3472 12.6085 18.2056 8.27069C17.2888 6.42049 13.8218 0.38546 7.64588 0.38546C7.51678 0.38546 7.38648 0.388912 7.26448 0.39006C7.26448 0.39006 6.48271 0 6.48271 0C6.48271 0 5.74596 0.464851 5.74596 0.464851C5.04593 0.906693 4.1623 1.24382 2.96478 1.52343C2.96478 1.52343 1.72935 1.81339 1.72935 1.81339C1.72935 1.81339 1.80753 3.0457 1.80753 3.0457C2.06219 7.05333 4.0853 10.9988 7.23013 13.6107C7.23013 13.6107 7.31541 13.6809 7.31541 13.6809C7.43978 13.781 7.56652 13.8846 7.69919 13.9904C8.52715 14.6532 9.38353 15.339 9.77915 16.3044C10.157 17.2225 10.0729 18.2236 9.8289 19.4444C8.74153 24.8823 6.12144 29.8737 2.45426 33.497C2.01245 33.9319 1.54813 34.3531 1.03406 34.7857C1.03406 34.7857 0 35.6533 0 35.6533C0 35.6533 0.790054 36.7429 0.790054 36.7429C1.00563 37.4678 1.20107 38.2168 1.37283 38.8796C2.00771 41.3074 2.66392 43.8181 4.16822 45.3588C6.17712 47.4149 8.9275 48.6127 11.345 49.5724C11.6885 49.7093 12.0332 49.8439 12.3732 49.9751C12.3732 49.9751 12.738 50.1178 12.738 50.1178C12.9382 50.196 13.1395 50.2754 13.3397 50.3548C13.3397 50.3548 14.2245 50.6873 14.2245 50.6873C14.2245 50.6873 14.9234 50.0936 14.9234 50.0936C19.1864 48.3861 21.5992 46.4162 23.8236 42.8274C26.2151 38.9705 26.8761 34.2955 25.5945 30.3213C24.2323 26.1008 20.5047 22.6685 16.3163 21.7836C16.3163 21.7836 16.3163 21.7836 16.3163 21.7836Z" style="fill:#935252;fill-rule:evenodd;mix-blend-mode:normal;" transform="matrix(1 0 -0 1 88.742 39.023)" />
        <path id="Shape" d="M24.2392 34.9974C20.4014 31.992 17.7517 27.5575 16.9699 22.8307C16.7792 21.6789 16.6051 19.976 17.2862 18.4882C17.7505 17.4757 18.569 16.6553 19.3768 15.8452C19.5403 15.6796 19.7049 15.5139 19.8684 15.3459C23.1707 11.9366 25.323 7.49747 25.927 2.84779C25.927 2.84779 26.1071 1.45669 26.1071 1.45669C26.1071 1.45669 24.6857 1.21276 24.6857 1.21276C22.9255 0.911293 21.1737 0.546547 19.4787 0.128868C19.4787 0.128868 18.9599 0 18.9599 0C18.9599 0 18.4719 0.217468 18.4719 0.217468C14.9066 1.81223 11.1257 5.56097 9.06346 9.54903C7.14577 13.2563 6.60564 17.7024 7.58403 21.7445C7.58403 21.7445 7.62786 21.9297 7.62786 21.9297C7.84343 22.8019 8.08744 23.7903 7.66221 24.6061C7.36253 25.1791 6.79279 25.5542 6.22187 25.9305C6.22187 25.9305 6.02761 26.0605 6.02761 26.0605C1.47443 29.0981 -0.921795 35.0952 0.330212 40.3213C1.55261 45.4243 6.13185 49.6529 11.4644 50.6033C11.4644 50.6033 11.9406 50.6885 11.9406 50.6885C11.9406 50.6885 12.3788 50.4894 12.3788 50.4894C13.4236 50.0153 14.505 49.5885 15.6101 49.1593C15.9572 49.0247 16.3019 48.89 16.6442 48.7531C19.0641 47.7935 21.8133 46.5968 23.8234 44.5395C25.2519 43.0782 25.6617 41.335 26.1355 39.3237C26.1355 39.3237 26.1485 39.2697 26.1485 39.2697C26.2658 38.7783 26.3878 38.2698 26.5264 37.7508C26.5264 37.7508 26.8 36.7233 26.8 36.7233C26.8 36.7233 25.8832 36.1457 25.8832 36.1457C25.2839 35.7672 24.7449 35.3909 24.2392 34.9974C24.2392 34.9974 24.2392 34.9974 24.2392 34.9974Z" style="fill:#935252;fill-rule:evenodd;mix-blend-mode:normal;" transform="matrix(1 0 -0 1 38.585 39.843)" />
        <path id="Shape" d="M27.7348 6.28471C25.0934 3.17918 21.386 0.995285 17.2947 0.136917C17.2947 0.136917 16.5746 0 16.5746 0L16.0404 0.415375L13.3433 1.94801L12.3921 2.51067C12.3921 2.51067 12.6338 3.55888 12.6338 3.55888C12.6409 3.59456 12.6504 3.62791 12.6563 3.66473C12.7653 4.4115 12.5177 5.27907 12.0285 5.87509C10.7718 7.39851 8.53425 7.41232 6.90202 7.42268C6.90202 7.42268 0 7.46065 0 7.46065C0 7.46065 1.26504 9.64224 1.26504 9.64224C3.95856 14.2839 8.71785 17.8508 13.9983 19.1821C15.6305 19.5928 17.3326 19.8011 19.0573 19.8011C23.1201 19.8011 27.1793 18.6275 30.4686 16.5057C30.4686 16.5057 31.8948 16.2284 31.8948 16.2284C31.8948 16.2284 31.6697 14.8327 31.6697 14.8327C31.1568 11.6639 29.7959 8.70793 27.7348 6.28471C27.7348 6.28471 27.7348 6.28471 27.7348 6.28471Z" style="fill:#FFD2BB;fill-rule:evenodd;mix-blend-mode:normal;" transform="matrix(1 0 -0 1 94.738 129.544)" />
        <path id="Shape" d="M43.134 14.5002C42.7384 13.5382 41.882 12.8513 41.0422 12.1782C40.8847 12.0528 40.726 11.9274 40.572 11.7997C37.5504 9.29245 35.5379 5.47927 35.1885 1.59822C35.1885 1.59822 35.044 0 35.044 0C35.044 0 33.4177 0.27615 33.4177 0.27615C29.266 0.978031 25.0208 1.33472 20.7993 1.33472C17.4969 1.33472 14.1389 1.11496 10.82 0.678867C10.82 0.678867 9.30973 0.480961 9.30973 0.480961C9.30973 0.480961 9.11311 1.94916 9.11311 1.94916C8.49599 6.57122 6.34851 10.9804 3.06036 14.3702C2.90282 14.5347 2.73936 14.6981 2.56406 14.8753C1.77164 15.6704 0.951969 16.4919 0.487648 17.5068C-0.0311584 18.6344 -0.133022 20.0128 0.167835 21.8492C0.951969 26.5794 3.60286 31.0139 7.43942 34.0148C11.0142 36.8142 15.5307 38.3549 20.1561 38.3549C20.5115 38.3549 20.8692 38.3457 21.2233 38.3273C26.5145 38.042 31.8304 35.6268 35.808 31.6997C39.4775 28.0741 42.0964 23.0815 43.1838 17.6437C43.3946 16.5886 43.5344 15.4782 43.134 14.5002C43.134 14.5002 43.134 14.5002 43.134 14.5002Z" style="fill:#FFD2BB;fill-rule:evenodd;mix-blend-mode:normal;" transform="matrix(1 0 -0 1 55.386 40.824)" />
        <path id="Shape" d="M24.5189 7.65282C23.4422 7.65282 22.2068 7.60678 21.1692 7.05679C20.1328 6.51024 19.293 5.21233 19.7454 4.06862C19.7454 4.06862 20.2192 2.86966 20.2192 2.86966C20.2192 2.86966 19.0596 2.24947 19.0596 2.24947C18.6368 2.02396 17.9427 1.63504 17.2083 1.22311C17.2083 1.22311 16.9737 1.09195 16.9737 1.09195C16.4431 0.79393 15.9136 0.49707 15.5073 0.276154C15.5073 0.276154 14.9992 0 14.9992 0C14.9992 0 14.4318 0.125412 14.4318 0.125412C10.414 1.01025 6.77173 3.17918 4.17651 6.23178C1.90821 8.89664 0.505777 12.1587 0.123186 15.6635C0.123186 15.6635 0 16.7853 0 16.7853C0 16.7853 1.08381 17.1915 1.08381 17.1915C4.26417 18.3881 7.64115 18.9945 11.1212 18.9945C14.4413 18.9934 17.6679 18.4399 20.7155 17.3468C23.0217 16.5172 24.8494 15.5139 26.3063 14.2781C27.8995 12.9227 29.02 11.2773 29.5471 9.52028C29.5471 9.52028 30.1145 7.62404 30.1145 7.62404L24.9347 7.65396L24.5189 7.65396C24.5189 7.65396 24.5189 7.65282 24.5189 7.65282Z" style="fill:#FFD2BB;fill-rule:evenodd;mix-blend-mode:normal;" transform="matrix(1 0 -0 1 28.669 129.597)" />
        <path id="Shape" d="M27.9694 6.79789C27.5785 5.72781 27.2658 4.52656 26.9898 3.46453C26.9898 3.46453 26.9531 3.32416 26.9531 3.32416C26.8346 2.87426 26.715 2.41516 26.5894 1.96757C26.5894 1.96757 26.0363 0 26.0363 0C26.0363 0 24.288 1.12876 24.288 1.12876C20.9453 3.28503 17.2094 4.53001 13.4866 4.72906C13.1076 4.74863 12.757 4.75899 12.4182 4.75899C9.52922 4.75899 6.58458 4.12729 3.90171 2.93179C3.90171 2.93179 2.22329 2.18388 2.22329 2.18388C2.22329 2.18388 1.7945 3.92823 1.7945 3.92823C1.7258 4.20669 1.66065 4.47939 1.60024 4.74058C1.31242 5.95679 1.03999 7.10511 0.553158 8.12917C0.553158 8.12917 0 9.29245 0 9.29245C0 9.29245 1.10868 9.98512 1.10868 9.98512C4.32102 11.9953 8.17298 13.2241 11.9551 13.4462C12.3815 13.4704 12.8174 13.483 13.2497 13.483C15.3463 13.483 17.4274 13.1988 19.428 12.65C17.4629 15.9787 16.0404 19.9484 15.6684 23.1885C15.6684 23.1885 15.4848 24.7948 15.4848 24.7948C15.4848 24.7948 17.1479 24.8247 17.1479 24.8247C18.7031 24.8523 20.2619 24.9628 21.7804 25.1515C21.7804 25.1515 23.5441 25.3713 23.5441 25.3713C23.5441 25.3713 23.4884 23.6442 23.4884 23.6442C23.415 21.3993 24.3377 19.1464 25.341 17.0557C25.341 17.0557 25.6833 16.3469 25.6833 16.3469C26.6167 14.4196 27.5808 12.4279 27.9172 10.3015C27.9172 10.3015 28.4668 6.81516 28.4668 6.81516L28.076 7.0913C28.076 7.0913 27.9694 6.79789 27.9694 6.79789Z" style="fill:#ED6D66;fill-rule:evenodd;mix-blend-mode:normal;" transform="matrix(1 0 -0 1 63.121 74.42)" />
        <path id="Shape" d="M59.4472 3.61296C57.6894 3.9455 55.9873 4.11463 54.3894 4.11463C54.3894 4.11463 54.1892 4.11463 54.0909 4.11349C54.0909 4.11349 53.0355 4.09968 53.0355 4.09968C53.0355 4.09968 52.095 4.00072 52.095 4.00072C50.4806 3.83158 48.9526 3.47719 47.5525 2.94675C46.9698 2.72583 46.3965 2.47269 45.745 2.17928C44.3698 1.56715 42.9472 0.933159 41.4287 0.795082C41.2925 0.780121 41.1515 0.774368 41.007 0.769768C41.007 0.769768 40.4053 0.75251 40.4053 0.75251L40.4101 0.581062L39.8 0.735252L39.3345 0.721443L39.344 0.850311C39.344 0.850311 38.4627 1.07353 38.4627 1.07353C37.2629 1.3773 36.057 1.87206 34.8868 2.35303C32.9193 3.15846 31.0609 3.92018 29.11 3.92018C29.11 3.92018 28.9714 3.91903 28.9714 3.91903L28.0724 3.90177C28.0724 3.90177 27.1769 3.64863 27.1769 3.64863C26.0327 3.32416 24.956 2.73389 23.9137 2.16318C22.3821 1.32782 20.7973 0.463699 19.0466 0.463699C19.0466 0.463699 18.9506 0.463699 18.9506 0.463699C17.3113 0.498222 15.8319 1.30135 14.388 2.08608C14.388 2.08608 13.1751 2.73618 13.1751 2.73618L13.1774 2.74424C13.1774 2.74424 12.5141 3.0365 12.5141 3.0365C10.953 3.72457 9.18572 4.08702 7.40069 4.08702C6.07288 4.08702 4.76165 3.89371 3.50017 3.5117C3.50017 3.5117 0 2.45083 0 2.45083L8.55676 18.2512L8.7214 19.5825L20.3638 19.4398L20.3638 19.4375L30.3146 19.319L30.3146 19.3178L39.9398 19.2005L39.9398 19.1993L49.9144 19.0751L49.9144 19.0762C49.9144 19.0762 55.1285 19.0118 55.1285 19.0118C56.5381 18.998 58.2058 18.9807 59.8819 18.9496C60.0773 18.9462 60.2858 18.937 60.5014 18.9232C60.5014 18.9232 61.5579 18.8576 61.5579 18.8576L61.8683 17.8404L70.8609 0C70.8609 0 67.2743 1.32207 67.2743 1.32207C64.178 2.46349 61.7629 3.16997 59.4472 3.61296C59.4472 3.61296 59.4472 3.61296 59.4472 3.61296Z" style="fill:#F7B36F;fill-rule:evenodd;mix-blend-mode:normal;" transform="matrix(1 0 -0 1 42.929 112.5)" />
        <path id="Shape" d="M116.592 131.63C114.951 128.294 112.456 125.531 110.039 122.987C109.781 122.715 109.523 122.445 109.263 122.173C107.187 119.998 105.039 117.75 103.455 115.253C101.694 112.48 100.592 109.406 99.4238 106.152C99.0424 105.086 98.6467 103.985 98.2298 102.906C96.7184 98.9938 94.4252 94.106 90.0663 91.0016C89.3177 90.4688 88.5347 90.0098 87.7317 89.5955C91.1134 87.9329 93.3556 85.856 95.3669 82.6101C97.9787 78.3988 98.6953 73.2762 97.2869 68.9061C95.9804 64.8571 92.8546 61.5525 89.0299 60.021C91.5208 56.0663 91.8892 50.8505 89.8175 46.6588C87.3254 41.6179 83.381 38.4871 79.0458 38.005C79.4 37.0223 79.4604 36.0144 79.5089 35.1664C79.5089 35.1664 79.8323 29.4892 79.8323 29.4892C82.1776 29.763 84.6425 29.2959 86.6632 28.0268C90.3411 25.714 92.3204 21.062 91.4735 16.715C90.6834 12.6602 87.4948 9.01152 83.349 7.42136C80.3665 6.27649 77.0831 6.22931 73.1304 7.29134C72.8639 6.41341 72.357 5.56425 71.6427 4.83591C70.5885 3.76122 69.2631 3.07545 67.9874 2.49439C63.3442 0.378387 59.3086 -0.379875 55.6521 0.175877C53.8162 0.455479 52.0134 1.08257 50.2911 2.03874C49.1291 2.68424 48.0228 3.47242 47.0042 4.38026C44.8342 6.31561 42.9923 8.83433 41.5306 11.8651C41.3991 12.1412 41.2937 12.4105 41.2155 12.6728C37.7343 12.025 34.3609 12.491 31.7112 14.0317C29.8895 15.0903 28.4017 16.8323 27.6271 18.8114C26.7861 20.9631 26.843 23.1757 27.7894 25.042C28.8293 27.0959 30.8536 28.7091 33.8054 29.8378C34.6476 30.16 35.5111 30.4247 36.3864 30.6352C36.3864 30.6352 37.7521 38.8035 37.7521 38.8035C33.3849 40.8228 29.6277 45.1906 27.7965 48.7322C25.7212 52.7445 25.1373 57.5541 26.1962 61.9265C26.1962 61.9265 26.2424 62.1117 26.2424 62.1117C26.3964 62.7399 26.5705 63.451 26.3964 63.7847C26.2744 64.0206 25.8657 64.2887 25.4701 64.5476C25.4701 64.5476 25.2581 64.688 25.2581 64.688C20.1293 68.1099 17.5317 74.6121 18.9412 80.4987C20.07 85.2116 23.6827 89.1755 28.2383 91.0177C23.8936 94.1232 21.604 99.0007 20.0949 102.906C19.678 103.985 19.2824 105.086 18.9009 106.152C17.733 109.406 16.6303 112.48 14.8701 115.253C13.2853 117.75 11.1378 119.998 9.06139 122.173C8.80198 122.445 8.54377 122.715 8.28555 122.987C5.86919 125.531 3.37347 128.294 1.73295 131.63C-0.157497 135.473 -0.515213 139.436 0.7285 142.788C2.17595 146.694 5.94855 149.417 9.82183 149.417C9.977 149.417 10.1322 149.412 10.2873 149.404C10.8879 149.369 11.3854 148.997 11.5998 148.488C14.7019 149.537 17.9924 150.063 21.2818 150.063C24.731 150.063 28.1802 149.486 31.4127 148.325C32.0784 148.086 32.705 147.831 33.3008 147.562C33.36 147.569 33.4169 147.579 33.4785 147.579C33.4785 147.579 33.5022 147.579 33.5022 147.579C33.5022 147.579 81.4219 146.863 81.4219 146.863C81.7417 146.859 82.0354 146.757 82.2783 146.588C84.5477 148.229 87.1276 149.463 89.8602 150.151C91.6298 150.596 93.4575 150.814 95.2875 150.814C99.2437 150.814 103.207 149.792 106.611 147.845C106.611 147.845 106.611 147.877 106.611 147.877C106.579 148.678 107.213 149.357 108.037 149.404C108.193 149.412 108.348 149.417 108.503 149.417C112.375 149.417 116.149 146.694 117.596 142.788C118.839 139.436 118.482 135.473 116.592 131.63C116.592 131.63 116.592 131.63 116.592 131.63ZM87.0837 47.9337C88.9706 51.7515 88.2872 56.6474 85.4207 59.8393C85.0677 60.2316 84.9552 60.7759 85.1234 61.2695C85.2916 61.7643 85.7168 62.1359 86.2404 62.2464C89.9135 63.023 93.1898 66.0538 94.3932 69.7853C95.5469 73.3637 94.9404 77.5899 92.7704 81.0901C90.7035 84.4235 88.5584 86.169 84.5726 87.7626C84.4174 87.8247 84.2824 87.9133 84.1628 88.0158C83.8358 87.8857 83.5101 87.7592 83.1867 87.6326C82.8456 87.5003 82.5057 87.3668 82.1657 87.2322C79.8939 86.3324 77.3188 85.2174 75.5136 83.3684C74.2794 82.1061 73.6717 79.7773 73.0854 77.5255C72.8995 76.8121 72.7064 76.0746 72.4932 75.3589C72.4446 75.1966 72.3641 75.0528 72.2705 74.9228C72.7893 74.4879 73.2939 74.0334 73.7783 73.5547C77.654 69.7254 80.4174 64.4659 81.5616 58.7473C81.8163 57.4713 81.9774 56.1066 81.4325 54.78C80.8924 53.4636 79.8346 52.6179 78.9024 51.8712C78.7496 51.7492 78.5968 51.6261 78.4476 51.503C75.606 49.1465 73.7961 45.6003 73.5651 41.977C74.6963 41.7112 75.8417 41.3395 76.8166 40.7228C77.0416 40.8344 77.2951 40.8988 77.5652 40.8885C83.0529 40.6641 86.238 46.2239 87.0837 47.9337C87.0837 47.9337 87.0837 47.9337 87.0837 47.9337ZM84.9291 129.716C84.8889 129.794 84.8616 129.874 84.8379 129.955C84.6461 129.964 84.4601 129.973 84.2872 129.977C82.707 130.006 81.1269 130.023 79.5456 130.04C71.8524 130.123 64.0051 130.19 56.2527 130.304C49.276 130.406 42.1584 131 35.1889 130.645C35.1391 130.643 34.5054 130.659 34.4971 130.591C34.4758 130.419 34.4261 130.247 34.3384 130.084C34.3384 130.084 27.4814 117.417 27.4814 117.415C27.7135 117.845 29.9996 117.955 30.4734 117.998C31.6141 118.101 32.7678 118.075 33.9025 117.915C35.1746 117.735 36.3805 117.326 37.5318 116.793C37.9179 116.615 38.2993 116.422 38.6748 116.219C40.0547 115.474 41.7995 114.47 43.4151 114.436C44.788 114.412 46.1572 115.156 47.6035 115.948C49.4181 116.941 51.2197 118.048 53.3803 117.949C55.69 117.843 57.7996 117.074 59.9068 116.208C61.4538 115.572 63.041 114.774 64.7525 114.698C66.4476 114.622 68.0537 115.352 69.5568 116.024C70.1609 116.295 70.7863 116.574 71.4331 116.818C75.4426 118.337 79.9875 118.353 84.1711 117.557C86.9582 117.025 89.6399 116.158 92.2458 115.197C92.2458 115.197 84.9291 129.716 84.9291 129.716ZM87.0861 134.498C86.3411 135.401 84.8557 135.484 83.1335 135.494C83.1335 135.494 35.0882 135.777 35.0882 135.777C34.0529 135.783 32.8779 135.79 32.0653 135.36C31.5146 135.071 31.2007 134.449 31.3393 134.163C31.4459 133.942 31.8995 133.569 33.739 133.546C33.739 133.546 77.532 133.009 77.532 133.009C77.532 133.009 79.58 132.986 79.58 132.986C81.1684 132.968 82.7568 132.951 84.3452 132.921C84.5655 132.917 84.8036 132.906 85.0511 132.894C85.7974 132.857 86.8184 132.806 87.2128 133.074C87.2531 133.102 87.3585 133.173 87.3952 133.419C87.4462 133.766 87.3159 134.219 87.0861 134.498C87.0861 134.498 87.0861 134.498 87.0861 134.498ZM83.5871 114.666C79.4556 115.454 75.6345 115.249 72.5346 114.074C71.972 113.861 71.4141 113.613 70.8242 113.348C69.3235 112.677 67.773 111.984 65.9832 111.826C63.3572 111.591 61.0036 112.56 58.7259 113.495C56.5867 114.374 54.5659 115.204 52.6246 114.874C51.4531 114.675 50.3065 114.046 49.0924 113.382C47.4353 112.475 45.5603 111.456 43.3512 111.492C41.3269 111.533 39.5987 112.473 38.0755 113.303C37.501 113.615 36.9597 113.909 36.416 114.154C33.2297 115.596 29.3695 115.397 26.3158 113.744C32.9987 107.679 41.7249 103.395 50.9781 101.664C58.7045 100.22 65.7831 100.406 72.0182 102.217C75.3146 103.174 78.5519 104.603 81.6825 105.984C83.1264 106.621 84.6188 107.279 86.1125 107.89C86.4181 108.016 86.7355 108.142 87.06 108.271C89.2561 109.143 91.7151 110.124 92.8913 111.793C89.8637 112.958 86.7556 114.062 83.5871 114.666C83.5871 114.666 83.5871 114.666 83.5871 114.666ZM66.8254 97.9572C66.5246 97.9077 66.2249 97.8617 65.9264 97.8214C64.37 97.612 62.7994 97.6166 61.2299 97.6684C61.4775 94.6929 62.5352 91.7369 64.2515 89.2711C64.3048 89.1952 64.3463 89.1158 64.383 89.0353C65.9169 88.6061 67.3916 88.0296 68.7728 87.3162C67.6961 90.714 67.1832 94.4444 66.8254 97.9572C66.8254 97.9572 66.8254 97.9572 66.8254 97.9572ZM60.8366 86.7742C57.0794 87.3047 53.0391 86.8605 49.1528 85.4902C48.1235 85.1266 46.8893 84.6134 46.1122 83.7872C46.8703 82.4548 47.356 80.9555 47.7018 79.4908C47.7646 79.2273 47.8286 78.9604 47.8949 78.69C50.7554 79.9649 53.9003 80.6506 57.0427 80.6506C57.4265 80.6506 57.8114 80.6403 58.194 80.6207C62.2142 80.4044 66.2379 79.0421 69.7511 76.7753C69.8873 77.262 70.0176 77.7614 70.1455 78.2493C70.4748 79.5173 70.7378 80.814 71.2187 82.0383C68.492 84.5328 64.807 86.2139 60.8366 86.7742C60.8366 86.7742 60.8366 86.7742 60.8366 86.7742ZM57.6871 43.6303C62.0045 43.6303 66.3208 43.2691 70.5672 42.5511C70.951 46.8199 73.1257 50.9621 76.4778 53.7432C76.6401 53.8778 76.8071 54.0113 76.9741 54.1448C77.6884 54.7166 78.3635 55.2574 78.6158 55.8718C78.8705 56.4932 78.7509 57.3515 78.5838 58.1857C77.5533 63.3428 75.0778 68.0673 71.6155 71.4904C67.9021 75.1598 62.9498 77.415 58.027 77.6796C53.4774 77.9213 48.8283 76.4692 45.2783 73.6916C41.7284 70.9128 39.2789 66.812 38.5552 62.4385C38.3017 60.9035 38.3668 59.7886 38.7601 58.9314C39.1178 58.1501 39.8131 57.454 40.5487 56.7164C40.7204 56.5438 40.8922 56.3724 41.0604 56.1986C44.5665 52.5799 46.8466 47.8877 47.5076 42.9618C50.8786 43.406 54.2828 43.6303 57.6871 43.6303C57.6871 43.6303 57.6871 43.6303 57.6871 43.6303ZM40.8152 38.7529C40.8152 38.7529 39.5442 31.1496 39.5442 31.1496C44.4456 31.588 49.5034 30.4063 53.6112 27.7576C56.3829 30.6514 60.4303 32.413 64.4979 32.4291C64.4979 32.4291 64.5547 32.4291 64.5547 32.4291C68.5772 32.4291 72.5868 30.7262 75.3668 27.9026C75.8358 28.2132 76.338 28.4767 76.8592 28.7011C76.8474 28.7644 76.832 28.8265 76.8284 28.8932C76.8284 28.8932 76.4802 35.0042 76.4802 35.0042C76.4316 35.8787 76.3795 36.7842 76.0087 37.4159C75.3774 38.4929 73.7132 38.9532 72.1686 39.2615C61.8647 41.32 51.0468 41.1428 40.8152 38.7529C40.8152 38.7529 40.8152 38.7529 40.8152 38.7529ZM34.9164 27.0971C32.6884 26.2445 31.2054 25.1157 30.5101 23.7407C29.2226 21.2013 30.9306 17.9174 33.2676 16.5585C35.6863 15.1524 39.132 14.9568 42.4865 16.0327C43.1936 16.2594 43.9659 15.9533 44.3082 15.3101C44.6032 14.7578 44.5037 14.0962 44.0891 13.6486C44.1104 13.5358 44.1625 13.3529 44.2774 13.1135C45.5697 10.4326 47.177 8.22338 49.0545 6.54923C49.9073 5.78982 50.8288 5.13281 51.7966 4.59547C53.1966 3.81765 54.6524 3.31022 56.1211 3.08585C59.1605 2.62445 62.6216 3.30217 66.6998 5.16042C67.8642 5.69201 68.7774 6.18448 69.4466 6.86795C70.0863 7.52036 70.4096 8.3327 70.2912 8.98855C70.1988 9.50173 70.3931 10.0253 70.8029 10.3635C71.2115 10.7018 71.7742 10.8042 72.2811 10.6339C76.3499 9.26585 79.5124 9.11512 82.2344 10.1599C85.4361 11.3888 87.8915 14.1767 88.4932 17.2627C89.1175 20.4649 87.6866 23.8742 85.0156 25.5529C82.3386 27.2352 78.4085 26.9026 76.2551 24.8096C75.9448 24.5093 75.5148 24.354 75.0813 24.3828C74.6454 24.4104 74.2427 24.6209 73.9773 24.9581C71.7813 27.7529 68.1757 29.4835 64.5559 29.4835C64.5417 29.4835 64.5263 29.4835 64.5109 29.4835C60.8769 29.4697 57.2642 27.7069 55.0835 24.8833C54.8395 24.568 54.4759 24.3609 54.0743 24.3068C54.0056 24.2988 53.9381 24.2942 53.8706 24.2942C53.5366 24.2942 53.2097 24.4012 52.9431 24.6014C47.9114 28.3812 40.8353 29.3604 34.9164 27.0971C34.9164 27.0971 34.9164 27.0971 34.9164 27.0971ZM21.8942 79.8302C20.7796 75.1713 22.9152 69.8244 26.9744 67.1158C26.9744 67.1158 27.1687 66.9869 27.1687 66.9869C27.8166 66.5612 28.6233 66.0319 29.1018 65.1137C29.7781 63.817 29.4394 62.4362 29.1918 61.4283C29.1918 61.4283 29.148 61.2499 29.148 61.2499C28.2501 57.5403 28.7441 53.4591 30.5054 50.0544C32.4136 46.3643 35.9588 42.8434 39.1936 41.3971C40.9502 41.8297 42.7246 42.199 44.512 42.5063C43.9458 46.851 41.9417 50.991 38.8525 54.1793C38.695 54.3427 38.5327 54.5038 38.3716 54.6661C37.5259 55.5141 36.5664 56.4748 35.9896 57.7325C35.1439 59.5769 35.3405 61.5687 35.562 62.9057C36.4018 67.988 39.2505 72.755 43.3761 75.9848C43.9423 76.4278 44.5345 76.8374 45.1457 77.2217C44.9976 77.7787 44.8697 78.3125 44.7477 78.8315C44.2846 80.7887 43.9506 82.2028 42.8123 83.3684C41.0059 85.2163 38.4308 86.3324 36.159 87.2322C35.8202 87.3668 35.4791 87.4991 35.1391 87.6326C34.0387 88.0606 32.923 88.499 31.8261 88.9984C27.1178 88.1561 22.9792 84.3614 21.8942 79.8302C21.8942 79.8302 21.8942 79.8302 21.8942 79.8302ZM8.68708 146.348C6.49459 145.878 4.44068 144.108 3.58074 141.79C2.62841 139.222 2.95296 135.982 4.46911 132.899C5.92722 129.933 8.25474 127.363 10.5147 124.984C10.7706 124.715 11.0264 124.446 11.2835 124.176C13.4594 121.898 15.7099 119.542 17.4499 116.8C19.3842 113.753 20.5936 110.38 21.7638 107.121C22.1405 106.071 22.529 104.987 22.9341 103.942C24.2975 100.411 26.3383 96.0207 30.0517 93.3765C31.8723 92.0798 34.0079 91.2479 36.2679 90.3665C36.6138 90.2319 36.9597 90.0961 37.3044 89.9603C39.7705 88.9835 42.233 87.8719 44.2348 86.1276C45.4015 87.1965 46.8762 87.8202 48.1176 88.2586C52.1875 89.6945 56.4256 90.2192 60.4315 89.7935C59.1393 92.2742 58.3587 95.0311 58.181 97.7915C55.568 97.9215 52.9716 98.2932 50.4048 98.773C40.3473 100.653 30.8643 105.38 23.7029 112.082C23.5607 112.215 23.4541 112.369 23.3771 112.533C23.2125 112.589 23.0561 112.673 22.9152 112.785C22.3596 113.228 22.2009 113.99 22.5361 114.608C22.5361 114.608 31.3345 130.864 31.3345 130.864C31.0858 130.928 30.837 131.01 30.5919 131.11C30.4568 130.9 30.272 130.717 30.0304 130.59C29.6265 130.379 28.8163 129.925 28.0334 129.485C27.7965 129.352 27.5643 129.222 27.3428 129.098C27.2931 128.922 27.2113 128.754 27.0952 128.603C25.6359 126.7 23.4091 125.432 20.9868 125.125C18.5634 124.819 16.0771 125.488 14.163 126.963C13.5068 127.468 13.3978 128.396 13.9178 129.032C14.439 129.67 15.3925 129.777 16.0475 129.27C17.3042 128.303 19.004 127.845 20.5936 128.046C21.3149 128.137 22.0221 128.365 22.6688 128.704C18.9898 129.836 15.6353 132.004 13.1799 134.89C10.4425 138.107 8.8766 142.125 8.68708 146.348C8.68708 146.348 8.68708 146.348 8.68708 146.348ZM35.4779 142.766C34.1643 143.882 32.4906 144.797 30.3609 145.562C24.4337 147.69 17.6951 147.629 11.8023 145.416C12.1529 142.223 13.431 139.217 15.5168 136.767C17.9024 133.964 21.2877 131.963 24.9407 131.157C25.3718 131.393 25.9498 131.718 26.516 132.036C27.3037 132.478 28.0452 132.895 28.5024 133.136C27.7526 135.03 28.975 137.082 30.6179 137.949C31.9635 138.659 33.4382 138.724 34.6914 138.724C34.8323 138.724 34.9721 138.723 35.1071 138.723C35.1071 138.723 38.265 138.703 38.265 138.703C37.8243 140.17 36.8507 141.6 35.4779 142.766C35.4779 142.766 35.4779 142.766 35.4779 142.766ZM37.9404 144.567C39.6591 142.963 40.8554 140.999 41.3304 138.978C41.3529 138.88 41.3648 138.782 41.3671 138.686C41.3671 138.686 75.664 138.483 75.664 138.483C75.6415 138.748 75.6901 139.022 75.8251 139.276C76.7313 140.977 77.8885 142.547 79.2353 143.95C79.2353 143.95 37.9404 144.567 37.9404 144.567ZM105.89 144.814C101.467 147.664 95.7589 148.593 90.6206 147.299C85.6896 146.057 81.3283 142.774 78.8279 138.465C78.8279 138.465 83.1524 138.44 83.1524 138.44C84.9813 138.428 87.7447 138.412 89.4539 136.339C90.2049 135.427 90.5661 134.149 90.3968 133.002C90.3849 132.921 90.366 132.842 90.3494 132.762C90.3494 132.762 93.0761 131.216 93.0761 131.216C93.1258 131.187 93.1708 131.154 93.2159 131.122C96.9328 131.901 100.386 133.921 102.808 136.767C104.715 139.008 105.946 141.715 106.411 144.604C106.231 144.641 106.053 144.709 105.89 144.814C105.89 144.814 105.89 144.814 105.89 144.814ZM114.744 141.79C113.884 144.108 111.83 145.878 109.636 146.348C109.447 142.124 107.882 138.107 105.145 134.89C102.689 132.004 99.3349 129.836 95.6559 128.704C96.3026 128.366 97.0098 128.138 97.7311 128.046C99.3207 127.845 101.02 128.303 102.277 129.271C102.932 129.777 103.887 129.67 104.407 129.033C104.927 128.396 104.818 127.47 104.162 126.963C102.248 125.488 99.7613 124.818 97.3379 125.126C94.9156 125.433 92.6887 126.7 91.2294 128.603C91.1939 128.648 91.1643 128.695 91.1359 128.743C91.0044 128.842 90.8883 128.961 90.7971 129.098C90.7971 129.098 88.4992 130.401 88.4992 130.401C88.3523 130.331 88.2031 130.27 88.0515 130.217C88.0515 130.217 96.6876 113.082 96.6876 113.082C96.9636 112.536 96.8641 111.879 96.4365 111.432C96.3014 111.292 96.1415 111.185 95.9698 111.106C95.9627 111.09 95.9591 111.074 95.952 111.058C94.4596 108.029 90.9926 106.651 88.2066 105.546C87.8927 105.42 87.586 105.298 87.2898 105.177C85.8341 104.581 84.3618 103.931 82.9368 103.303C79.7138 101.881 76.3807 100.41 72.8864 99.3943C71.8891 99.1055 70.8539 98.8247 69.8091 98.5727C70.2794 93.8575 71.0126 88.7234 73.044 84.8182C73.2252 85.0276 73.4088 85.2393 73.5971 85.4591C75.4982 87.6775 78.3031 88.8833 81.0203 89.9603C81.365 90.0972 81.7109 90.2319 82.0568 90.3665C84.3168 91.2479 86.4512 92.0798 88.273 93.3765C91.9852 96.0207 94.0272 100.411 95.3906 103.942C95.7945 104.987 96.1842 106.073 96.5608 107.121C97.7299 110.382 98.9393 113.753 100.874 116.8C102.615 119.542 104.864 121.898 107.04 124.176C107.297 124.446 107.554 124.715 107.81 124.984C110.069 127.363 112.397 129.933 113.856 132.899C115.372 135.982 115.695 139.222 114.744 141.79C114.744 141.79 114.744 141.79 114.744 141.79Z" style="fill:#000000;mix-blend-mode:normal;" transform="matrix(1 0 -0 1 18.497 0)" />
      </g>
    </g>
  </g>
</svg>