<svg width="117" height="107" fill="none" xmlns:xlink="http://www.w3.org/1999/xlink" xmlns="http://www.w3.org/2000/svg"><defs><radialGradient id="d" gradientUnits="userSpaceOnUse" cx="0" cy="0" r="1" gradientTransform="matrix(22.163 0 0 20.268 23.479 18.988)"><stop offset="0" stop-color="#FE95BC"/><stop offset=".166" stop-color="#FE8DB6"/><stop offset=".419" stop-color="#FE78A6"/><stop offset=".726" stop-color="#FF568B"/><stop offset="1" stop-color="#FF316F"/></radialGradient><radialGradient id="e" gradientUnits="userSpaceOnUse" cx="0" cy="0" r="1" gradientTransform="matrix(17.286 -12.687 11.79 16.064 25.018 19.527)"><stop offset="0" stop-color="#FE95BC"/><stop offset=".166" stop-color="#FE8DB6"/><stop offset=".419" stop-color="#FE78A6"/><stop offset=".726" stop-color="#FF568B"/><stop offset="1" stop-color="#FF316F"/></radialGradient><path id="c" d="M117 0v107H0V0h117Z"/><path id="a" d="M0 0h117v107H0z"/><clipPath id="b"><use xlink:href="#a"/></clipPath></defs><g clip-path="url(#b)"><use xlink:href="#c" style="mix-blend-mode:normal"/><path d="M46.903 15.893a11.991 11.991 0 0 0-.817-3.368 10.99 10.99 0 0 0-1.402-2.485 11.301 11.301 0 0 0-6.383-4.206 13.184 13.184 0 0 0-4.884-.258h-.003c-.233.033-.463.07-.693.114-1.62.316-3.114.995-4.424 1.912-.089.061-.175.125-.26.188.194.593.343 1.198.446 1.809a11.9 11.9 0 0 1-.142 4.784c-.03.124-.06.248-.094.372v.005a10.657 10.657 0 0 1-1.831 3.661v.003a10.044 10.044 0 0 1-1.155 1.254c-1.067.973-2.438 1.723-3.898 2.143a9.796 9.796 0 0 1-1.388.297c-2.114.286-4.261-.01-6.167-.902-1.934-.902-3.635-2.498-4.297-4.422a8.022 8.022 0 0 1-.258-.93 7.319 7.319 0 0 1 .28-4.038c.155-.426.35-.846.582-1.252.842-1.484 2.197-2.751 3.998-3.19 2.183-.531 4.535.35 5.862 1.98l.083.106c1.133 1.474 1.374 3.478.332 5.011-.127.19-.277.375-.449.55a3.133 3.133 0 0 1-1.232.783h-.003a2.732 2.732 0 0 1-1.77.01 2.138 2.138 0 0 1-1.023-.724 2.274 2.274 0 0 1-.451-1.67c.05-.428.202-.867.487-1.214.111-.131.482-.468.33-.106-.332.798-.49 1.77.125 2.503.667.796 1.892.644 2.584-.028a2.904 2.904 0 0 0 .84-1.67v-.002a3.07 3.07 0 0 0-.238-1.718c-.773-1.77-3.004-2.997-5.07-2.402-2.23.639-3.436 3.013-3.585 5.002-.106 1.41.357 2.761 1.246 3.861.383.474.845.902 1.377 1.267 1.54 1.059 3.533 1.515 5.444 1.358a7.843 7.843 0 0 0 4.712-2.027 7.14 7.14 0 0 0 .754-.798c1.613-2.004 2.153-4.48 1.862-6.902v-.002a11.616 11.616 0 0 0-2.693-6.111A12.683 12.683 0 0 0 18.792.89 11.665 11.665 0 0 0 14.86.01c-1.939-.085-3.856.307-5.626 1.045-2.74 1.137-5.12 3.103-6.658 5.389-.399.592-.75 1.206-1.05 1.837a15.243 15.243 0 0 0-1.374 4.55 16.438 16.438 0 0 0-.11 3.403c.063.907.199 1.814.407 2.706.196.848.449 1.682.75 2.503 1.23 3.347 3.286 6.435 5.805 9.106l.124.129c.931.98 1.928 1.905 2.979 2.777.59.494 1.2.968 1.822 1.429 1.41 1.038 2.882 1.958 4.42 2.827.08.043.348.188.381.264l.04-.015c-.028-.066.204-.148.329-.185a24.895 24.895 0 0 1 2.086-.522c.64-.14 1.283-.269 1.917-.413l.297-.069a78.583 78.583 0 0 0 5.402-1.484l.474-.15a60.23 60.23 0 0 0 2.233-.76c2.884-1.036 5.676-2.285 8.247-3.877.197-.121.394-.245.588-.372a25.502 25.502 0 0 0 1.814-1.287c2.061-1.584 3.837-3.448 5.137-5.64a11.835 11.835 0 0 0 1.374-3.499v-.002c.277-1.25.357-2.54.235-3.808ZM4.322 7.889c.712-1.234 1.69-2.346 2.834-3.269a13.313 13.313 0 0 1 3.266-1.915 13.773 13.773 0 0 1 5.397-1.029c.712.01 1.43.076 2.125.22.2.041 1.385.267 1.321.518-.036.157-.712.098-.82.098-.706.005-1.41.008-2.116.054-.942.055-1.879.195-2.79.41a15.677 15.677 0 0 0-3.128 1.102 14.025 14.025 0 0 0-2.978 1.913 14.377 14.377 0 0 0-2.355 2.511c-.028.035-.055.07-.08.106a27.065 27.065 0 0 0-1.072 1.64c-.07.111-.33.689-.524.681-.258-.01.047-1.039.097-1.196.12-.392.274-.778.454-1.153.114-.235.239-.466.369-.691Zm31.76 21.683c-.44.405-.995.722-1.516 1.03-1.33.786-2.734 1.465-4.166 2.078a47.833 47.833 0 0 1-3.566 1.361 41.396 41.396 0 0 1-6.233 1.586c-.086.018-.172.03-.258.046-.388.063-.776.121-1.166.167-.044.007-.092.012-.136.018-.48.053-1.091.172-1.573.06-.211-.048-.142-.134.005-.218.266-.154.587-.243.881-.339l.374-.122h.003c.38-.116.762-.23 1.144-.342.208-.06.418-.124.626-.187a173.32 173.32 0 0 0 5.466-1.708 109.255 109.255 0 0 0 3.848-1.36c1.413-.535 2.812-1.1 4.217-1.652.449-.178.895-.355 1.349-.512.213-.074.53-.226.765-.205.243.023.036.207-.064.299Z" style="fill:url(#d);mix-blend-mode:normal" transform="translate(15.757 17.171)"/><path d="M3.76 11.231c.94 0 .94-1.333 0-1.333-.938 0-.939 1.333 0 1.333Zm18.752-2.12c.938 0 .94-1.333 0-1.333-.939 0-.94 1.334 0 1.334Zm-6.965 9.023c.938 0 .94-1.334 0-1.334-.939 0-.94 1.334 0 1.334Zm-5.244 8.364c.938 0 .94-1.334 0-1.334-.938 0-.94 1.334 0 1.334Zm6.051 7.223c.938 0 .94-1.333 0-1.333-.938 0-.94 1.333 0 1.333Zm13.689-5.724c.938 0 .94-1.334 0-1.334-.938 0-.94 1.334 0 1.334Zm.704-9.374c.939 0 .94-1.333 0-1.333-.938 0-.94 1.333 0 1.333Zm9.799-6.725c.938 0 .94-1.333 0-1.333-.939 0-.94 1.333 0 1.333Zm-4.563-5.96c.939 0 .94-1.334 0-1.334-.938 0-.94 1.333 0 1.333Zm1.132 9.493c.938 0 .94-1.334 0-1.334-.938 0-.94 1.334 0 1.334Zm-15.48.667c.938 0 .94-1.334 0-1.334-.938 0-.94 1.334 0 1.334Zm-10.213-3.533c.939 0 .94-1.334 0-1.334-.938 0-.94 1.334 0 1.334Zm6.16-8.474c.94 0 .94-1.334 0-1.334-.938 0-.939 1.334 0 1.334ZM7.36 5.937c.938 0 .94-1.333 0-1.333-.938 0-.94 1.333 0 1.333Zm-5.745 10.16c.938 0 .94-1.333 0-1.333-.939 0-.94 1.334 0 1.334ZM8.769 18.8c.938 0 .94-1.333 0-1.333-.939 0-.94 1.333 0 1.333Zm7.283 4.125c.938 0 .94-1.333 0-1.333-.938 0-.94 1.333 0 1.333Zm21.36 2.906c.938 0 .94-1.334 0-1.334-.939 0-.94 1.334 0 1.334Zm-27.109 5.755c.938 0 .94-1.333 0-1.333-.938 0-.94 1.333 0 1.333ZM23.92 29.8c.939 0 .94-1.333 0-1.333-.938 0-.94 1.333 0 1.333Zm3.113-8.395c.938 0 .94-1.333 0-1.333-.939 0-.94 1.334 0 1.334Zm11.689 5.093c.938 0 .94-1.334 0-1.334-.938 0-.94 1.334 0 1.334Zm-23.88-9.522c.939 0 .94-1.334 0-1.334-.938 0-.94 1.334 0 1.334Zm8.374-6.411c.938 0 .94-1.334 0-1.334-.938 0-.94 1.334 0 1.334Zm-18.336 0c.938 0 .94-1.334 0-1.334-.938 0-.94 1.334 0 1.334Zm10.378 24.368c.938 0 .94-1.334 0-1.334-.939 0-.94 1.334 0 1.334Zm-3.835-9.614c.938 0 .94-1.334 0-1.334-.939 0-.94 1.334 0 1.334Zm19.324 1.846c.939 0 .94-1.334 0-1.334-.938 0-.94 1.334 0 1.334Zm-1.12-9.522c.94 0 .94-1.334 0-1.334-.937 0-.939 1.334 0 1.334Zm12.038-6.023c.938 0 .94-1.333 0-1.333-.938 0-.94 1.333 0 1.333ZM29.628 9.227c1.491 0 1.494-2.12 0-2.12-1.491 0-1.494 2.12 0 2.12ZM42.784 21.8c1.492 0 1.494-2.12 0-2.12-1.49 0-1.493 2.12 0 2.12Zm-21.715 2.58c1.491 0 1.494-2.12 0-2.12-1.491 0-1.494 2.12 0 2.12ZM4.176 23.66c1.491 0 1.494-2.12 0-2.12-1.491 0-1.494 2.12 0 2.12ZM9.184 2.12c1.491 0 1.493-2.12 0-2.12-1.492 0-1.494 2.12 0 2.12Zm5.658 7.778c1.492 0 1.494-2.12 0-2.12-1.49 0-1.493 2.12 0 2.12Zm-3.42-7.778c1.492 0 1.494-2.12 0-2.12-1.49 0-1.493 2.12 0 2.12Zm4.54 9.227c1.491 0 1.494-2.12 0-2.12-1.492 0-1.494 2.12 0 2.12ZM4.176 21.799c1.491 0 1.494-2.12 0-2.12-1.491 0-1.494 2.12 0 2.12Zm16.34 4.699c1.49 0 1.493-2.12 0-2.12-1.492 0-1.494 2.12 0 2.12Zm11.35-17.27c1.492 0 1.494-2.12 0-2.12-1.49 0-1.493 2.12 0 2.12Zm8.68 13.002c1.49 0 1.493-2.12 0-2.12-1.492 0-1.494 2.12 0 2.12ZM3.764 4.953c.607 0 .608-.862 0-.862-.606 0-.607.862 0 .862Zm3.923 3.645c.607 0 .608-.862 0-.862-.606 0-.607.862 0 .862ZM.455 12.354c.607 0 .608-.862 0-.862-.606 0-.607.862 0 .862Zm9.848 8.58c.606 0 .608-.862 0-.862-.606 0-.607.862 0 .862Zm1.824 11.885c.606 0 .607-.862 0-.862s-.608.862 0 .862Zm3.835-7.224c.606 0 .607-.862 0-.862s-.608.862 0 .862Zm9.854 4.636c.607 0 .608-.862 0-.862-.606 0-.607.862 0 .862Zm-2.6 4.466c.607 0 .608-.862 0-.862-.606 0-.607.862 0 .862Zm13.72-6.027c.607 0 .608-.862 0-.862-.606 0-.607.862 0 .862Zm-3.495-9.294c.607 0 .608-.862 0-.862-.606 0-.607.862 0 .862Zm3.247-7.714c.606 0 .607-.862 0-.862s-.608.862 0 .862ZM26.272 17.4c.606 0 .607-.862 0-.862s-.608.862 0 .862Zm-14.145-4.403c.606 0 .607-.862 0-.862s-.608.862 0 .862Zm10.827-.431c.606 0 .607-.862 0-.862s-.608.862 0 .862Zm-6.075-8.043c.606 0 .607-.862 0-.862s-.608.862 0 .862Z" style="fill:#fff;mix-blend-mode:normal" transform="translate(16.738 18.203)"/><path d="m8.777.815.666.389-.783.101a.155.155 0 0 0-.108.063l-.425.61-.11-.714a.138.138 0 0 0-.072-.102L7.28.773l.78-.1A.156.156 0 0 0 8.173.61L8.598 0l.108.717c.007.039.034.076.07.098Zm8.106 2.022-1.11-.143.945-.55a.216.216 0 0 0 .1-.14l.153-1.015.602.863a.221.221 0 0 0 .158.089l1.104.143-.94.55a.196.196 0 0 0-.1.144l-.157 1.01-.602-.862a.219.219 0 0 0-.153-.089Zm17.785.549.666.388-.783.102a.154.154 0 0 0-.108.062l-.425.61-.11-.714a.139.139 0 0 0-.072-.101l-.664-.39.78-.1a.156.156 0 0 0 .112-.063l.425-.61.107.717c.008.04.035.077.072.099Zm-7.403 5.868-1.109-.144.944-.55a.216.216 0 0 0 .101-.14l.153-1.015.601.863a.222.222 0 0 0 .158.09l1.105.142-.94.551a.196.196 0 0 0-.101.144l-.157 1.01-.601-.863a.219.219 0 0 0-.154-.088Zm12.007 1.4-1.11-.144.945-.55a.216.216 0 0 0 .1-.14l.153-1.015.602.863a.222.222 0 0 0 .158.09l1.104.142-.94.551a.196.196 0 0 0-.1.144l-.157 1.01-.602-.863a.22.22 0 0 0-.153-.088ZM1.109 12.542 0 12.4l.944-.55a.216.216 0 0 0 .1-.14l.153-1.015.602.863a.222.222 0 0 0 .158.089l1.105.143-.94.55a.196.196 0 0 0-.101.144l-.157 1.01-.601-.863a.22.22 0 0 0-.154-.088Zm15.49.536.667.389-.783.101a.155.155 0 0 0-.108.063l-.425.61-.11-.714a.139.139 0 0 0-.072-.102l-.664-.389.78-.101a.156.156 0 0 0 .112-.063l.425-.61.107.717c.008.04.035.077.072.1Zm18.773 1.157.666.388-.783.102a.155.155 0 0 0-.108.062l-.425.61-.11-.714a.139.139 0 0 0-.072-.102l-.664-.388.78-.101a.157.157 0 0 0 .112-.063l.425-.61.108.717c.008.04.034.077.07.099Zm-5.041 5.983-1.11-.143.945-.55a.216.216 0 0 0 .1-.14l.153-1.015.602.863a.222.222 0 0 0 .158.089l1.104.143-.94.55a.197.197 0 0 0-.1.145l-.157 1.01-.602-.863a.22.22 0 0 0-.153-.089Zm-7.352-.279.666.389-.783.101a.154.154 0 0 0-.109.062l-.425.61-.11-.713a.138.138 0 0 0-.072-.102l-.663-.389.78-.101a.156.156 0 0 0 .111-.063l.425-.61.108.717c.008.04.034.077.072.099Zm-17.56 4.073.666.388-.783.102a.155.155 0 0 0-.108.062l-.425.61-.11-.714a.138.138 0 0 0-.072-.101l-.664-.39.78-.1a.156.156 0 0 0 .112-.063l.425-.61.107.717c.008.04.035.077.072.099Zm7.978 2.021-1.11-.143.944-.55a.217.217 0 0 0 .101-.14l.153-1.015.602.863a.221.221 0 0 0 .158.089l1.104.143-.94.55a.196.196 0 0 0-.1.145l-.157 1.01-.602-.863a.219.219 0 0 0-.153-.089Z" style="fill:#fff;fill-rule:evenodd;mix-blend-mode:normal" transform="translate(20.503 21.751)"/><path d="M10.105 3.55c-.967.99-2.34 1.707-3.779 2.004-1.551.225-3.122.134-4.54-.441C.593 4.63-.077 3.268.005 2.085a16.359 16.359 0 0 1 2.79-.41c.707-.046 1.41-.048 2.117-.053.108 0 .784.058.82-.1.064-.25-1.122-.476-1.321-.516a11.275 11.275 0 0 0-2.125-.22A13.29 13.29 0 0 0 .575.868C1.09.507 1.865.59 2.542.626c.964.05 1.953.01 2.707-.616l.01-.01c1.898.78 3.566 2.03 4.846 3.55Z" style="fill:#ffdeeb;fill-opacity:.3;mix-blend-mode:normal" transform="translate(29.289 18.062)"/><path d="M2.355 1.913C3.255 1.155 4.258.514 5.333 0 4.93 2.19 2.682 3.892.253 4.39c-.084.013-.17.024-.253.034a14.377 14.377 0 0 1 2.355-2.511Z" style="fill:#ffdeeb;fill-opacity:.3;mix-blend-mode:normal" transform="translate(20.835 21.249)"/><path d="M2.795 6.833c-.13.226-.255.456-.368.692A8.386 8.386 0 0 1 0 7.225c.3-.63.651-1.243 1.05-1.836C2.588 3.104 4.967 1.138 7.707 0c.602.41 1.07.973 1.186 1.634l.003.015A13.314 13.314 0 0 0 5.63 3.565c-1.145.922-2.123 2.034-2.835 3.268Z" style="fill:#ffdeeb;fill-opacity:.3;mix-blend-mode:normal" transform="translate(17.283 18.227)"/><path d="M9.533 2.357a7.319 7.319 0 0 0-.28 4.039c-.942.856-2.2 1.474-3.507 1.745-1.552.226-3.12.135-4.538-.44A2.674 2.674 0 0 1 .04 6.765a16.438 16.438 0 0 1 .111-3.403c.507-.254 1.2-.183 1.81-.15.966.051 1.953.01 2.709-.615.698-.575.859-1.447 1.46-2.075.526-.553 1.352-.61 2.086-.434.676.168 1.385.522 1.898 1.016a8.063 8.063 0 0 0-.582 1.252Z" style="fill:#ffdeeb;fill-opacity:.3;mix-blend-mode:normal" transform="translate(15.757 26.64)"/><path d="M8.201 5.853a7.865 7.865 0 0 1-1.875.646c-1.552.225-3.12.134-4.538-.441C.436 5.51-.246 3.833.08 2.564c.022-.086.053-.17.089-.25.415-.923 1.479-.794 2.371-.746.967.053 1.953.01 2.71-.613.33-.27.54-.61.731-.955a10.993 10.993 0 0 1 1.402 2.486c.435 1.076.709 2.214.817 3.367Z" style="fill:#ffdeeb;fill-opacity:.3;mix-blend-mode:normal" transform="translate(54.459 27.211)"/><path d="M11.869 2.535c-.194.127-.39.25-.588.372-2.57 1.591-5.363 2.84-8.247 3.877A7.423 7.423 0 0 1 1.54 6.03c.806-.294 1.601-.61 2.385-.945 1.432-.613 2.837-1.292 4.167-2.077.52-.31 1.075-.626 1.515-1.032.1-.09.308-.276.064-.299-.236-.02-.551.132-.765.206-.454.157-.9.334-1.349.512-1.405.552-2.804 1.117-4.217 1.651-.95.36-1.908.702-2.872 1.032-.66-.97-.602-2.397.038-3.335.05-.073.106-.144.17-.21.717-.75 1.678-.317 2.51-.01.894.332 1.844.583 2.778.213C6.829 1.395 7.287.619 8.079.199c.69-.368 1.493-.183 2.125.203.773.47 1.476 1.269 1.665 2.133Z" style="fill:#ffdeeb;fill-opacity:.3;mix-blend-mode:normal" transform="translate(42.231 44.765)"/><path d="M8.486 3.453c-.421.639-1.05 1.168-1.831 1.318C3.579 5.364.892 3.053.085.413.056.276.026.137 0 0c1.033.005 2.067.132 3.07.377a11.301 11.301 0 0 1 5.416 3.076Z" style="fill:#ffdeeb;fill-opacity:.3;mix-blend-mode:normal" transform="translate(50.988 22.628)"/><path d="M6.211 4.685c-.72-.66-.815-1.558-.807-2.443.007-.818.095-1.797-.933-2.13a1.942 1.942 0 0 0-.276-.067C2.79-.191.993.516.465 1.778-.093 3.103-.113 4.54.211 5.947c.805 2.638 3.493 4.95 6.568 4.356 1.238-.239 2.097-1.427 2.349-2.506.158-.679.052-1.429-.577-1.882-.718-.518-1.676-.621-2.34-1.23Z" style="fill:#ffdeeb;fill-opacity:.3;mix-blend-mode:normal" transform="translate(46.266 29.102)"/><path d="M9.129 7.798c-.014.06-.03.124-.05.185-.704.15-1.405.314-2.086.522-.125.038-.358.119-.33.185l-.039.015c-.033-.076-.302-.22-.382-.264-1.538-.869-3.009-1.788-4.419-2.827A38.517 38.517 0 0 1 0 4.184a6.13 6.13 0 0 1 .465-2.406C.995.516 2.793-.191 4.195.045c.094.015.188.038.276.068 1.028.332.94 1.313.934 2.131-.008.884.086 1.781.806 2.443.665.608 1.624.712 2.341 1.228.025.018.047.036.07.054l-.374.121c-.294.097-.615.185-.881.34-.147.083-.216.17-.006.218.482.111 1.094-.008 1.574-.061.044-.005.091-.01.135-.018.155.383.155.818.059 1.229Z" style="fill:#ffdeeb;fill-opacity:.3;mix-blend-mode:normal" transform="translate(25.863 46.442)"/><path d="M6.4 2.146c-.252 1.08-1.111 2.268-2.35 2.506-1.31.253-2.551-.023-3.604-.629A12.456 12.456 0 0 0 0 2.214a9.42 9.42 0 0 1 .26-.187C1.57 1.11 3.064.43 4.685.114c.23-.043.46-.081.692-.114h.003c.155.076.305.162.443.264.63.453.735 1.203.577 1.882Z" style="fill:#ffdeeb;fill-opacity:.3;mix-blend-mode:normal" transform="translate(43.794 22.747)"/><path d="M3.386 2.61c-.379-.374-.41-.867-.386-1.35.022-.447.091-.98-.463-1.182a1.054 1.054 0 0 0-.15-.042C1.627-.119.628.234.31.914c-.333.714-.377 1.499-.23 2.273.38 1.457 1.798 2.77 3.492 2.504.682-.108 1.178-.741 1.34-1.326.101-.368.06-.78-.274-1.04-.38-.296-.902-.37-1.252-.715Z" style="fill:#ffdeeb;fill-opacity:.3;mix-blend-mode:normal" transform="translate(25.681 38.659)"/><path d="M4.358 1.634c-.438.269-.853.588-.956 1.087-.094.464.152.892.12 1.348-.028.398-.367.674-.749.818-.612.23-1.463.246-1.964-.192A2.322 2.322 0 0 1 0 2.997c1.46-.42 2.831-1.17 3.898-2.143.294-.269.57-.555.828-.854.144.137.26.291.341.454.02.043.039.088.053.134.152.527-.358.795-.762 1.046Z" style="fill:#ffdeeb;fill-opacity:.3;mix-blend-mode:normal" transform="translate(37.12 35.995)"/><path d="M7.547 4.75a5.448 5.448 0 0 1-.726.431c-1.912.157-3.904-.299-5.444-1.358A6.464 6.464 0 0 1 0 2.556c.216-.643.704-1.264 1.266-1.71C1.953.345 2.826.048 3.732 0c.246.322.59.578 1.022.725.598.202 1.214.18 1.77-.01h.003c.25.16.49.344.712.56.255.243.466.501.635.77.51.947.56 1.978-.327 2.706Z" style="fill:#ffdeeb;fill-opacity:.2;mix-blend-mode:normal" transform="translate(27.938 32.271)"/><path d="M6.456 5.681c1.042-2.066.018-4.294-1.783-5.23C3.483-.108 1.812-.256.97.64-1.315 2.769.873 6.07 3.04 7.234c1.067.483 2.095.056 2.87-.728.208-.242.392-.52.545-.825Z" style="fill:#ffdeeb;fill-opacity:.2;mix-blend-mode:normal" transform="translate(42.225 37.579)"/><path d="M.466 3.846C1.643 5.85 4.205 6.443 6.106 5.69c1.204-.533 2.34-1.664 2.062-2.818C7.685-.078 3.485-.467 1.165.417.1.905-.145 1.913.073 2.95c.087.299.217.6.393.896Z" style="fill:#ffdeeb;fill-opacity:.2;mix-blend-mode:normal" transform="translate(32.274 42.097)"/><path d="M5.466.993C3.656 1.596 1.834 2.156 0 2.7.02 1.968.307 1.256.967.64 1.809-.255 3.48-.106 4.67.45c.285.15.554.332.795.543Z" style="fill:#ffdeeb;fill-opacity:.2;mix-blend-mode:normal" transform="translate(36.258 49.181)"/><path d="m6.674 1.097-.474.15A78.569 78.569 0 0 1 .798 2.73L.5 2.8A4.76 4.76 0 0 1 0 1.586 41.391 41.391 0 0 0 6.233 0c.203.34.352.71.441 1.097Z" style="fill:#ffdeeb;fill-opacity:.2;mix-blend-mode:normal" transform="translate(36.358 51.212)"/><path d="M.141.38c.13.428.164.89.097 1.338a8.302 8.302 0 0 1-.105-.416A7.8 7.8 0 0 1 0 0c.055.124.102.25.141.38Z" style="fill:#ffdeeb;fill-opacity:.2;mix-blend-mode:normal" transform="translate(35.347 28.366)"/><path d="M4.494 8.917a7.14 7.14 0 0 1-.754.798C2.49 9.11 1.255 7.828.416 5.943 1.457 4.41 1.216 2.406.083.93L0 .825C.169.543.399.325.695.186c1.54-.52 3.957.036 5.66 1.827v.002c.291 2.423-.249 4.898-1.861 6.902Z" style="fill:#ffdeeb;fill-opacity:.2;mix-blend-mode:normal" transform="translate(35.732 25.71)"/><path d="M0 3.661A10.657 10.657 0 0 0 1.831 0C2.07 1.736 1.108 3.101 0 3.661Z" style="fill:#ffdeeb;fill-opacity:.2;mix-blend-mode:normal" transform="translate(42.173 31.931)"/><path d="M6.286 9.956a2.184 2.184 0 0 1-.357.099l-.125-.13C3.286 7.255 1.23 4.166 0 .82A1.56 1.56 0 0 1 .693.186c2.366-.798 6.804.94 7.538 5.8.38 1.923-.723 3.435-1.945 3.97Z" style="fill:#ffdeeb;fill-opacity:.2;mix-blend-mode:normal" transform="translate(16.957 37.795)"/><path d="M7.596.207V.21a11.835 11.835 0 0 1-1.374 3.499c-1.3 2.191-3.075 4.056-5.136 5.64C-.643 7.673-.693 3.305 3.817.72 5.122-.094 6.53-.145 7.597.207Z" style="fill:#ffdeeb;fill-opacity:.2;mix-blend-mode:normal" transform="translate(54.828 36.665)"/><path d="M50.85 17.981c-.335-3.562-2.097-7.043-5.197-9.288C42.658 6.522 38.566 5.74 34.862 6.6c-1.906.441-3.768 1.36-5.04 2.757-1.424-3.849-4.687-7.163-8.876-8.614-4.447-1.54-9.386-.57-13.215 1.86C4.201 4.841 1.744 8.211.65 11.993c-1.308 4.515-.554 9.26 1.476 13.494 1.898 3.956 4.912 7.465 8.503 10.254 1.679 1.302 3.51 2.506 5.463 3.443.737.355 1.588.776 2.422.88.152.02.193 0 .177-.036-.033-.076-.302-.22-.383-.264-1.537-.868-3.008-1.788-4.418-2.827a36.512 36.512 0 0 1-4.926-4.335c-3.134-3.324-5.552-7.294-6.555-11.61-.983-4.243-.38-8.765 2.128-12.495 2.53-3.76 7.341-6.653 12.284-6.433 3.895.172 7.37 2.341 9.447 5.295 2.507 3.573 3.014 8.605.16 12.15-1.16 1.438-2.914 2.457-4.848 2.753-2.091.32-4.355-.114-6.061-1.287-1.762-1.21-2.776-3.106-2.624-5.128.15-1.989 1.355-4.363 3.585-5.001 2.21-.636 4.613.81 5.211 2.782.31 1.02.067 2.227-.742 3.01-.693.671-1.917.823-2.585.027-.615-.732-.457-1.705-.125-2.503.153-.362-.219-.025-.33.107-.285.347-.437.785-.487 1.213-.12 1.001.404 2.032 1.474 2.395 1.097.372 2.25-.02 3.006-.794 1.537-1.573 1.39-3.901.116-5.56-1.308-1.698-3.715-2.63-5.945-2.086-2.291.557-3.862 2.458-4.58 4.441-.59 1.632-.582 3.337-.022 4.969.662 1.923 2.363 3.52 4.297 4.421 1.906.892 4.053 1.188 6.167.902 1.959-.268 3.884-1.163 5.286-2.44 1.57-1.429 2.607-3.324 3.08-5.295.522-2.184.394-4.454-.304-6.593a9.48 9.48 0 0 1 .26-.187c1.31-.917 2.804-1.596 4.425-1.913a13.116 13.116 0 0 1 5.58.144c3.676.902 6.474 3.459 7.784 6.692 1.388 3.428 1.117 7.456-.792 10.676-1.782 3.005-4.458 5.395-7.538 7.3-3.37 2.085-7.118 3.582-10.955 4.786a78.655 78.655 0 0 1-5.402 1.485c-1.424.34-2.903.575-4.3 1.003-.124.038-.357.119-.33.185.009.025.056.045.159.063.489.079 1.024.037 1.527-.003l.29-.022a42.554 42.554 0 0 0 4.643-.613c3.89-.715 7.755-1.817 11.34-3.375 3.582-1.56 7.03-3.64 9.657-6.392 2.45-2.564 4.156-5.666 4.494-9.089.086-.863.088-1.735.01-2.602ZM20.488 4.57l-.082-.003c-.707.005-1.41.007-2.117.053-3.288.198-6.463 1.38-8.896 3.425a14.5 14.5 0 0 0-2.435 2.618A27.08 27.08 0 0 0 5.886 12.3c-.013.02-.032.057-.057.104-.107.202-.309.584-.467.578-.257-.01.047-1.04.097-1.196a8.7 8.7 0 0 1 .823-1.845c.712-1.234 1.69-2.346 2.834-3.268 2.369-1.903 5.505-2.995 8.663-2.944a11.272 11.272 0 0 1 2.157.226c.269.054 1.35.271 1.29.511-.03.134-.525.111-.738.102ZM21 37.91c.435-.05.87-.114 1.302-.185 3.469-.57 6.868-1.63 10.057-2.992 1.432-.613 2.837-1.292 4.167-2.078.52-.309 1.075-.626 1.515-1.031l.006-.005c.102-.093.297-.272.058-.294-.184-.016-.418.074-.613.149-.054.02-.105.04-.152.056-.454.157-.9.335-1.349.512-1.405.552-2.804 1.117-4.216 1.652-3.259 1.231-6.589 2.263-9.94 3.256-.51.15-1.02.299-1.522.463-.294.097-.615.185-.88.34-.148.084-.217.17-.006.218.392.09.871.028 1.295-.026.096-.013.19-.025.278-.035Z" style="fill:#ba0000;fill-rule:evenodd;mix-blend-mode:normal" transform="translate(13.797 15.118)"/><path d="M41.161 3.772a13.982 13.982 0 0 0-2.94-2.16A12.976 12.976 0 0 0 35.427.475 12.198 12.198 0 0 0 33.9.146c-2.11-.324-4.296-.117-6.33.698-.95.382-1.843.874-2.653 1.462-.475.345-.921.723-1.335 1.13l-.002.002c-.159.159-.312.32-.462.485-1.048 1.174-1.749 2.558-2.144 4.023a7.987 7.987 0 0 0-.075.296c.557.351 1.088.738 1.585 1.156 1.295 1.08 2.378 2.368 3.161 3.813.061.115.123.229.182.345a.111.111 0 0 0 .003.004c.607 1.227.99 2.56 1.075 3.904l.002.002a8.88 8.88 0 0 1-.044 1.64c-.167 1.368-.724 2.738-1.575 3.901-.267.364-.56.71-.88 1.025a10.474 10.474 0 0 1-5.43 2.824c-2.125.402-4.544.13-6.376-.992a9.402 9.402 0 0 1-.837-.578c-1.139-.886-2.011-2.003-2.543-3.311-.17-.42-.307-.86-.402-1.31-.359-1.64-.168-3.403.937-4.775 1.34-1.664 3.778-2.321 5.928-1.81.045.013.091.024.137.036 1.893.503 3.451 1.928 3.687 3.72.03.222.04.451.026.686-.027.471-.17.927-.427 1.316l-.002.002a2.477 2.477 0 0 1-1.374 1.02c-.438.133-.881.13-1.293.02a2.644 2.644 0 0 1-1.495-1.045c-.254-.363-.434-.792-.45-1.226-.003-.166.056-.641.185-.271.287.813.829 1.662 1.81 1.882 1.065.238 1.916-.58 1.997-1.5.055-.622-.134-1.247-.487-1.784l-.001-.002a3.48 3.48 0 0 0-.99-.988 3.736 3.736 0 0 0-.371-.216c-1.814-.94-4.393-.62-5.599 1.026-1.303 1.774-.62 4.316.624 5.953.883 1.162 2.167 1.95 3.613 2.3.623.15 1.276.22 1.941.2 1.926-.054 3.792-.838 5.176-2.054a6.667 6.667 0 0 0 2.333-5.33c-.112-2.486-1.384-4.727-3.267-6.45l-.002-.002c-1.446-1.327-3.253-2.347-5.165-2.936-.367-.11-.739-.211-1.116-.292-2.038-.454-4.193-.475-6.208.002A11.318 11.318 0 0 0 5.3 9.709c-1.573 1.042-2.8 2.445-3.677 4.033a13.12 13.12 0 0 0-1.509 8.013c.094.69.24 1.37.437 2.034a15.62 15.62 0 0 0 2.04 4.336 18.2 18.2 0 0 0 2.24 2.719c.67.671 1.397 1.301 2.17 1.878.733.55 1.5 1.056 2.297 1.524 3.249 1.908 6.965 3.142 10.756 3.785l.186.03c1.397.232 2.807.383 4.223.463.798.048 1.598.069 2.4.072 1.81.004 3.587-.12 5.381-.321.092-.013.4-.054.478-.014l.02-.034c-.066-.035.06-.231.131-.332.39-.552.824-1.082 1.27-1.601.405-.475.818-.943 1.214-1.419l.185-.223a67.23 67.23 0 0 0 3.2-4.248c.088-.13.178-.258.267-.388.421-.617.831-1.24 1.222-1.87 1.542-2.458 2.867-5.03 3.785-7.742a24.228 24.228 0 0 0 .739-2.67c.525-2.414.635-4.885.15-7.338a11.807 11.807 0 0 0-1.32-3.516l-.002-.002a13.43 13.43 0 0 0-2.42-3.106ZM2.463 21.884a10.642 10.642 0 0 1-.024-4.172 11.3 11.3 0 0 1 1.238-3.362 11.824 11.824 0 0 1 2.23-2.846c.397-.372.823-.724 1.278-1.044.562-.4 1.167-.758 1.809-1.044.183-.082 1.262-.584 1.384-.352.08.143-.488.484-.572.546-.548.408-1.095.813-1.615 1.252a14.285 14.285 0 0 0-1.896 1.916 13.325 13.325 0 0 0-1.687 2.65 11.939 11.939 0 0 0-1.016 3.195 12.767 12.767 0 0 0-.12 3.306c.003.044.005.088.01.13.066.633.171 1.264.285 1.892.022.126.214.726.057.831-.208.14-.673-.837-.742-.988a8.089 8.089 0 0 1-.434-1.16 10.09 10.09 0 0 1-.185-.75Zm39.61-1.249c-.066.568-.282 1.132-.477 1.672-.5 1.373-1.132 2.706-1.83 4.004a40.583 40.583 0 0 1-1.852 3.101 35.522 35.522 0 0 1-3.779 4.803c-.055.063-.113.122-.17.183-.26.271-.522.539-.796.798-.029.031-.062.062-.093.091-.338.316-.734.759-1.186.948-.198.083-.203-.024-.145-.173.102-.273.292-.526.455-.77l.209-.308.002-.002c.216-.308.437-.615.659-.921.12-.166.241-.336.36-.504a147.623 147.623 0 0 0 3.097-4.46 89.702 89.702 0 0 0 2.072-3.262c.737-1.226 1.442-2.466 2.16-3.701.23-.395.456-.788.703-1.171.116-.18.259-.479.456-.598.206-.121.17.142.155.27Z" style="fill:url(#e);mix-blend-mode:normal" transform="translate(55.965 52.339)"/><path d="M5.055 23.752c.732-.537-.179-1.578-.912-1.04-.732.536.179 1.578.912 1.04Zm13.181-12.38c.732-.536-.179-1.577-.912-1.04-.732.537.179 1.579.912 1.04Zm.736 11.024c.732-.537-.18-1.578-.912-1.04-.732.536.178 1.578.912 1.04Zm1.628 9.526c.733-.537-.178-1.578-.912-1.04-.732.536.18 1.577.913 1.04Zm9.662 2.175c.732-.537-.179-1.578-.912-1.04-.732.536.179 1.578.912 1.04ZM37.028 21.8c.732-.536-.179-1.578-.912-1.04-.732.537.179 1.578.912 1.04Zm-5.861-7.716c.732-.537-.179-1.579-.912-1.04-.732.536.178 1.577.912 1.04Zm3.046-10.852c.732-.537-.179-1.578-.912-1.04-.732.536.178 1.577.912 1.04ZM26.576 1.19c.732-.536-.178-1.578-.912-1.04-.732.537.179 1.578.912 1.04Zm7.376 6.76c.732-.536-.179-1.578-.912-1.04-.732.537.179 1.578.912 1.04ZM22.33 17.325c.732-.537-.18-1.578-.912-1.04-.733.536.178 1.578.912 1.04ZM11.945 20.41c.732-.536-.178-1.578-.912-1.04-.732.537.179 1.578.912 1.04Zm-.989-10.136c.732-.536-.178-1.578-.912-1.04-.732.537.179 1.578.912 1.04Zm-6.713 7.289c.732-.537-.179-1.578-.912-1.04-.732.536.178 1.577.912 1.04Zm2.466 11.214c.732-.537-.18-1.579-.912-1.04-.733.536.178 1.577.912 1.04Zm7.43-1.983c.732-.537-.179-1.579-.912-1.041-.732.537.179 1.578.912 1.04Zm8.504-.948c.732-.537-.179-1.578-.912-1.04-.732.536.179 1.578.912 1.04Zm18.653-9.95c.732-.537-.179-1.579-.912-1.04-.732.536.179 1.577.912 1.04ZM24.081 35.892c.732-.537-.18-1.578-.912-1.04-.733.536.178 1.578.912 1.04Zm9.403-9.182c.732-.537-.178-1.579-.912-1.041-.732.537.179 1.578.912 1.04Zm-3.313-8.33c.733-.537-.178-1.579-.912-1.041-.732.536.179 1.578.912 1.04Zm12.604-2.714c.732-.536-.18-1.578-.912-1.04-.733.537.178 1.578.912 1.04Zm-25.145 6.23c.732-.537-.178-1.578-.912-1.04-.732.536.179 1.577.912 1.04Zm2.15-9.792c.731-.537-.18-1.579-.913-1.04-.732.536.179 1.577.912 1.04ZM5.471 22.592c.733-.537-.178-1.578-.912-1.04-.732.536.18 1.577.912 1.04ZM30.235 35.67c.732-.537-.178-1.578-.912-1.04-.732.536.179 1.577.912 1.04Zm-9.567-5.308c.732-.537-.18-1.578-.912-1.041-.733.537.178 1.578.912 1.04Zm16.34-9.614c.732-.537-.178-1.578-.912-1.04-.732.536.179 1.578.912 1.04Zm-7.385-6.79c.732-.536-.179-1.577-.912-1.04-.732.537.179 1.578.912 1.04Zm5.273-11.583c.733-.537-.178-1.578-.912-1.04-.732.536.18 1.577.912 1.04ZM23.867 7.393c1.164-.853-.284-2.509-1.45-1.654-1.163.853.285 2.508 1.45 1.654Zm18.864 2.283c1.163-.853-.285-2.508-1.45-1.654-1.164.853.284 2.508 1.45 1.654ZM27.55 24.11c1.164-.853-.284-2.508-1.45-1.654-1.163.853.285 2.508 1.45 1.654ZM13.88 33.213c1.163-.853-.285-2.508-1.45-1.654-1.164.853.284 2.508 1.45 1.654ZM3.055 13.541c1.163-.853-.284-2.508-1.45-1.654-1.164.853.284 2.508 1.45 1.654Zm9.735 2.832c1.163-.853-.284-2.508-1.45-1.654-1.164.853.284 2.508 1.45 1.654ZM4.802 12.26c1.163-.853-.285-2.508-1.45-1.654-1.164.853.284 2.509 1.45 1.654Zm9.852 4.603c1.164-.853-.284-2.508-1.45-1.653-1.163.852.284 2.508 1.45 1.653ZM12.606 31.76c1.164-.853-.284-2.508-1.45-1.654-1.163.853.284 2.508 1.45 1.654Zm15.963-5.68c1.164-.853-.284-2.508-1.45-1.653-1.163.852.284 2.508 1.45 1.653ZM25.614 6.112c1.164-.853-.284-2.508-1.45-1.654-1.163.853.285 2.508 1.45 1.654Zm15.665 5.18c1.163-.852-.285-2.507-1.45-1.653-1.164.853.284 2.508 1.45 1.654ZM.764 18.853c.473-.348-.116-1.02-.59-.673-.473.347.116 1.02.59.672Zm5.554.6c.473-.347-.115-1.02-.59-.673-.473.347.116 1.02.59.673Zm-3.075 7.067c.474-.347-.115-1.02-.589-.673-.473.347.115 1.02.59.673Zm13.552 1.062c.474-.347-.115-1.02-.59-.673-.472.347.116 1.02.59.672Zm9.551 8.23c.474-.347-.115-1.02-.589-.673-.473.347.115 1.02.59.673Zm-1.948-7.83c.474-.347-.115-1.02-.589-.673-.473.347.116 1.02.59.673Zm10.86-2.02c.474-.347-.115-1.02-.59-.672-.472.347.116 1.02.59.672Zm1.026 4.972c.473-.346-.116-1.02-.59-.672-.473.347.116 1.02.59.672Zm6.583-12.55c.474-.347-.115-1.02-.59-.673-.472.347.117 1.02.59.673Zm-9.083-5.253c.473-.347-.116-1.02-.59-.672-.473.346.116 1.02.59.672ZM31.04 5.255c.473-.347-.115-1.02-.59-.673-.473.347.116 1.02.59.673Zm-4.204 10.433c.474-.347-.115-1.02-.59-.672-.473.347.116 1.02.59.672ZM12.79 20.344c.473-.347-.116-1.02-.59-.673-.473.347.116 1.02.59.673Zm8.153-6.53c.473-.347-.116-1.02-.59-.672-.473.347.116 1.02.59.672Zm-10.241-2.8c.473-.347-.116-1.02-.59-.673-.473.347.116 1.02.59.673Z" style="fill:#fff;mix-blend-mode:normal" transform="translate(56.692 53.643)"/><path d="m23.155.534.786-.078-.542.527a.133.133 0 0 0-.042.11l.086.72-.575-.494a.16.16 0 0 0-.125-.039l-.784.077.54-.526a.134.134 0 0 0 .044-.112L22.458 0l.574.498c.033.026.08.04.123.036Zm8.563 3.037-.963.522.36-.969a.2.2 0 0 0-.017-.167l-.575-.879 1.06.33c.06.018.128.011.184-.021l.96-.52-.357.967a.182.182 0 0 0 .02.17l.568.878-1.06-.33a.234.234 0 0 0-.18.02ZM21.392 9.346l-.963.523.36-.97a.2.2 0 0 0-.017-.166l-.575-.88 1.06.33c.06.018.128.011.184-.021l.96-.52-.357.967a.182.182 0 0 0 .02.17l.568.878-1.06-.33a.233.233 0 0 0-.18.02Zm9.732-.75.786-.078-.542.527a.133.133 0 0 0-.042.11l.086.72-.574-.494a.161.161 0 0 0-.126-.039l-.784.077.54-.526a.134.134 0 0 0 .044-.112l-.085-.719.574.498c.033.026.08.04.123.036Zm-22.22 1.683-.964.522.36-.97a.2.2 0 0 0-.017-.166l-.575-.88 1.06.33c.06.018.128.012.184-.02l.96-.52-.357.966a.182.182 0 0 0 .02.17l.568.878-1.06-.33a.233.233 0 0 0-.18.02Zm-7.708 3.059.786-.078-.542.527a.132.132 0 0 0-.042.11l.085.72-.574-.494a.16.16 0 0 0-.125-.039L0 14.161l.54-.526a.134.134 0 0 0 .044-.112l-.086-.719.574.498c.033.026.08.04.124.036Zm30.087 2.81-.963.523.36-.97a.2.2 0 0 0-.017-.167l-.575-.879 1.06.33c.06.018.128.011.184-.021l.96-.52-.357.967a.182.182 0 0 0 .02.17l.568.878-1.06-.33a.234.234 0 0 0-.18.02Zm-15.597 2.283.786-.078-.542.527a.132.132 0 0 0-.042.11l.086.72-.575-.494a.161.161 0 0 0-.125-.038l-.784.076.54-.525a.134.134 0 0 0 .044-.113l-.085-.719.574.498c.033.026.08.04.123.036Zm9.67 1.705.785-.078-.541.527a.132.132 0 0 0-.042.11l.085.72-.574-.494a.161.161 0 0 0-.126-.039l-.783.077.54-.526a.134.134 0 0 0 .043-.112l-.085-.719.574.497c.033.027.08.04.123.037ZM3.232 26.874l-.964.522.36-.97a.2.2 0 0 0-.016-.166l-.575-.88 1.06.33c.059.018.128.012.183-.02l.96-.521-.356.967c-.021.06-.016.12.019.17l.569.878-1.06-.33a.234.234 0 0 0-.18.02Zm18.814 3.498-.963.522.36-.969a.2.2 0 0 0-.017-.167l-.575-.879 1.06.33c.06.017.128.01.184-.022l.96-.52-.357.967a.182.182 0 0 0 .02.17l.568.878-1.06-.329a.233.233 0 0 0-.18.019Zm-7.607 2.986.785-.078-.541.527a.132.132 0 0 0-.042.11l.085.72-.574-.494a.16.16 0 0 0-.126-.039l-.783.077.54-.526a.134.134 0 0 0 .043-.112l-.085-.72.574.498c.033.027.08.04.123.037Z" style="fill:#fff;fill-rule:evenodd;mix-blend-mode:normal" transform="translate(62.706 53.677)"/><path d="M9.27.348c-.078 1.326-.66 2.672-1.578 3.725-1.057 1.064-2.345 1.89-3.845 2.254-1.259.305-2.714-.375-3.458-1.345.563-.69 1.199-1.334 1.896-1.916.52-.44 1.067-.845 1.615-1.253.084-.061.651-.403.572-.546-.122-.232-1.201.27-1.385.353-.64.285-1.246.644-1.808 1.043-.455.32-.881.672-1.279 1.045.154-.578.817-.956 1.368-1.315C2.155 1.88 2.9 1.283 3.06.364L3.061.35c2.014-.477 4.17-.456 6.208-.002Z" style="fill:#ffdeeb;fill-opacity:.3;mix-blend-mode:normal" transform="translate(61.871 60.136)"/><path d="M.176 3.196A11.94 11.94 0 0 1 1.192 0c1.181 1.94.593 4.553-.962 6.332-.056.058-.116.115-.174.17-.104-1.099-.063-2.214.12-3.306Z" style="fill:#ffdeeb;fill-opacity:.3;mix-blend-mode:normal" transform="translate(59.381 67.766)"/><path d="M2.463 8.143c.052.25.113.502.185.75A7.883 7.883 0 0 1 .55 10.05a13.467 13.467 0 0 1-.437-2.034A13.12 13.12 0 0 1 1.623.002C2.371-.022 3.121.15 3.664.6c.003.004.009.006.012.01A11.302 11.302 0 0 0 2.44 3.972a10.641 10.641 0 0 0 .024 4.171Z" style="fill:#ffdeeb;fill-opacity:.3;mix-blend-mode:normal" transform="translate(55.965 66.079)"/><path d="M6.631 1.34c.533 1.307 1.405 2.424 2.544 3.31-.15 1.207-.708 2.41-1.543 3.369C6.576 9.082 5.29 9.908 3.79 10.27c-.506.124-1.041.088-1.55-.062A18.203 18.203 0 0 1 0 7.49c.222-.488.811-.829 1.31-1.152.788-.513 1.53-1.109 1.692-2.03.152-.848-.319-1.62-.28-2.454.033-.732.638-1.25 1.332-1.531A4.55 4.55 0 0 1 6.229.03c.096.45.232.888.402 1.31Z" style="fill:#ffdeeb;fill-opacity:.3;mix-blend-mode:normal" transform="translate(58.555 72.975)"/><path d="M8.748 3.297a6.686 6.686 0 0 1-1.022 1.577C6.67 5.938 5.384 6.764 3.884 7.126c-1.43.346-3.108-.573-3.721-1.75a1.62 1.62 0 0 1-.102-.246c-.307-.958.612-1.465 1.34-1.938.791-.512 1.531-1.11 1.695-2.028C3.168.764 3.1.378 3.014 0c.97.269 1.908.65 2.793 1.138a13.981 13.981 0 0 1 2.94 2.16Z" style="fill:#ffdeeb;fill-opacity:.3;mix-blend-mode:normal" transform="translate(88.378 52.814)"/><path d="M9.42.726c-.065.21-.134.42-.204.627-.918 2.712-2.243 5.284-3.784 7.742a7.81 7.81 0 0 1-1.68.267c.428-.69.832-1.392 1.215-2.102.698-1.298 1.33-2.63 1.83-4.004.195-.54.41-1.103.477-1.672.016-.128.051-.391-.155-.27-.197.12-.34.419-.456.598-.247.383-.474.776-.703 1.171C5.242 4.318 4.537 5.56 3.8 6.784c-.495.824-1.01 1.64-1.536 2.448C1.086 8.852.155 7.706.014 6.608a1.414 1.414 0 0 1-.012-.26c.047-.996 1.093-1.208 1.951-1.444.925-.253 1.838-.601 2.314-1.424.44-.76.267-1.627.597-2.409C5.151.39 5.904.075 6.661.014 7.586-.06 8.681.16 9.42.726Z" style="fill:#ffdeeb;fill-opacity:.3;mix-blend-mode:normal" transform="translate(90.764 71.39)"/><path d="M8.983.146c.108.74-.02 1.512-.528 2.076-1.994 2.221-5.67 1.956-8.106.357-.117-.09-.236-.18-.349-.273.81-.588 1.703-1.08 2.653-1.462C4.687.03 6.873-.178 8.983.146Z" style="fill:#ffdeeb;fill-opacity:.3;mix-blend-mode:normal" transform="translate(80.882 52.339)"/><path d="M6.588 2.648c-1.013-.103-1.701-.75-2.3-1.444C3.734.56 3.133-.253 2.103.075c-.09.029-.178.064-.261.106C.585.8-.334 2.38.116 3.667c.473 1.352 1.44 2.485 2.654 3.397 2.433 1.598 6.11 1.864 8.104-.358.803-.895.66-2.313.119-3.3-.34-.62-.937-1.144-1.737-1.138-.914.007-1.733.474-2.668.38Z" style="fill:#ffdeeb;fill-opacity:.3;mix-blend-mode:normal" transform="translate(83.087 59.853)"/><path d="M10.992 3.407c.031.056.062.115.088.173-.447.52-.881 1.049-1.27 1.6-.072.102-.198.298-.131.334l-.02.034c-.078-.04-.387 0-.479.013-1.794.201-3.57.325-5.381.321a42.891 42.891 0 0 1-2.4-.072A6.488 6.488 0 0 1 .116 3.666C-.334 2.378.586.798 1.84.18a1.65 1.65 0 0 1 .263-.105c1.03-.329 1.63.487 2.186 1.129.598.695 1.285 1.34 2.3 1.444.934.095 1.753-.373 2.667-.38l.09.002-.209.309c-.163.243-.353.496-.455.769-.057.15-.052.256.145.173.452-.189.848-.632 1.186-.948.031-.029.064-.06.094-.091.383.21.68.55.886.925Z" style="fill:#ffdeeb;fill-opacity:.3;mix-blend-mode:normal" transform="translate(79.028 85.053)"/><path d="M4.947 1.14c.541.986.684 2.404-.12 3.298-.849.947-2.006 1.442-3.242 1.572A14.555 14.555 0 0 0 0 4.853c.024-.098.047-.197.075-.295C.47 3.093 1.17 1.708 2.219.535c.15-.165.303-.327.462-.485l.002-.002C2.856.018 3.033 0 3.21 0c.8-.006 1.395.52 1.737 1.14Z" style="fill:#ffdeeb;fill-opacity:.3;mix-blend-mode:normal" transform="translate(76.864 55.727)"/><path d="M3.609 1.523c-.551-.075-.913-.442-1.225-.833-.289-.361-.599-.817-1.17-.657-.049.014-.098.032-.144.053C.37.4-.168 1.246.049 1.959c.228.748.73 1.385 1.375 1.906 1.293.919 3.298 1.133 4.437-.044.458-.474.412-1.252.138-1.801-.172-.346-.486-.643-.924-.655-.5-.013-.957.227-1.466.158Z" style="fill:#ffdeeb;fill-opacity:.3;mix-blend-mode:normal" transform="translate(72.917 80.206)"/><path d="M2.468 1.486c-.158.46-.264.947-.002 1.395.243.415.728.608 1.014.983.25.326.176.735-.024 1.067-.32.53-.973 1.028-1.664.973A2.722 2.722 0 0 1 0 5.042C.852 3.88 1.409 2.51 1.576 1.14 1.62.763 1.64.38 1.638 0c.206.024.402.078.576.159.045.022.09.047.133.075.48.324.265.825.121 1.252Z" style="fill:#ffdeeb;fill-opacity:.3;mix-blend-mode:normal" transform="translate(81.253 70.304)"/><path d="M7.644 2.576a4.612 4.612 0 0 1-.272.75c-1.384 1.217-3.25 2-5.176 2.055a7.325 7.325 0 0 1-1.941-.2c-.272-.626-.316-1.39-.182-2.06.193-.784.671-1.514 1.345-2.07.413.11.856.113 1.293-.02A2.478 2.478 0 0 0 4.086.012L4.088.01a5.01 5.01 0 0 1 .938.03 4.69 4.69 0 0 1 1.022.237c1.046.448 1.79 1.224 1.596 2.299Z" style="fill:#ffdeeb;fill-opacity:.2;mix-blend-mode:normal" transform="translate(70.985 72.168)"/><path d="M7.746 3.108C7.146.9 4.824-.252 2.778.047 1.468.29.062 1.132.019 2.313c-.328 2.968 3.638 4.292 6.125 3.96 1.163-.233 1.673-1.155 1.74-2.21a3.736 3.736 0 0 0-.138-.955Z" style="fill:#ffdeeb;fill-opacity:.2;mix-blend-mode:normal" transform="translate(85.446 68.956)"/><path d="M1.997 5.99c2.289.89 4.693-.113 5.662-1.787.575-1.104.687-2.637-.318-3.379C4.946-1.202 1.403.898.197 2.914c-.496.99 0 1.917.881 2.601.272.184.58.344.919.475Z" style="fill:#ffdeeb;fill-opacity:.2;mix-blend-mode:normal" transform="translate(80.592 77.285)"/><path d="M3.77.014c-1 1.505-2.039 2.985-3.097 4.459a2.795 2.795 0 0 1-.654-2.16C.062 1.13 1.469.293 2.779.046c.325-.047.66-.058.991-.032Z" style="fill:#ffdeeb;fill-opacity:.2;mix-blend-mode:normal" transform="translate(88.722 81.423)"/><path d="M4.873.604c-.089.13-.179.258-.267.388a67.224 67.224 0 0 1-3.2 4.248c-.06.074-.123.148-.185.223A5.617 5.617 0 0 1 0 4.803 35.517 35.517 0 0 0 3.779 0c.39.15.76.352 1.094.604Z" style="fill:#ffdeeb;fill-opacity:.2;mix-blend-mode:normal" transform="translate(90.1 81.751)"/><path d="M.37.216c.395.26.736.6.99.988A9.647 9.647 0 0 1 .995.94 8.905 8.905 0 0 1 0 0c.128.065.251.137.37.216Z" style="fill:#ffdeeb;fill-opacity:.2;mix-blend-mode:normal" transform="translate(72.602 68.069)"/><path d="M9.07 6.554a6.34 6.34 0 0 1-.042 1.054c-1.389.242-3.23-.052-5.174-1.042C3.62 4.774 2.06 3.348.167 2.846L.03 2.81c-.06-.316-.03-.618.106-.896C.982.628 3.246-.32 5.8.102l.002.002c1.883 1.724 3.155 3.964 3.267 6.45Z" style="fill:#ffdeeb;fill-opacity:.2;mix-blend-mode:normal" transform="translate(71.62 63.61)"/><path d="M1.075 3.904C.991 2.56.607 1.227 0 0c1.373 1.218 1.557 2.833 1.075 3.904Z" style="fill:#ffdeeb;fill-opacity:.2;mix-blend-mode:normal" transform="translate(81.795 65.899)"/><path d="M11.183 6.338c-.061.1-.132.194-.211.282l-.186-.03C6.995 5.947 3.28 4.713.03 2.805c-.061-.312-.03-.614.107-.89 1.3-1.976 5.952-3.159 9.848.213 1.612 1.284 1.786 3.094 1.198 4.21Z" style="fill:#ffdeeb;fill-opacity:.2;mix-blend-mode:normal" transform="translate(65.232 83.78)"/><path d="m3.117 0 .002.002A11.808 11.808 0 0 1 4.44 3.518c.485 2.453.375 4.924-.15 7.339-2.495-.318-5.521-3.698-3.77-8.294A3.98 3.98 0 0 1 3.118 0Z" style="fill:#ffdeeb;fill-opacity:.2;mix-blend-mode:normal" transform="translate(96.429 59.217)"/><path d="M44.873 4.275C42.175 1.687 38.42-.022 34.466 0c-3.822.019-7.55 1.749-9.851 4.54-1.186 1.434-2.01 3.216-2.047 5.033-3.743-2.188-8.556-2.907-12.818-1.644-4.523 1.341-7.713 4.924-9.039 9.01-1.222 3.766-.835 7.801.898 11.378 2.068 4.271 5.901 7.543 10.381 9.685 4.186 2 8.938 3.014 13.647 3.137 2.2.056 4.453-.053 6.618-.438.817-.145 1.768-.303 2.49-.7.133-.07.152-.11.114-.128-.078-.04-.386 0-.478.013-1.794.201-3.571.325-5.382.32a41.188 41.188 0 0 1-6.808-.564c-4.718-.801-9.32-2.516-13.054-5.309-3.67-2.748-6.292-6.623-6.886-10.967-.598-4.38 1.178-9.39 5.185-12.046 3.157-2.093 7.351-2.388 10.993-1.272 4.4 1.354 8.236 4.99 8.434 9.388a6.655 6.655 0 0 1-1.9 4.922c-1.413 1.445-3.475 2.402-5.61 2.463-2.202.063-4.29-.836-5.554-2.5-1.243-1.638-1.926-4.18-.623-5.954 1.29-1.76 4.154-2.006 5.969-.81.94.62 1.575 1.7 1.479 2.773-.081.92-.933 1.74-1.998 1.5-.98-.219-1.523-1.068-1.809-1.881-.129-.37-.188.105-.184.271.014.434.195.864.45 1.226.59.85 1.704 1.354 2.787 1.025 1.11-.337 1.741-1.302 1.803-2.338.123-2.107-1.584-3.84-3.713-4.406-2.181-.576-4.697.073-6.065 1.774-1.406 1.745-1.333 4.127-.536 6.085.656 1.61 1.828 2.936 3.381 3.89 1.832 1.121 4.25 1.393 6.376.991a10.475 10.475 0 0 0 5.43-2.823c1.344-1.33 2.234-3.13 2.455-4.928.248-2.013-.24-4.085-1.218-5.894-1.087-2.002-2.74-3.7-4.746-4.97.023-.098.047-.196.075-.294.395-1.466 1.096-2.85 2.144-4.024 1.195-1.33 2.727-2.385 4.452-3.079 3.485-1.399 7.417-1.005 10.65.768 3.428 1.881 5.971 5.18 6.684 8.784.665 3.364.211 6.759-.89 10.008-1.202 3.553-3.103 6.866-5.274 10a67.23 67.23 0 0 1-3.2 4.248c-.878 1.08-1.871 2.11-2.668 3.243-.071.1-.197.297-.13.332.023.015.074.004.166-.04.52-.262.974-.695 1.4-1.06a37.32 37.32 0 0 0 3.204-3.134c2.546-2.782 4.808-5.853 6.54-9.12 1.727-3.266 2.996-6.862 3.163-10.511.158-3.402-.632-6.798-2.709-9.662a15.442 15.442 0 0 0-1.77-2.036ZM12.01 11.176l-.066.045c-.548.408-1.095.813-1.616 1.252-2.43 2.035-4.098 4.775-4.598 7.761a12.89 12.89 0 0 0-.11 3.435c.066.634.171 1.265.285 1.893.004.023.014.063.026.113.055.22.159.633.031.718-.208.14-.673-.838-.742-.989a8.552 8.552 0 0 1-.62-1.91 10.641 10.641 0 0 1-.023-4.17c.547-2.84 2.247-5.486 4.746-7.253.562-.4 1.167-.758 1.808-1.044l.03-.013c.247-.112 1.239-.561 1.355-.34.067.123-.333.388-.506.502Zm23.204 25.722c.304-.288.6-.586.889-.889 2.316-2.429 4.244-5.2 5.8-8.087.699-1.298 1.33-2.631 1.83-4.004.196-.54.411-1.104.478-1.672v-.008c.017-.13.047-.38-.155-.261-.198.118-.34.418-.456.597-.247.382-.474.776-.703 1.171-.718 1.234-1.423 2.476-2.16 3.7-1.7 2.825-3.593 5.535-5.53 8.227-.295.408-.59.816-.87 1.232-.163.243-.353.496-.455.769-.057.149-.052.256.145.173.453-.189.849-.632 1.187-.948Z" style="fill:#ba0000;fill-rule:evenodd;mix-blend-mode:normal" transform="translate(53.828 50.728)"/></g></svg>