<?xml version="1.0" encoding="utf-8"?>
<svg width="117" height="107" viewBox="0 0 117 107" fill="none" stroke="none" version="1.1" xmlns:xlink="http://www.w3.org/1999/xlink" xmlns="http://www.w3.org/2000/svg">
  <defs>
    <path id="path_1" d="M117 0L117 0L117 107L0 107L0 0L117 0Z" />
    <rect id="rect_2" x="0" y="0" width="117" height="107" />
    <clipPath id="clip_path_3">
      <use xlink:href="#rect_2" />
    </clipPath>
    <radialGradient id="gradient_4" gradientUnits="userSpaceOnUse" cx="0" cy="0" r="1" gradientTransform="matrix(22.163 0 0 20.268 23.479 18.988)">
      <stop offset="0" stop-color="#FE95BC" />
      <stop offset="0.166" stop-color="#FE8DB6" />
      <stop offset="0.419" stop-color="#FE78A6" />
      <stop offset="0.726" stop-color="#FF568B" />
      <stop offset="1" stop-color="#FF316F" />
    </radialGradient>
    <radialGradient id="gradient_5" gradientUnits="userSpaceOnUse" cx="0" cy="0" r="1" gradientTransform="matrix(17.286 -12.687 11.79 16.064 25.018 19.527)">
      <stop offset="0" stop-color="#FE95BC" />
      <stop offset="0.166" stop-color="#FE8DB6" />
      <stop offset="0.419" stop-color="#FE78A6" />
      <stop offset="0.726" stop-color="#FF568B" />
      <stop offset="1" stop-color="#FF316F" />
    </radialGradient>
  </defs>
  <g id="Love Heart" opacity="1" clip-path="url(#clip_path_3)">
    <g>
      <use xlink:href="#path_1" style="mix-blend-mode:normal;" />
      <g>
        <g id="Group" transform="translate(13.797 15.118)">
          <g id="Group">
            <path id="Shape" d="M46.9032 15.8925C46.7951 14.7398 46.5208 13.6022 46.0859 12.5254C45.7285 11.6386 45.2575 10.805 44.684 10.0399C44.3904 9.64209 44.0663 9.26454 43.7172 8.90989C42.2932 7.45052 40.4453 6.36104 38.301 5.83401C37.2981 5.58823 36.2647 5.46155 35.2314 5.45652C34.6247 5.45395 34.0179 5.49456 33.4168 5.57556C33.414 5.57556 33.414 5.57556 33.414 5.57556C33.1813 5.60856 32.9513 5.6465 32.7214 5.68962C31.1007 6.00628 29.6074 6.68536 28.297 7.60246C28.2083 7.66334 28.1225 7.72663 28.0366 7.78997C28.2305 8.38286 28.3802 8.98837 28.4827 9.59902C28.7542 11.1825 28.7181 12.8066 28.3414 14.3825C28.3109 14.5066 28.2804 14.6308 28.2471 14.755C28.2471 14.755 28.2471 14.76 28.2471 14.76C27.8814 16.0649 27.2692 17.324 26.4159 18.4211C26.4159 18.4211 26.4159 18.4236 26.4159 18.4236C26.3106 18.5604 26.2026 18.6947 26.089 18.824C25.8314 19.1229 25.5543 19.4092 25.2606 19.6778C24.194 20.6507 22.8227 21.4007 21.3627 21.8213C20.9056 21.953 20.4401 22.0544 19.9746 22.1177C17.8609 22.404 15.7137 22.1075 13.8077 21.2157C11.874 20.3137 10.1729 18.7176 9.51081 16.7945C9.40551 16.4879 9.31963 16.1763 9.25312 15.8647C8.97056 14.5218 9.05369 13.1512 9.53298 11.8261C9.68812 11.4004 9.88205 10.9799 10.1148 10.5744C10.9569 9.08976 12.3117 7.82293 14.1125 7.3846C16.2955 6.85255 18.6476 7.73423 19.9746 9.36336C20.0024 9.39883 20.0301 9.4343 20.0578 9.46982C21.1909 10.9443 21.4319 12.9484 20.3902 14.4813C20.2628 14.6714 20.1132 14.8563 19.9414 15.0311C19.5979 15.3833 19.174 15.6569 18.7086 15.814C18.7086 15.814 18.7086 15.814 18.7058 15.814C18.149 16.004 17.5339 16.0268 16.9355 15.8241C16.5033 15.6772 16.1598 15.4213 15.9132 15.0995C15.5475 14.6308 15.3896 14.0252 15.4617 13.4298C15.5115 13.0017 15.6639 12.5634 15.9493 12.2162C16.0601 12.0845 16.4313 11.7475 16.2789 12.1098C15.9465 12.9079 15.7886 13.8808 16.4036 14.6131C17.0713 15.4086 18.2958 15.2566 18.9884 14.5852C19.4566 14.1317 19.7364 13.5363 19.8278 12.9155C19.8278 12.913 19.8278 12.913 19.8278 12.913C19.8943 12.4645 19.8611 12.0034 19.7309 11.5753C19.6921 11.4461 19.645 11.3194 19.5896 11.1952C18.8166 9.42419 16.5864 8.19792 14.5197 8.79332C12.2895 9.43179 11.0844 11.8058 10.9348 13.7947C10.8295 15.2059 11.2922 16.5564 12.1814 17.656C12.5638 18.1298 13.0264 18.5579 13.5584 18.9228C15.0987 19.9818 17.0907 20.4379 19.0023 20.2808C19.21 20.2656 19.415 20.2403 19.6201 20.2098C21.1715 19.9717 22.6094 19.2699 23.7147 18.2539C23.9862 18.0082 24.2384 17.7395 24.4683 17.4558C26.0807 15.4517 26.6209 12.9763 26.33 10.5542C26.33 10.5542 26.33 10.5516 26.33 10.5516C26.1084 8.68942 25.3964 6.86015 24.3076 5.30704C24.0971 5.0106 23.8754 4.71924 23.6372 4.4405C22.3572 2.92035 20.6895 1.67129 18.7917 0.890885C17.5616 0.384186 16.2374 0.0725503 14.8605 0.0117204C12.9212 -0.0744143 11.004 0.318276 9.23375 1.05561C6.49379 2.19324 4.11401 4.15931 2.57645 6.44466C2.17748 7.0375 1.82566 7.65061 1.52643 8.28153C0.822739 9.73331 0.371177 11.2661 0.152329 12.8319C-0.00281298 13.9569 -0.0388489 15.0995 0.0414708 16.2346C0.105177 17.1417 0.240956 18.0487 0.448747 18.9405C0.645425 19.7893 0.89756 20.6229 1.19954 21.4438C2.42956 24.7907 4.48525 27.8792 7.00355 30.5496C7.04509 30.5927 7.08668 30.6358 7.12822 30.6788C8.05907 31.6594 9.05644 32.5841 10.1065 33.4557C10.6965 33.9498 11.3061 34.4236 11.9294 34.8847C13.3395 35.9234 14.8106 36.8432 16.3482 37.7122C16.4286 37.7553 16.6972 37.8997 16.7305 37.9757C16.7305 37.9757 16.7693 37.9605 16.7693 37.9605C16.7416 37.8946 16.9743 37.8135 17.099 37.7756C17.7805 37.5678 18.4814 37.4031 19.1851 37.2536C19.8251 37.1143 20.4678 36.985 21.1022 36.8406C21.202 36.8178 21.3017 36.7951 21.3986 36.7723C23.2188 36.339 25.0224 35.8475 26.801 35.2875C26.9589 35.2369 27.1168 35.1887 27.2747 35.1381C28.0255 34.8974 28.7708 34.6465 29.5077 34.378C32.3917 33.3417 35.1843 32.0926 37.7552 30.5015C37.9519 30.3799 38.1487 30.2558 38.3426 30.1291C38.9686 29.7236 39.5754 29.2955 40.1572 28.842C42.2184 27.2584 43.9942 25.3937 45.2935 23.2021C45.9418 22.1101 46.399 20.9243 46.6677 19.7031C46.6677 19.7031 46.6677 19.7006 46.6677 19.7006C46.9447 18.4515 47.0251 17.1619 46.9032 15.8926C46.9032 15.8926 46.9032 15.8925 46.9032 15.8925ZM4.32179 7.88879C5.03379 6.65492 6.01173 5.54265 7.15594 4.62042C8.13113 3.83755 9.2393 3.19143 10.4222 2.70501C11.5913 2.22613 12.8353 1.90182 14.1069 1.75994C14.6721 1.69659 15.2455 1.6662 15.819 1.67631C16.531 1.68648 17.2485 1.75234 17.9439 1.89673C18.1434 1.93729 19.3291 2.16279 19.2654 2.4136C19.2294 2.57073 18.5534 2.51246 18.4454 2.51246C17.7389 2.51749 17.0352 2.52001 16.3288 2.56564C15.3868 2.62139 14.4504 2.76076 13.539 2.9761C12.4529 3.2345 11.403 3.6044 10.4112 4.0782C9.33623 4.59254 8.33337 5.23358 7.43294 5.99114C6.54368 6.73854 5.74855 7.5848 5.07808 8.50195C5.05041 8.53742 5.02268 8.57289 4.99776 8.60836C4.61546 9.14042 4.26639 9.6927 3.92563 10.2476C3.85637 10.3591 3.59593 10.9368 3.402 10.9292C3.14436 10.919 3.44909 9.89033 3.49893 9.7333C3.6181 9.34056 3.77324 8.95547 3.9533 8.58049C4.06691 8.34487 4.19157 8.11429 4.32179 7.88879C4.32179 7.88879 4.32179 7.88879 4.32179 7.88879ZM36.0819 29.5717C35.6414 29.977 35.0873 30.2937 34.5665 30.6028C33.2367 31.3883 31.8321 32.0673 30.3998 32.6804C29.6157 33.0149 28.8206 33.3316 28.0144 33.6255C27.6238 33.7699 27.2304 33.9092 26.8342 34.041C24.8063 34.7225 22.7174 35.2673 20.6008 35.6271C20.5149 35.6448 20.429 35.6574 20.3431 35.6726C19.9553 35.736 19.5674 35.7942 19.1768 35.8399C19.1325 35.8475 19.0854 35.8525 19.041 35.8576C18.5618 35.9108 17.9495 36.0299 17.4675 35.9184C17.2569 35.8703 17.3262 35.7841 17.473 35.7005C17.739 35.5459 18.0603 35.4573 18.354 35.361C18.4786 35.3205 18.6033 35.2799 18.728 35.2394C18.728 35.2394 18.7308 35.2394 18.7308 35.2394C19.1103 35.1229 19.4926 35.0089 19.875 34.8974C20.0828 34.8365 20.2933 34.7732 20.5011 34.7098C22.3351 34.1651 24.158 33.6052 25.9671 33.0022C26.294 32.8932 26.6181 32.7843 26.9423 32.6728C27.9064 32.3434 28.865 32.0014 29.8152 31.6416C31.2281 31.107 32.6272 30.542 34.0318 29.9897C34.4806 29.8123 34.9267 29.635 35.381 29.4779C35.5943 29.4044 35.9102 29.2524 36.1456 29.2726C36.3895 29.2955 36.1817 29.4804 36.0819 29.5717C36.0819 29.5717 36.0819 29.5717 36.0819 29.5717Z" style="fill:url(#gradient_4);mix-blend-mode:normal;" transform="translate(1.96 2.053)" />
            <path id="Group" d="M3.76083 11.2314C4.69912 11.2314 4.70064 9.89782 3.76083 9.89782C2.82249 9.89782 2.82097 11.2314 3.76083 11.2314C3.76083 11.2314 3.76083 11.2314 3.76083 11.2314ZM22.5118 9.1118C23.4501 9.1118 23.4516 7.77826 22.5118 7.77826C21.5735 7.77826 21.572 9.1118 22.5118 9.1118C22.5118 9.1118 22.5118 9.1118 22.5118 9.1118ZM15.5467 18.1336C16.485 18.1336 16.4866 16.8 15.5467 16.8C14.6084 16.8 14.6069 18.1336 15.5467 18.1336C15.5467 18.1336 15.5467 18.1336 15.5467 18.1336ZM10.3031 26.4977C11.2414 26.4977 11.2429 25.1642 10.3031 25.1642C9.36485 25.1642 9.36327 26.4977 10.3031 26.4977C10.3031 26.4977 10.3031 26.4977 10.3031 26.4977ZM16.354 33.7213C17.2923 33.7213 17.2938 32.3877 16.354 32.3877C15.4157 32.3877 15.4142 33.7213 16.354 33.7213C16.354 33.7213 16.354 33.7213 16.354 33.7213ZM30.0429 27.9969C30.9812 27.9969 30.9828 26.6634 30.0429 26.6634C29.1046 26.6634 29.1031 27.9969 30.0429 27.9969C30.0429 27.9969 30.0429 27.9969 30.0429 27.9969ZM30.7473 18.6232C31.6855 18.6232 31.6871 17.2896 30.7473 17.2896C29.8089 17.2896 29.8074 18.6232 30.7473 18.6232C30.7473 18.6232 30.7473 18.6232 30.7473 18.6232ZM40.5456 11.8982C41.4839 11.8982 41.4855 10.5646 40.5456 10.5646C39.6073 10.5646 39.6058 11.8982 40.5456 11.8982C40.5456 11.8982 40.5456 11.8982 40.5456 11.8982ZM35.9832 5.93732C36.9215 5.93732 36.9231 4.60373 35.9832 4.60373C35.0449 4.60373 35.0434 5.93732 35.9832 5.93732C35.9832 5.93732 35.9832 5.93732 35.9832 5.93732ZM37.115 15.4307C38.0533 15.4307 38.0548 14.0972 37.115 14.0972C36.1767 14.0972 36.1752 15.4307 37.115 15.4307C37.115 15.4307 37.115 15.4307 37.115 15.4307ZM21.6349 16.0976C22.5732 16.0976 22.5747 14.764 21.6349 14.764C20.6966 14.764 20.695 16.0976 21.6349 16.0976C21.6349 16.0976 21.6349 16.0976 21.6349 16.0976ZM11.4225 12.565C12.3608 12.565 12.3623 11.2314 11.4225 11.2314C10.4842 11.2314 10.4826 12.565 11.4225 12.565C11.4225 12.565 11.4225 12.565 11.4225 12.565ZM17.5828 4.09077C18.5211 4.09077 18.5227 2.75723 17.5828 2.75723C16.6445 2.75723 16.643 4.09077 17.5828 4.09077C17.5828 4.09077 17.5828 4.09077 17.5828 4.09077ZM7.35997 5.93732C8.29825 5.93732 8.29983 4.60373 7.35997 4.60373C6.42168 4.60373 6.42016 5.93732 7.35997 5.93732C7.35997 5.93732 7.35997 5.93732 7.35997 5.93732ZM1.61474 16.0976C2.55302 16.0976 2.55454 14.764 1.61474 14.764C0.676458 14.764 0.674879 16.0976 1.61474 16.0976C1.61474 16.0976 1.61474 16.0976 1.61474 16.0976ZM8.76857 18.8003C9.70685 18.8003 9.70844 17.4667 8.76857 17.4667C7.83029 17.4667 7.82871 18.8003 8.76857 18.8003C8.76857 18.8003 8.76857 18.8003 8.76857 18.8003ZM16.052 22.9254C16.9903 22.9254 16.9918 21.5918 16.052 21.5918C15.1137 21.5918 15.1122 22.9254 16.052 22.9254C16.052 22.9254 16.052 22.9254 16.052 22.9254ZM37.4115 25.8309C38.3498 25.8309 38.3513 24.4974 37.4115 24.4974C36.4732 24.4974 36.4717 25.8309 37.4115 25.8309C37.4115 25.8309 37.4115 25.8309 37.4115 25.8309ZM10.3031 31.5862C11.2414 31.5862 11.2429 30.2526 10.3031 30.2526C9.36485 30.2526 9.36327 31.5862 10.3031 31.5862C10.3031 31.5862 10.3031 31.5862 10.3031 31.5862ZM23.9204 29.8003C24.8587 29.8003 24.8602 28.4667 23.9204 28.4667C22.9821 28.4667 22.9806 29.8003 23.9204 29.8003C23.9204 29.8003 23.9204 29.8003 23.9204 29.8003ZM27.0327 21.4055C27.971 21.4055 27.9725 20.0719 27.0327 20.0719C26.0944 20.0719 26.0928 21.4055 27.0327 21.4055C27.0327 21.4055 27.0327 21.4055 27.0327 21.4055ZM38.7219 26.4977C39.6602 26.4977 39.6618 25.1642 38.7219 25.1642C37.7836 25.1642 37.7821 26.4977 38.7219 26.4977C38.7219 26.4977 38.7219 26.4977 38.7219 26.4977ZM14.8424 16.9759C15.7807 16.9759 15.7823 15.6423 14.8424 15.6423C13.9041 15.6423 13.9026 16.9759 14.8424 16.9759C14.8424 16.9759 14.8424 16.9759 14.8424 16.9759ZM23.2161 10.5646C24.1544 10.5646 24.156 9.23105 23.2161 9.23105C22.2778 9.23105 22.2762 10.5646 23.2161 10.5646C23.2161 10.5646 23.2161 10.5646 23.2161 10.5646ZM4.8802 10.5646C5.81849 10.5646 5.82001 9.23105 4.8802 9.23105C3.94186 9.23105 3.94034 10.5646 4.8802 10.5646C4.8802 10.5646 4.8802 10.5646 4.8802 10.5646ZM15.2576 34.9331C16.1958 34.9331 16.1974 33.5995 15.2576 33.5995C14.3193 33.5995 14.3177 34.9331 15.2576 34.9331C15.2576 34.9331 15.2576 34.9331 15.2576 34.9331ZM11.4225 25.3188C12.3608 25.3188 12.3623 23.9852 11.4225 23.9852C10.4842 23.9852 10.4826 25.3188 11.4225 25.3188C11.4225 25.3188 11.4225 25.3188 11.4225 25.3188ZM30.7473 27.1645C31.6855 27.1645 31.6871 25.8309 30.7473 25.8309C29.8089 25.8309 29.8074 27.1645 30.7473 27.1645C30.7473 27.1645 30.7473 27.1645 30.7473 27.1645ZM29.6279 17.6427C30.5662 17.6427 30.5677 16.3091 29.6279 16.3091C28.6896 16.3091 28.688 17.6427 29.6279 17.6427C29.6279 17.6427 29.6279 17.6427 29.6279 17.6427ZM41.665 11.6205C42.6033 11.6205 42.6049 10.2869 41.665 10.2869C40.7267 10.2869 40.7251 11.6205 41.665 11.6205C41.665 11.6205 41.665 11.6205 41.665 11.6205ZM29.6279 9.22714C31.1191 9.22714 31.1216 7.10758 29.6279 7.10758C28.1365 7.10758 28.1341 9.22714 29.6279 9.22714C29.6279 9.22714 29.6279 9.22714 29.6279 9.22714ZM42.7844 21.7985C44.2757 21.7985 44.2782 19.6789 42.7844 19.6789C41.2931 19.6789 41.2906 21.7985 42.7844 21.7985C42.7844 21.7985 42.7844 21.7985 42.7844 21.7985ZM21.069 24.3782C22.5603 24.3782 22.5628 22.2586 21.069 22.2586C19.5777 22.2586 19.5752 24.3782 21.069 24.3782C21.069 24.3782 21.069 24.3782 21.069 24.3782ZM4.17589 23.6608C5.66723 23.6608 5.66969 21.5412 4.17589 21.5412C2.68461 21.5412 2.68215 23.6608 4.17589 23.6608C4.17589 23.6608 4.17589 23.6608 4.17589 23.6608ZM9.1837 2.11956C10.675 2.11956 10.6774 0 9.1837 0C7.69236 0 7.6899 2.11956 9.1837 2.11956C9.1837 2.11956 9.1837 2.11956 9.1837 2.11956ZM14.8424 9.89782C16.3337 9.89782 16.3362 7.77826 14.8424 7.77826C13.3511 7.77826 13.3487 9.89782 14.8424 9.89782C14.8424 9.89782 14.8424 9.89782 14.8424 9.89782ZM11.4225 2.11956C12.9138 2.11956 12.9162 0 11.4225 0C9.93115 0 9.92869 2.11956 11.4225 2.11956C11.4225 2.11956 11.4225 2.11956 11.4225 2.11956ZM15.9618 11.3467C17.4531 11.3467 17.4556 9.22714 15.9618 9.22714C14.4705 9.22714 14.4681 11.3467 15.9618 11.3467C15.9618 11.3467 15.9618 11.3467 15.9618 11.3467ZM4.17589 21.7985C5.66723 21.7985 5.66969 19.6789 4.17589 19.6789C2.68461 19.6789 2.68215 21.7985 4.17589 21.7985C4.17589 21.7985 4.17589 21.7985 4.17589 21.7985ZM20.5155 26.4977C22.0068 26.4977 22.0093 24.3782 20.5155 24.3782C19.0242 24.3782 19.0217 26.4977 20.5155 26.4977C20.5155 26.4977 20.5155 26.4977 20.5155 26.4977ZM31.8667 9.22714C33.3579 9.22714 33.3604 7.10758 31.8667 7.10758C30.3753 7.10758 30.3729 9.22714 31.8667 9.22714C31.8667 9.22714 31.8667 9.22714 31.8667 9.22714ZM40.5456 22.2295C42.0369 22.2295 42.0393 20.1099 40.5456 20.1099C39.0543 20.1099 39.0518 22.2295 40.5456 22.2295C40.5456 22.2295 40.5456 22.2295 40.5456 22.2295ZM3.76446 4.95276C4.37093 4.95276 4.37193 4.09077 3.76446 4.09077C3.15799 4.09077 3.157 4.95276 3.76446 4.95276C3.76446 4.95276 3.76446 4.95276 3.76446 4.95276ZM7.68744 8.59836C8.29391 8.59836 8.29491 7.73642 7.68744 7.73642C7.08097 7.73642 7.07998 8.59836 7.68744 8.59836C7.68744 8.59836 7.68744 8.59836 7.68744 8.59836ZM0.455225 12.3537C1.06169 12.3537 1.06269 11.4918 0.455225 11.4918C-0.151244 11.4918 -0.152239 12.3537 0.455225 12.3537C0.455225 12.3537 0.455225 12.3537 0.455225 12.3537ZM10.3031 20.9339C10.9095 20.9339 10.9106 20.0719 10.3031 20.0719C9.69663 20.0719 9.69564 20.9339 10.3031 20.9339C10.3031 20.9339 10.3031 20.9339 10.3031 20.9339ZM12.1268 32.8187C12.7333 32.8187 12.7343 31.9567 12.1268 31.9567C11.5203 31.9567 11.5194 32.8187 12.1268 32.8187C12.1268 32.8187 12.1268 32.8187 12.1268 32.8187ZM15.9618 25.5951C16.5683 25.5951 16.5693 24.7332 15.9618 24.7332C15.3553 24.7332 15.3544 25.5951 15.9618 25.5951C15.9618 25.5951 15.9618 25.5951 15.9618 25.5951ZM25.8164 30.2313C26.4229 30.2313 26.4239 29.3693 25.8164 29.3693C25.21 29.3693 25.209 30.2313 25.8164 30.2313C25.8164 30.2313 25.8164 30.2313 25.8164 30.2313ZM23.2161 34.6973C23.8226 34.6973 23.8236 33.8353 23.2161 33.8353C22.6097 33.8353 22.6087 34.6973 23.2161 34.6973C23.2161 34.6973 23.2161 34.6973 23.2161 34.6973ZM36.9365 28.6704C37.5429 28.6704 37.5439 27.8084 36.9365 27.8084C36.3301 27.8084 36.329 28.6704 36.9365 28.6704C36.9365 28.6704 36.9365 28.6704 36.9365 28.6704ZM33.4412 19.3761C34.0477 19.3761 34.0487 18.5142 33.4412 18.5142C32.8348 18.5142 32.8338 19.3761 33.4412 19.3761C33.4412 19.3761 33.4412 19.3761 33.4412 19.3761ZM36.6876 11.6624C37.294 11.6624 37.295 10.8004 36.6876 10.8004C36.0811 10.8004 36.0801 11.6624 36.6876 11.6624C36.6876 11.6624 36.6876 11.6624 36.6876 11.6624ZM26.2717 17.3987C26.8782 17.3987 26.8791 16.5367 26.2717 16.5367C25.6652 16.5367 25.6642 17.3987 26.2717 17.3987C26.2717 17.3987 26.2717 17.3987 26.2717 17.3987ZM12.1268 12.996C12.7333 12.996 12.7343 12.134 12.1268 12.134C11.5203 12.134 11.5194 12.996 12.1268 12.996C12.1268 12.996 12.1268 12.996 12.1268 12.996ZM22.9539 12.565C23.5604 12.565 23.5614 11.703 22.9539 11.703C22.3474 11.703 22.3465 12.565 22.9539 12.565C22.9539 12.565 22.9539 12.565 22.9539 12.565ZM16.8786 4.52177C17.485 4.52177 17.486 3.65983 16.8786 3.65983C16.2721 3.65983 16.2711 4.52177 16.8786 4.52177C16.8786 4.52177 16.8786 4.52177 16.8786 4.52177Z" style="fill:#FFFFFF;mix-blend-mode:normal;" transform="translate(2.941 3.085)" />
            <path id="Group" d="M8.77687 0.815447L9.44347 1.20402L8.66022 1.30545C8.61687 1.30978 8.57592 1.33391 8.55182 1.36783L8.12694 1.97746L8.01637 1.26399C8.01134 1.22151 7.98525 1.18689 7.94471 1.16234L7.2812 0.773448L8.06141 0.672387C8.10781 0.667734 8.14876 0.643551 8.17286 0.609632L8.59774 0L8.70556 0.716633C8.71339 0.755956 8.73978 0.793406 8.77687 0.815447ZM16.8828 2.83716L15.7737 2.69362L16.7176 2.14337C16.7701 2.11218 16.8075 2.05917 16.8186 2.00347L16.9713 0.988734L17.5729 1.85196C17.607 1.9 17.665 1.93419 17.7307 1.94077L18.8354 2.08393L17.8959 2.63456C17.8385 2.66933 17.8016 2.71839 17.7944 2.77847L17.6379 3.78877L17.0363 2.92554C17.0021 2.8775 16.9442 2.84331 16.8828 2.83716ZM34.6676 3.3858L35.3343 3.77432L34.551 3.87575C34.5076 3.88008 34.4667 3.90421 34.4426 3.93813L34.0177 4.54776L33.9072 3.83429C33.9021 3.79186 33.876 3.75719 33.8355 3.73264L33.172 3.34375L33.9522 3.24269C33.9986 3.23803 34.0395 3.2139 34.0636 3.17993L34.4885 2.57035L34.5963 3.28698C34.6042 3.32625 34.6306 3.3637 34.6676 3.3858ZM27.2653 9.25363L26.1563 9.11003L27.1001 8.55984C27.1526 8.5286 27.19 8.47558 27.2011 8.41994L27.3538 7.4052L27.9554 8.26842C27.9896 8.31641 28.0475 8.35065 28.1132 8.35723L29.2179 8.50035L28.2784 9.05097C28.221 9.0858 28.1841 9.1348 28.1769 9.19494L28.0204 10.2052L27.4188 9.34201C27.3847 9.29396 27.3267 9.25978 27.2653 9.25363ZM39.2718 10.6536L38.1627 10.51L39.1066 9.95983C39.1591 9.92858 39.1965 9.87556 39.2076 9.81992L39.3602 8.80519L39.9618 9.66841C39.996 9.71645 40.054 9.75064 40.1197 9.75722L41.2244 9.90033L40.2849 10.451C40.2275 10.4858 40.1906 10.5348 40.1834 10.5949L40.0269 11.6052L39.4253 10.742C39.3911 10.694 39.3331 10.6598 39.2718 10.6536ZM1.1091 12.5422L0 12.3986L0.943897 11.8484C0.996431 11.8172 1.03381 11.7642 1.04493 11.7085L1.19749 10.6938L1.79911 11.557C1.83327 11.605 1.89125 11.6392 1.957 11.6458L3.06171 11.7889L2.1222 12.3396C2.06482 12.3744 2.0279 12.4234 2.02071 12.4835L1.86416 13.4938L1.26255 12.6305C1.22838 12.5826 1.17041 12.5483 1.1091 12.5422ZM16.5997 13.0781L17.2663 13.4667L16.483 13.5681C16.4397 13.5724 16.3988 13.5966 16.3746 13.6305L15.9498 14.2402L15.8392 13.5267C15.8341 13.4842 15.8081 13.4496 15.7676 13.425L15.1041 13.0361L15.8842 12.935C15.9306 12.9304 15.9716 12.9062 15.9957 12.8723L16.4206 12.2627L16.5284 12.9793C16.5362 13.0186 16.5626 13.0561 16.5997 13.0781ZM35.3719 14.2346L36.0385 14.6232L35.2553 14.7245C35.212 14.7289 35.171 14.7531 35.1469 14.787L34.722 15.3966L34.6115 14.6831C34.6064 14.6407 34.5803 14.606 34.5398 14.5814L33.8763 14.1926L34.6565 14.0915C34.7029 14.0868 34.7438 14.0627 34.768 14.0288L35.1929 13.4191L35.3006 14.1358C35.3085 14.1751 35.3348 14.2125 35.3719 14.2346ZM30.3306 20.2182L29.2216 20.0747L30.1655 19.5245C30.218 19.4933 30.2554 19.4402 30.2665 19.3846L30.4191 18.3698L31.0207 19.233C31.0549 19.2811 31.1129 19.3153 31.1786 19.3219L32.2833 19.465L31.3437 20.0156C31.2864 20.0504 31.2495 20.0995 31.2422 20.1596L31.0858 21.1698L30.4841 20.3066C30.45 20.2586 30.392 20.2244 30.3306 20.2182ZM22.9785 19.939L23.6451 20.3276L22.8618 20.429C22.8185 20.4333 22.7775 20.4574 22.7534 20.4914L22.3285 21.101L22.218 20.3875C22.2129 20.3451 22.1869 20.3105 22.1463 20.2859L21.4828 19.897L22.263 19.7959C22.3094 19.7913 22.3504 19.7671 22.3745 19.7332L22.7994 19.1236L22.9071 19.8402C22.915 19.8795 22.9414 19.9169 22.9785 19.939ZM5.41871 24.0117L6.08531 24.4002L5.30206 24.5016C5.25871 24.506 5.21776 24.5301 5.19366 24.564L4.76877 25.1737L4.65821 24.4602C4.65312 24.4177 4.62709 24.3831 4.58654 24.3586L3.92304 23.9697L4.70319 23.8685C4.74964 23.8639 4.79059 23.8398 4.81469 23.8058L5.23958 23.1962L5.34734 23.9128C5.35518 23.9522 5.38162 23.9896 5.41871 24.0117ZM13.3966 26.0334L12.2876 25.8898L13.2314 25.3396C13.2839 25.3083 13.3213 25.2553 13.3324 25.1997L13.4851 24.1849L14.0867 25.0482C14.1208 25.0962 14.1788 25.1304 14.2445 25.137L15.3492 25.2801L14.4097 25.8307C14.3523 25.8655 14.3154 25.9145 14.3082 25.9747L14.1517 26.9849L13.5501 26.1217C13.516 26.0737 13.458 26.0395 13.3966 26.0334Z" style="fill:#FFFFFF;fill-rule:evenodd;mix-blend-mode:normal;" transform="translate(6.706 6.633)" />
            <g id="Group" transform="translate(1.96 2.944)">
              <path id="Path" d="M10.1051 3.54962C9.13818 4.54033 7.76407 5.25728 6.32626 5.55378C4.77478 5.77923 3.20394 5.68801 1.78549 5.11289C0.594255 4.63149 -0.0762119 3.26842 0.006917 2.08521C0.918346 1.86988 1.85476 1.73051 2.79672 1.67476C3.50317 1.62913 4.20687 1.62661 4.91331 1.62158C5.02136 1.62158 5.69733 1.67984 5.73336 1.52272C5.79707 1.27191 4.61133 1.04641 4.41185 1.00585C3.71646 0.861456 2.99896 0.795598 2.28695 0.785434C1.71348 0.775322 1.14 0.80571 0.574834 0.869054C1.0901 0.506752 1.86587 0.590373 2.54184 0.625843C3.50598 0.676507 4.49498 0.635955 5.24852 0.0101655C5.25132 0.00759813 5.25682 0.00251434 5.25963 0C7.15737 0.780403 8.82515 2.02947 10.1051 3.54962C10.1051 3.54962 10.1051 3.54962 10.1051 3.54962Z" style="fill:#FFDEEB;fill-opacity:0.3;mix-blend-mode:normal;" transform="translate(13.532 0)" />
              <path id="Path" d="M2.35486 1.91295C3.25529 1.15539 4.25816 0.514349 5.33309 0C4.92863 2.18906 2.68182 3.8917 0.252135 4.3908C0.169005 4.40348 0.0831294 4.41359 0 4.42375C0.670468 3.5066 1.4656 2.66034 2.35486 1.91295C2.35486 1.91295 2.35486 1.91295 2.35486 1.91295Z" style="fill:#FFDEEB;fill-opacity:0.3;mix-blend-mode:normal;" transform="translate(5.078 3.187)" />
              <path id="Path" d="M2.79537 6.83318C2.66514 7.05868 2.54048 7.28927 2.42687 7.52488C1.60132 7.54008 0.784017 7.44634 0 7.22592C0.299227 6.595 0.651046 5.98189 1.05002 5.38906C2.58757 3.1037 4.96735 1.13763 7.70732 0C8.30852 0.410399 8.7767 0.972898 8.89305 1.63416C8.89305 1.63924 8.8958 1.64432 8.8958 1.6494C7.71288 2.13583 6.60471 2.78195 5.62951 3.56481C4.48531 4.48704 3.50737 5.59931 2.79537 6.83318C2.79537 6.83318 2.79537 6.83318 2.79537 6.83318Z" style="fill:#FFDEEB;fill-opacity:0.3;mix-blend-mode:normal;" transform="translate(1.526 0.165)" />
              <path id="Path" d="M9.53298 2.35701C9.05369 3.68209 8.97056 5.05276 9.25311 6.39561C8.31121 7.25199 7.0534 7.87023 5.74581 8.14126C4.19433 8.36682 2.62629 8.27555 1.20784 7.70043C0.728554 7.50788 0.335141 7.17345 0.0414716 6.76551C-0.0388492 5.63046 -0.00281337 4.4878 0.15233 3.36286C0.65929 3.10948 1.35187 3.18048 1.96138 3.21338C2.92827 3.26404 3.91452 3.22349 4.67087 2.5977C5.36901 2.02258 5.52971 1.15101 6.13085 0.522652C6.65724 -0.0296812 7.48285 -0.087944 8.21702 0.0894089C8.89299 0.25665 9.60219 0.6113 10.1148 1.10537C9.88205 1.5108 9.68812 1.93136 9.53298 2.35701C9.53298 2.35701 9.53298 2.35701 9.53298 2.35701Z" style="fill:#FFDEEB;fill-opacity:0.3;mix-blend-mode:normal;" transform="translate(0 8.578)" />
              <path id="Path" d="M8.2011 5.85269C7.61101 6.14405 6.97377 6.36447 6.32553 6.49875C4.77405 6.72426 3.20602 6.63304 1.78756 6.05791C0.435566 5.51066 -0.245953 3.83338 0.0810013 2.56404C0.103119 2.47791 0.133591 2.39429 0.169628 2.31318C0.585213 1.39095 1.64904 1.5202 2.5411 1.5683C3.50799 1.62148 4.49424 1.57846 5.25059 0.95519C5.58023 0.684051 5.79084 0.344594 5.98195 0C6.55543 0.765157 7.02641 1.59874 7.38379 2.4855C7.81874 3.5623 8.09305 4.69992 8.2011 5.85269C8.2011 5.85269 8.2011 5.85269 8.2011 5.85269Z" style="fill:#FFDEEB;fill-opacity:0.3;mix-blend-mode:normal;" transform="translate(38.702 9.149)" />
              <path id="Path" d="M11.8688 2.5349C11.6749 2.66159 11.4782 2.78571 11.2815 2.90731C8.71054 4.49846 5.91792 5.74752 3.03394 6.78382C2.5048 6.58619 2.00615 6.33789 1.54067 6.03129C2.34686 5.73741 3.14199 5.42069 3.926 5.08626C5.35832 4.4731 6.76296 3.79413 8.09272 3.00864C8.61354 2.69958 9.16766 2.38285 9.60817 1.97749C9.70791 1.88627 9.9157 1.70132 9.67187 1.67847C9.43641 1.65825 9.12057 1.81025 8.90722 1.88375C8.45291 2.04083 8.00685 2.21818 7.55804 2.39553C6.15345 2.94787 4.75436 3.51283 3.34147 4.04745C2.3912 4.40724 1.43262 4.74926 0.468536 5.07866C-0.190815 4.10828 -0.132668 2.68181 0.507322 1.74438C0.557163 1.67087 0.612564 1.59999 0.676331 1.53407C1.39383 0.784111 2.35522 1.21741 3.18633 1.52397C4.08115 1.85588 5.03142 2.10669 5.96502 1.73679C6.82941 1.39476 7.28654 0.619438 8.07886 0.198874C8.76869 -0.16851 9.57213 0.0164375 10.2038 0.401585C10.9768 0.872812 11.6804 1.67087 11.8688 2.5349C11.8688 2.5349 11.8688 2.5349 11.8688 2.5349Z" style="fill:#FFDEEB;fill-opacity:0.3;mix-blend-mode:normal;" transform="translate(26.474 26.703)" />
              <path id="Path" d="M8.48584 3.45337C8.06469 4.09184 7.43582 4.62133 6.65455 4.77081C3.57938 5.3637 0.892063 3.05303 0.0858765 0.41302C0.055397 0.276167 0.0249176 0.136799 0 0C1.03334 0.00502872 2.06675 0.131717 3.06961 0.377496C5.21393 0.904525 7.06183 1.994 8.48584 3.45337C8.48584 3.45337 8.48584 3.45337 8.48584 3.45337Z" style="fill:#FFDEEB;fill-opacity:0.3;mix-blend-mode:normal;" transform="translate(35.231 4.566)" />
              <path id="Path" d="M6.21132 4.68495C5.49101 4.02583 5.39642 3.12698 5.40402 2.24241C5.4111 1.42407 5.49879 0.445343 4.47083 0.111984C4.38103 0.0828791 4.28849 0.0607853 4.19477 0.0450029C2.79089 -0.190772 0.993477 0.516444 0.464342 1.77798C-0.0915852 3.10333 -0.112469 4.54039 0.212091 5.94654C1.01711 8.58548 3.70501 10.8967 6.78018 10.3031C8.01833 10.0641 8.87705 8.87588 9.12901 7.79668C9.28743 7.11808 9.18084 6.36812 8.55243 5.91503C7.83429 5.39726 6.87629 5.29352 6.21132 4.68496C6.21132 4.68496 6.21132 4.68495 6.21132 4.68495Z" style="fill:#FFDEEB;fill-opacity:0.3;mix-blend-mode:normal;" transform="translate(30.509 11.04)" />
              <path id="Path" d="M9.12856 7.79788C9.11469 7.85871 9.09808 7.92205 9.07871 7.98283C8.37502 8.13237 7.67407 8.29698 6.99254 8.50478C6.86788 8.54276 6.63517 8.62387 6.6629 8.68973C6.6629 8.68973 6.62411 8.70492 6.62411 8.70492C6.59082 8.6289 6.32213 8.4845 6.24176 8.44143C4.7042 7.57243 3.2331 6.65266 1.82296 5.6139C1.19964 5.15279 0.59013 4.67899 4.00543e-05 4.18492C-0.00276756 3.36401 0.141318 2.55076 0.465466 1.77795C0.994598 0.516211 2.7926 -0.190689 4.19443 0.0449829C4.28862 0.0601749 4.3828 0.0829678 4.47149 0.113409C5.49927 0.445269 5.41065 1.42582 5.40509 2.24415C5.39678 3.1284 5.49097 4.02533 6.21128 4.68659C6.87619 5.29467 7.83477 5.39851 8.55233 5.91543C8.57725 5.93314 8.59943 5.95085 8.6216 5.96861C8.49688 6.00916 8.37221 6.04972 8.24755 6.09022C7.95388 6.18652 7.63254 6.27517 7.36654 6.42973C7.21976 6.51335 7.1505 6.59948 7.36104 6.64758C7.84308 6.75913 8.45534 6.64004 8.93463 6.5868C8.97897 6.58172 9.02607 6.57669 9.07035 6.5691C9.22549 6.95168 9.22549 7.38749 9.12856 7.79789C9.12856 7.79789 9.12856 7.79788 9.12856 7.79788Z" style="fill:#FFDEEB;fill-opacity:0.3;mix-blend-mode:normal;" transform="translate(10.106 28.38)" />
              <path id="Path" d="M6.39966 2.14604C6.14759 3.22535 5.28875 4.41364 4.05036 4.65177C2.73997 4.90515 1.49883 4.62898 0.44606 4.02347C0.343569 3.41282 0.193926 2.8073 0 2.21442C0.0858765 2.15107 0.171757 2.08778 0.260441 2.0269C1.57084 1.10981 3.06411 0.430728 4.6848 0.114062C4.91476 0.0709405 5.14467 0.0330091 5.37738 0C5.37738 0 5.38019 0 5.38019 0C5.53533 0.0760241 5.68491 0.162212 5.82344 0.263541C6.45231 0.717059 6.55761 1.46702 6.39966 2.14604C6.39966 2.14604 6.39966 2.14604 6.39966 2.14604Z" style="fill:#FFDEEB;fill-opacity:0.3;mix-blend-mode:normal;" transform="translate(28.037 4.685)" />
              <path id="Path" d="M3.38625 2.60968C3.00729 2.23598 2.97564 1.74297 2.99957 1.25966C3.02168 0.812611 3.09147 0.279325 2.53712 0.0779495C2.48869 0.0603485 2.43861 0.0465431 2.38771 0.0361633C1.62569 -0.118879 0.627625 0.234062 0.310263 0.91367C-0.0231295 1.62763 -0.0666523 2.41258 0.0793629 3.18715C0.460373 4.64444 1.87783 5.95776 3.5717 5.69079C4.25375 5.58326 4.74959 4.94987 4.91135 4.36479C5.01308 3.99687 4.9716 3.58498 4.63827 3.32566C4.25732 3.02927 3.73608 2.9547 3.38625 2.60967C3.38625 2.60967 3.38625 2.60968 3.38625 2.60968Z" style="fill:#FFDEEB;fill-opacity:0.3;mix-blend-mode:normal;" transform="translate(9.924 20.597)" />
              <path id="Path" d="M4.35784 1.63421C3.92014 1.90273 3.50456 2.22196 3.40207 2.72112C3.30788 3.18475 3.55446 3.61296 3.52117 4.06899C3.4935 4.46682 3.15549 4.74293 2.77319 4.88738C2.16093 5.11792 1.3104 5.13311 0.808939 4.69479C0.274248 4.22864 0.0249233 3.62564 0 2.99728C1.45998 2.57672 2.83134 1.8267 3.89797 0.853861C4.19164 0.585238 4.4687 0.298958 4.72633 0C4.87041 0.136799 4.98671 0.291361 5.06709 0.45352C5.08645 0.496588 5.10588 0.542225 5.11974 0.587805C5.27207 1.11478 4.76236 1.38335 4.35783 1.63421C4.35783 1.63421 4.35784 1.63421 4.35784 1.63421Z" style="fill:#FFDEEB;fill-opacity:0.3;mix-blend-mode:normal;" transform="translate(21.363 17.933)" />
              <path id="Path" d="M7.54667 4.75058C7.33057 4.90509 7.08399 5.04954 6.82081 5.18126C4.9092 5.33839 2.91728 4.8823 1.37691 3.82327C0.844972 3.4584 0.382355 3.03024 0 2.55645C0.216099 1.91289 0.703696 1.29213 1.26611 0.846262C1.95314 0.344594 2.82584 0.0481501 3.73177 0C3.97835 0.321803 4.32186 0.577693 4.75406 0.724605C5.35245 0.927315 5.96752 0.904525 6.52438 0.714492C6.52438 0.714492 6.52713 0.714492 6.52713 0.714492C6.77646 0.874084 7.01748 1.05903 7.23914 1.27442C7.49402 1.51763 7.70456 1.77609 7.87357 2.04466C8.38334 2.99225 8.43318 4.02341 7.54667 4.75058C7.54667 4.75058 7.54667 4.75058 7.54667 4.75058Z" style="fill:#FFDEEB;fill-opacity:0.2;mix-blend-mode:normal;" transform="translate(12.181 14.209)" />
              <path id="Path" d="M6.45599 5.68105C7.49792 3.61488 6.47365 1.38746 4.67291 0.45089C3.48319 -0.107756 1.81185 -0.255844 0.970734 0.640816C-1.31544 2.76921 0.873335 6.07101 3.04064 7.23432C4.10815 7.71737 5.13617 7.29049 5.91024 6.5065C6.11903 6.26367 6.30348 5.98675 6.45599 5.68105C6.45599 5.68105 6.45599 5.68105 6.45599 5.68105Z" style="fill:#FFDEEB;fill-opacity:0.2;mix-blend-mode:normal;" transform="translate(26.468 19.517)" />
              <path id="Path" d="M0.465654 3.84578C1.64291 5.85021 4.20451 6.44256 6.10605 5.69099C7.30992 5.15824 8.44505 4.02661 8.16823 2.87267C7.68537 -0.077961 3.48472 -0.466427 1.16455 0.41654C0.100262 0.905478 -0.145615 1.91326 0.0731754 2.95041C0.159582 3.24904 0.290445 3.55041 0.465652 3.84578C0.465652 3.84578 0.465654 3.84578 0.465654 3.84578Z" style="fill:#FFDEEB;fill-opacity:0.2;mix-blend-mode:normal;" transform="translate(16.517 24.035)" />
              <path id="Path" d="M5.46601 0.992638C3.65689 1.59568 1.83397 2.15556 0 2.7003C0.0193634 1.9681 0.307476 1.25612 0.966829 0.640501C1.80905 -0.256424 3.47964 -0.106947 4.67087 0.450468C4.95624 0.599949 5.22498 0.782383 5.46601 0.992638C5.46601 0.992638 5.46601 0.992638 5.46601 0.992638Z" style="fill:#FFDEEB;fill-opacity:0.2;mix-blend-mode:normal;" transform="translate(20.501 31.119)" />
              <path id="Path" d="M6.67397 1.09707C6.51603 1.14774 6.35813 1.19589 6.20024 1.2465C4.42161 1.80648 2.61805 2.29804 0.79788 2.73128C0.700947 2.75407 0.601204 2.77686 0.501463 2.79966C0.277058 2.40948 0.102551 1.99903 0 1.58606C2.11665 1.22627 4.20551 0.681538 6.23347 0C6.43571 0.339508 6.58529 0.709408 6.67397 1.09707C6.67397 1.09707 6.67397 1.09707 6.67397 1.09707Z" style="fill:#FFDEEB;fill-opacity:0.2;mix-blend-mode:normal;" transform="translate(20.601 33.15)" />
              <path id="Path" d="M0.141277 0.380064C0.271498 0.808225 0.304726 1.26934 0.238211 1.71778C0.199484 1.57846 0.163448 1.4391 0.132969 1.3023C0.0498409 0.851293 0.00555611 0.412967 0 0C0.0553989 0.124174 0.102493 0.250861 0.141277 0.380064C0.141277 0.380064 0.141277 0.380064 0.141277 0.380064Z" style="fill:#FFDEEB;fill-opacity:0.2;mix-blend-mode:normal;" transform="translate(19.59 10.304)" />
              <path id="Path" d="M4.49362 8.91701C4.26372 9.20072 4.01158 9.46935 3.74008 9.71507C2.49063 9.10956 1.255 7.82754 0.415585 5.94252C1.45729 4.40964 1.21627 2.40553 0.0831299 0.931015C0.05546 0.895492 0.027729 0.86002 0 0.824549C0.169006 0.543353 0.39897 0.325448 0.695391 0.186134C2.23576 -0.333298 4.65157 0.221551 6.35538 2.01284C6.35538 2.01284 6.35538 2.01541 6.35538 2.01541C6.64624 4.43751 6.10606 6.9129 4.49362 8.91701C4.49362 8.91701 4.49362 8.91701 4.49362 8.91701Z" style="fill:#FFDEEB;fill-opacity:0.2;mix-blend-mode:normal;" transform="translate(19.975 7.648)" />
              <path id="Path" d="M0 3.66111C0.853283 2.56404 1.46554 1.30486 1.83123 0C2.0695 1.73554 1.10817 3.10118 0 3.66111C0 3.66111 0 3.66111 0 3.66111Z" style="fill:#FFDEEB;fill-opacity:0.2;mix-blend-mode:normal;" transform="translate(26.416 13.869)" />
              <path id="Path" d="M6.28606 9.95581C6.1697 9.99888 6.0506 10.0318 5.92868 10.0546C5.88715 10.0116 5.84555 9.96849 5.80402 9.92543C3.28571 7.25497 1.23002 4.16648 0 0.819569C0.166198 0.540831 0.396162 0.322981 0.692582 0.186129C3.05856 -0.611931 7.49672 1.12612 8.23089 5.98564C8.61044 7.90864 7.50783 9.42124 6.28606 9.95581C6.28606 9.95581 6.28606 9.95581 6.28606 9.95581Z" style="fill:#FFDEEB;fill-opacity:0.2;mix-blend-mode:normal;" transform="translate(1.2 19.733)" />
              <path id="Path" d="M7.59621 0.207113C7.59621 0.207113 7.59621 0.209681 7.59621 0.209681C7.32752 1.43087 6.8704 2.61659 6.2221 3.70863C4.92276 5.90021 3.14693 7.76495 1.08574 9.3485C-0.64299 7.67379 -0.69289 3.30578 3.8174 0.721464C5.12225 -0.0943584 6.52964 -0.145021 7.59621 0.207113C7.59621 0.207113 7.59621 0.207113 7.59621 0.207113Z" style="fill:#FFDEEB;fill-opacity:0.2;mix-blend-mode:normal;" transform="translate(39.071 18.603)" />
            </g>
            <path id="Group" d="M50.8498 17.9814C50.5146 14.4191 48.7527 10.9379 45.6525 8.69307C42.6577 6.52172 38.5658 5.73885 34.8617 6.60031C32.9557 7.04115 31.094 7.96087 29.8223 9.3569C28.3983 5.50827 25.1348 2.19432 20.9459 0.742541C16.4994 -0.797884 11.5597 0.172445 7.73099 2.6022C4.20145 4.84198 1.7441 8.21168 0.649803 11.9944C-0.657848 16.5093 0.0956905 21.2549 2.1264 25.4885C4.02414 29.4435 7.03841 32.9526 10.6288 35.7422C12.3077 37.0444 14.139 38.2479 16.0921 39.1853C16.829 39.5401 17.6796 39.9607 18.5135 40.0646C18.6658 40.0848 18.7074 40.0646 18.6908 40.029C18.6576 39.9531 18.3888 39.8087 18.3084 39.7655C16.7709 38.8965 15.2998 37.9768 13.8896 36.938C12.111 35.6256 10.4543 34.1865 8.96382 32.603C5.83044 29.2789 3.41188 25.3087 2.40901 20.9939C1.42551 16.7501 2.02946 12.2275 4.53666 8.49801C7.06608 4.73809 11.8783 1.84465 16.8207 2.06507C20.7159 2.23739 24.1901 4.40617 26.2679 7.36039C28.7751 10.9328 29.2821 15.9646 26.4286 19.5092C25.2678 20.9483 23.5141 21.9668 21.5803 22.2632C19.4887 22.5825 17.2252 22.1492 15.5186 20.9761C13.7567 19.7651 12.7427 17.8699 12.895 15.8481C13.0447 13.8592 14.2498 11.4851 16.48 10.8467C18.6908 10.2107 21.0927 11.6574 21.6911 13.6286C22.0014 14.6497 21.7577 15.8557 20.9487 16.6386C20.2561 17.31 19.0316 17.462 18.3639 16.6664C17.7488 15.9342 17.9068 14.9613 18.2392 14.1632C18.3916 13.8009 18.0203 14.1379 17.9095 14.2696C17.6242 14.6167 17.4718 15.055 17.4219 15.4832C17.3028 16.484 17.8264 17.5152 18.8958 17.8775C19.9929 18.2499 21.1454 17.8572 21.9017 17.0845C23.4393 15.5111 23.2925 13.1827 22.018 11.5231C20.7104 9.82561 18.3029 8.89327 16.0727 9.43795C13.7816 9.99537 12.2107 11.8956 11.4932 13.8794C10.9031 15.5111 10.9114 17.2162 11.4711 18.8479C12.1332 20.7709 13.8342 22.3671 15.768 23.2691C17.674 24.1609 19.8211 24.4573 21.9349 24.171C23.8936 23.9025 25.8191 23.0081 27.2209 21.7311C28.7918 20.3022 29.8279 18.407 30.3016 16.4359C30.8225 14.2519 30.695 11.9817 29.9968 9.84337C30.0827 9.78003 30.1687 9.71668 30.2573 9.65586C31.5677 8.73865 33.061 8.05968 34.6816 7.74296C36.524 7.38826 38.4411 7.44149 40.2613 7.88741C43.9376 8.78937 46.7357 11.3458 48.0461 14.5787C49.4341 18.0067 49.1627 22.0352 47.2538 25.2554C45.4724 28.2603 42.7962 30.6495 39.7155 32.5548C36.3467 34.64 32.5983 36.1374 28.7613 37.3409C26.9826 37.9008 25.1791 38.3923 23.3589 38.8256C21.9349 39.1651 20.4556 39.4007 19.0592 39.8289C18.9346 39.8669 18.7018 39.948 18.7296 40.0138C18.7379 40.0392 18.785 40.0595 18.8875 40.0772C19.3766 40.1557 19.9122 40.1135 20.4148 40.0739C20.513 40.0661 20.6098 40.0585 20.7049 40.0519C22.2646 39.9404 23.816 39.72 25.3481 39.4387C29.2378 38.7243 33.1025 37.6221 36.6874 36.0639C40.2696 34.5032 43.7188 32.4231 46.3451 29.6716C48.7942 27.1075 50.5008 24.0064 50.8388 20.5834C50.9246 19.7195 50.9274 18.8479 50.8498 17.9814ZM20.4879 4.56874C20.4505 4.56706 20.4218 4.56576 20.4057 4.56576C19.6992 4.57084 18.9955 4.57341 18.2891 4.61899C15.0006 4.81662 11.8257 5.99983 9.39329 8.04444C8.46794 8.82233 7.64788 9.70401 6.95805 10.6617C6.57575 11.1938 6.22668 11.7461 5.88592 12.301C5.87306 12.3216 5.85361 12.3584 5.82923 12.4045C5.72225 12.6068 5.52021 12.9887 5.36229 12.9825C5.10465 12.9724 5.40938 11.9437 5.45928 11.7867C5.65321 11.1456 5.94132 10.5274 6.28208 9.94213C6.99409 8.70832 7.97203 7.596 9.11623 6.67377C11.485 4.77104 14.621 3.679 17.7793 3.72966C18.4913 3.73983 19.2089 3.80569 19.9043 3.95014C19.913 3.9519 19.9235 3.95401 19.9357 3.95646C20.2046 4.01032 21.2867 4.22711 21.2257 4.467C21.1951 4.60065 20.7011 4.57836 20.4879 4.56874ZM21.0013 37.911C21.4362 37.8603 21.8712 37.7969 22.3034 37.726C25.772 37.1559 29.1713 36.0968 32.36 34.7338C33.7923 34.1207 35.1969 33.4416 36.5267 32.6562C37.0476 32.3471 37.6016 32.0304 38.0421 31.625L38.048 31.6196C38.1497 31.5267 38.3449 31.3484 38.1059 31.326C37.9215 31.3102 37.6878 31.3999 37.4927 31.4749C37.4386 31.4957 37.3875 31.5153 37.3413 31.5313C36.8869 31.6883 36.4408 31.8657 35.992 32.043C34.5874 32.5954 33.1883 33.1604 31.7755 33.695C28.5174 34.9263 25.1874 35.9575 21.8352 36.9507C21.3254 37.1002 20.8157 37.2497 20.3142 37.4143C20.0205 37.5106 19.6992 37.5993 19.4332 37.7538C19.2864 37.8375 19.2171 37.9236 19.4277 37.9717C19.8203 38.0626 20.2994 38.0004 20.7226 37.9455C20.8189 37.933 20.9124 37.9208 21.0013 37.911Z" style="fill:#BA0000;fill-rule:evenodd;mix-blend-mode:normal;" />
          </g>
          <g id="Group" transform="translate(40.031 35.61)">
            <path id="Shape" d="M41.1612 3.77218C40.2885 2.93453 39.2965 2.20377 38.2207 1.61238C37.3353 1.12489 36.3977 0.743867 35.427 0.474868C34.9258 0.332506 34.4147 0.223312 33.8997 0.146273C31.7906 -0.177885 29.6037 0.0290011 27.5702 0.844342C26.6195 1.22622 25.7266 1.71848 24.9168 2.30559C24.4417 2.65066 23.996 3.02934 23.5824 3.43647C23.5802 3.43802 23.5802 3.43802 23.5802 3.43802C23.4212 3.59686 23.2678 3.75806 23.1178 3.92316C22.0698 5.09732 21.3691 6.48126 20.9739 7.94647C20.9463 8.04464 20.9226 8.14319 20.8989 8.24174C21.4557 8.59339 21.9866 8.9803 22.4842 9.39808C23.779 10.4784 24.8616 11.7662 25.6454 13.2112C25.7065 13.3256 25.7677 13.4399 25.8266 13.5558C25.8283 13.5578 25.8301 13.5597 25.8301 13.5597C26.4371 14.787 26.8206 16.1197 26.9051 17.4638C26.9051 17.4638 26.9068 17.4658 26.9068 17.4658C26.9182 17.6327 26.9258 17.7993 26.9255 17.9651C26.9289 18.3457 26.9086 18.7276 26.8631 19.1052C26.6963 20.4743 26.1391 21.8439 25.2876 23.0072C25.0211 23.3715 24.7272 23.7168 24.4074 24.0324C22.9539 25.465 21.0758 26.4617 18.9787 26.8561C16.853 27.2585 14.434 26.986 12.6022 25.8643C12.3104 25.6853 12.0303 25.4913 11.7653 25.2862C10.6264 24.4001 9.75387 23.283 9.22158 21.975C9.05152 21.5541 8.91521 21.115 8.81951 20.6656C8.46125 19.0254 8.65196 17.262 9.75726 15.89C11.0967 14.2261 13.535 13.5687 15.6846 14.0808C15.7305 14.0926 15.7763 14.1044 15.8222 14.1162C17.7148 14.6187 19.2735 16.0445 19.509 17.8364C19.5396 18.0576 19.5493 18.2874 19.5348 18.5221C19.5077 18.9934 19.3641 19.4493 19.1084 19.8381C19.1084 19.8381 19.1084 19.8381 19.1062 19.8397C18.8017 20.3065 18.3373 20.6761 17.7318 20.8602C17.2941 20.9928 16.851 20.9896 16.4386 20.8796C15.8327 20.723 15.2953 20.3409 14.9443 19.8351C14.6905 19.4725 14.5096 19.0433 14.4948 18.6093C14.4911 18.4431 14.5504 17.9678 14.6793 18.3377C14.9657 19.1505 15.5079 20 16.4885 20.2196C17.5536 20.4584 18.405 19.6393 18.4863 18.7193C18.5414 18.0976 18.3525 17.473 17.9994 16.9364C17.9976 16.9344 17.9976 16.9344 17.9976 16.9344C17.7428 16.5464 17.4015 16.2057 17.0071 15.9461C16.8884 15.8674 16.765 15.7955 16.6369 15.7303C14.8226 14.7906 12.2438 15.1095 11.0384 16.7562C9.73497 18.53 10.4183 21.0717 11.6617 22.7091C12.5447 23.8705 13.8293 24.6595 15.2752 25.0088C15.8975 25.1598 16.5514 25.2293 17.216 25.2097C19.1421 25.155 21.0083 24.3714 22.3923 23.1554C22.5441 23.0247 22.6868 22.8877 22.8259 22.7466C23.8735 21.6734 24.5155 20.3034 24.6831 18.8784C24.7269 18.5313 24.7399 18.1775 24.7253 17.8247C24.6127 15.3386 23.3413 13.0982 21.4579 11.3747C21.4579 11.3747 21.4561 11.3727 21.4561 11.3727C20.0096 10.0464 18.203 9.02636 16.2913 8.43733C15.9242 8.32648 15.552 8.22589 15.1755 8.14474C13.1372 7.69068 10.9816 7.67009 8.96717 8.14666C7.6608 8.45488 6.4144 8.96923 5.29851 9.70934C3.72644 10.7514 2.49911 12.1544 1.62208 13.7423C0.262247 16.1972 -0.249976 19.0925 0.113305 21.7551C0.20743 22.4459 0.352278 23.1256 0.550243 23.789C0.994081 25.3243 1.69006 26.7786 2.59014 28.1255C3.23844 29.092 3.9918 30.0041 4.83081 30.8438C5.50086 31.5151 6.22709 32.1452 6.99916 32.7222C7.73311 33.272 8.49992 33.7781 9.29693 34.2459C12.5457 36.1538 16.2619 37.3878 20.0532 38.031C20.1151 38.0409 20.177 38.0507 20.2388 38.0605C21.6358 38.2931 23.0464 38.4442 24.4617 38.5236C25.2601 38.5716 26.0596 38.5927 26.8614 38.5959C28.6721 38.5998 30.449 38.476 32.243 38.2746C32.3351 38.2622 32.6436 38.2212 32.7215 38.2615C32.7215 38.2615 32.7414 38.2274 32.7414 38.2274C32.6747 38.1919 32.8008 37.9955 32.8721 37.8945C33.2618 37.3426 33.696 36.8132 34.1429 36.294C34.5469 35.8193 34.9601 35.3508 35.3563 34.8752C35.4185 34.8004 35.4808 34.7256 35.5408 34.6523C36.6647 33.2731 37.7358 31.858 38.7406 30.4037C38.8292 30.2738 38.9195 30.146 39.0081 30.0161C39.4292 29.3988 39.8392 28.7768 40.2305 28.1458C41.7721 25.6876 43.0968 23.1156 44.0146 20.4036C44.0849 20.1962 44.1534 19.9868 44.2182 19.777C44.4295 19.1026 44.61 18.4214 44.7538 17.7348C45.2791 15.3202 45.3894 12.8495 44.9043 10.3962C44.6633 9.17338 44.209 7.9867 43.5835 6.8801C43.5835 6.8801 43.5818 6.87812 43.5818 6.87812C42.9437 5.7451 42.1244 4.69292 41.1612 3.77218C41.1612 3.77218 41.1612 3.77218 41.1612 3.77218ZM2.46274 21.8836C2.1744 20.5136 2.1768 19.0864 2.43882 17.7123C2.66433 16.5436 3.08712 15.4056 3.67744 14.3495C4.26215 13.3071 5.01095 12.3425 5.90611 11.5044C6.30374 11.1317 6.73044 10.78 7.18481 10.4599C7.74734 10.0605 8.35223 9.70153 8.99357 9.41643C9.17697 9.33398 10.2564 8.83167 10.3781 9.06381C10.4575 9.20697 9.8902 9.5482 9.8059 9.60999C9.25816 10.018 8.71084 10.4225 8.19077 10.8622C7.49392 11.4444 6.85861 12.0888 6.29473 12.7782C5.62408 13.601 5.0578 14.4903 4.60794 15.4273C4.12099 16.4434 3.77689 17.5172 3.59244 18.6233C3.40968 19.7152 3.36809 20.8303 3.47222 21.9294C3.47486 21.9729 3.47749 22.0165 3.48228 22.0584C3.54786 22.6922 3.65322 23.3228 3.76682 23.9507C3.78905 24.0773 3.98093 24.677 3.82439 24.782C3.61642 24.9215 3.1507 23.9445 3.0822 23.7935C2.90658 23.4189 2.76425 23.0297 2.6483 22.6341C2.57576 22.3853 2.51533 22.134 2.46274 21.8836C2.46274 21.8836 2.46274 21.8836 2.46274 21.8836ZM42.073 20.6352C42.0066 21.2034 41.7908 21.7675 41.5958 22.3066C41.0954 23.6801 40.4639 25.0133 39.7656 26.311C39.3825 27.0204 38.9788 27.7223 38.5507 28.4128C38.3447 28.7489 38.133 29.0827 37.9141 29.4121C36.7978 31.1038 35.5405 32.7237 34.135 34.2151C34.0802 34.2781 34.0218 34.3371 33.9652 34.398C33.7059 34.6693 33.4431 34.9367 33.1695 35.1957C33.1401 35.227 33.1068 35.2578 33.0757 35.2872C32.7382 35.6029 32.3419 36.046 31.8895 36.2347C31.6923 36.3176 31.6874 36.2108 31.7448 36.0616C31.8466 35.7888 32.0368 35.5358 32.2 35.2927C32.2696 35.1898 32.3391 35.0869 32.4086 34.9839C32.4108 34.9823 32.4108 34.9823 32.4108 34.9823C32.6272 34.6743 32.8476 34.3666 33.0697 34.0609C33.1902 33.8947 33.3112 33.7248 33.43 33.5566C34.4884 32.0825 35.5279 30.6029 36.527 29.0975C36.7076 28.8255 36.886 28.5552 37.0627 28.2827C37.5896 27.4743 38.1037 26.6591 38.599 25.8349C39.3359 24.6095 40.0411 23.3685 40.7593 22.134C40.9882 21.7389 41.2149 21.3455 41.462 20.963C41.5782 20.7836 41.7207 20.4844 41.9183 20.3654C42.1241 20.2438 42.0884 20.507 42.073 20.6352C42.073 20.6352 42.073 20.6352 42.073 20.6352Z" style="fill:url(#gradient_5);mix-blend-mode:normal;" transform="translate(2.137 1.611)" />
            <path id="Group" d="M5.05506 23.7523C5.78719 23.2155 4.87634 22.1741 4.14299 22.7117C3.41092 23.2484 4.32176 24.2898 5.05506 23.7523C5.05506 23.7523 5.05506 23.7523 5.05506 23.7523ZM18.2361 11.3729C18.9683 10.8362 18.0574 9.79475 17.3241 10.3324C16.592 10.8691 17.5028 11.9105 18.2361 11.3729C18.2361 11.3729 18.2361 11.3729 18.2361 11.3729ZM18.9716 22.3962C19.7037 21.8595 18.7929 20.8181 18.0596 21.3557C17.3275 21.8923 18.2383 22.9338 18.9716 22.3962C18.9716 22.3962 18.9716 22.3962 18.9716 22.3962ZM20.6005 31.9218C21.3326 31.3851 20.4218 30.3437 19.6885 30.8812C18.9564 31.418 19.8672 32.4594 20.6005 31.9218C20.6005 31.9218 20.6005 31.9218 20.6005 31.9218ZM30.2621 34.097C30.9942 33.5602 30.0834 32.5188 29.35 33.0564C28.6179 33.5931 29.5287 34.6345 30.2621 34.097C30.2621 34.097 30.2621 34.097 30.2621 34.097ZM37.0281 21.8004C37.7602 21.2637 36.8494 20.2223 36.1161 20.7598C35.3839 21.2966 36.2948 22.338 37.0281 21.8004C37.0281 21.8004 37.0281 21.8004 37.0281 21.8004ZM31.1669 14.0836C31.899 13.5469 30.9881 12.5055 30.2548 13.0431C29.5227 13.5798 30.4335 14.6212 31.1669 14.0836C31.1669 14.0836 31.1669 14.0836 31.1669 14.0836ZM34.2128 3.23169C34.9449 2.69504 34.0341 1.6536 33.3008 2.19117C32.5687 2.72788 33.4795 3.76931 34.2128 3.23169C34.2128 3.23169 34.2128 3.23169 34.2128 3.23169ZM26.5763 1.19035C27.3084 0.653641 26.3976 -0.387791 25.6642 0.149829C24.9322 0.686539 25.843 1.72792 26.5763 1.19035C26.5763 1.19035 26.5763 1.19035 26.5763 1.19035ZM33.952 7.95034C34.6841 7.41363 33.7733 6.3722 33.04 6.90982C32.3079 7.44653 33.2187 8.48791 33.952 7.95034C33.952 7.95034 33.952 7.95034 33.952 7.95034ZM22.3296 17.3252C23.0616 16.7885 22.1508 15.7471 21.4175 16.2846C20.6854 16.8213 21.5962 17.8628 22.3296 17.3252C22.3296 17.3252 22.3296 17.3252 22.3296 17.3252ZM11.9453 20.4103C12.6773 19.8736 11.7665 18.8322 11.0332 19.3698C10.3011 19.9065 11.2119 20.9479 11.9453 20.4103C11.9453 20.4103 11.9453 20.4103 11.9453 20.4103ZM10.9563 10.2745C11.6885 9.73783 10.7776 8.6964 10.0443 9.23402C9.31219 9.77068 10.223 10.8121 10.9563 10.2745C10.9563 10.2745 10.9563 10.2745 10.9563 10.2745ZM4.24268 17.5627C4.97481 17.026 4.06396 15.9846 3.33067 16.5222C2.59854 17.0589 3.50938 18.1004 4.24268 17.5627C4.24268 17.5627 4.24268 17.5627 4.24268 17.5627ZM6.70859 28.7767C7.44072 28.24 6.52988 27.1985 5.79658 27.7361C5.06445 28.2728 5.9753 29.3142 6.70859 28.7767C6.70859 28.7767 6.70859 28.7767 6.70859 28.7767ZM14.1389 26.7935C14.8711 26.2569 13.9602 25.2154 13.2269 25.753C12.4948 26.2897 13.4056 27.3311 14.1389 26.7935C14.1389 26.7935 14.1389 26.7935 14.1389 26.7935ZM22.6431 25.8461C23.3751 25.3094 22.4644 24.268 21.731 24.8055C20.9989 25.3422 21.9097 26.3837 22.6431 25.8461C22.6431 25.8461 22.6431 25.8461 22.6431 25.8461ZM41.2961 15.8956C42.0283 15.3589 41.1174 14.3174 40.3841 14.8551C39.652 15.3917 40.5628 16.4331 41.2961 15.8956C41.2961 15.8956 41.2961 15.8956 41.2961 15.8956ZM24.0807 35.8922C24.8128 35.3554 23.9019 34.314 23.1686 34.8516C22.4365 35.3883 23.3474 36.4297 24.0807 35.8922C24.0807 35.8922 24.0807 35.8922 24.0807 35.8922ZM33.4842 26.7096C34.2163 26.1729 33.3055 25.1314 32.5722 25.669C31.8401 26.2057 32.7509 27.2472 33.4842 26.7096C33.4842 26.7096 33.4842 26.7096 33.4842 26.7096ZM30.1713 18.3792C30.9035 17.8426 29.9926 16.8011 29.2593 17.3387C28.5272 17.8754 29.438 18.9168 30.1713 18.3792C30.1713 18.3792 30.1713 18.3792 30.1713 18.3792ZM42.7746 15.6663C43.5067 15.1296 42.5959 14.0882 41.8626 14.6258C41.1305 15.1625 42.0413 16.2039 42.7746 15.6663C42.7746 15.6663 42.7746 15.6663 42.7746 15.6663ZM17.6303 21.8958C18.3624 21.3591 17.4516 20.3177 16.7183 20.8552C15.9862 21.392 16.897 22.4334 17.6303 21.8958C17.6303 21.8958 17.6303 21.8958 17.6303 21.8958ZM19.7792 12.1036C20.5114 11.5669 19.6005 10.5255 18.8672 11.0631C18.1351 11.5997 19.0459 12.6412 19.7792 12.1036C19.7792 12.1036 19.7792 12.1036 19.7792 12.1036ZM5.47246 22.5917C6.20459 22.055 5.29374 21.0135 4.56044 21.5512C3.82831 22.0879 4.73916 23.1293 5.47246 22.5917C5.47246 22.5917 5.47246 22.5917 5.47246 22.5917ZM30.2353 35.6696C30.9674 35.1329 30.0566 34.0915 29.3233 34.6291C28.5911 35.1658 29.502 36.2072 30.2353 35.6696C30.2353 35.6696 30.2353 35.6696 30.2353 35.6696ZM20.6677 30.3616C21.3998 29.8249 20.4889 28.7835 19.7556 29.321C19.0235 29.8577 19.9343 30.8992 20.6677 30.3616C20.6677 30.3616 20.6677 30.3616 20.6677 30.3616ZM37.0083 20.748C37.7404 20.2114 36.8296 19.1699 36.0963 19.7075C35.3641 20.2442 36.275 21.2856 37.0083 20.748C37.0083 20.748 37.0083 20.748 37.0083 20.748ZM29.6228 13.9588C30.355 13.4222 29.4441 12.3807 28.7108 12.9183C27.9787 13.455 28.8895 14.4964 29.6228 13.9588C29.6228 13.9588 29.6228 13.9588 29.6228 13.9588ZM34.8964 2.37479C35.6285 1.83808 34.7176 0.796646 33.9843 1.33421C33.2522 1.87092 34.1631 2.91236 34.8964 2.37479C34.8964 2.37479 34.8964 2.37479 34.8964 2.37479ZM23.8674 7.39255C25.031 6.53955 23.5833 4.88431 22.4178 5.7387C21.2542 6.59176 22.7019 8.247 23.8674 7.39255C23.8674 7.39255 23.8674 7.39255 23.8674 7.39255ZM42.7306 9.67593C43.8941 8.82293 42.4465 7.16769 41.281 8.02214C40.1174 8.87514 41.565 10.5304 42.7306 9.67593C42.7306 9.67593 42.7306 9.67593 42.7306 9.67593ZM27.5512 24.1099C28.7148 23.2569 27.2671 21.6017 26.1016 22.4561C24.938 23.3091 26.3856 24.9643 27.5512 24.1099C27.5512 24.1099 27.5512 24.1099 27.5512 24.1099ZM13.8796 33.213C15.0432 32.36 13.5955 30.7048 12.43 31.5592C11.2664 32.4122 12.714 34.0674 13.8796 33.213C13.8796 33.213 13.8796 33.213 13.8796 33.213ZM3.05465 13.5408C4.21827 12.6877 2.77057 11.0325 1.60508 11.8869C0.441458 12.74 1.8891 14.3952 3.05465 13.5408C3.05465 13.5408 3.05465 13.5408 3.05465 13.5408ZM12.7896 16.3731C13.9532 15.52 12.5055 13.8648 11.34 14.7192C10.1764 15.5723 11.6241 17.2275 12.7896 16.3731C12.7896 16.3731 12.7896 16.3731 12.7896 16.3731ZM4.80157 12.2601C5.96513 11.4071 4.51749 9.75191 3.35194 10.6064C2.18837 11.4594 3.63602 13.1146 4.80157 12.2601C4.80157 12.2601 4.80157 12.2601 4.80157 12.2601ZM14.6539 16.8633C15.8176 16.0103 14.3699 14.355 13.2044 15.2095C12.0407 16.0625 13.4884 17.7177 14.6539 16.8633C14.6539 16.8633 14.6539 16.8633 14.6539 16.8633ZM12.6059 31.7599C13.7695 30.9069 12.3218 29.2516 11.1563 30.1061C9.99272 30.9591 11.4404 32.6143 12.6059 31.7599C12.6059 31.7599 12.6059 31.7599 12.6059 31.7599ZM28.5688 26.0803C29.7325 25.2273 28.2848 23.5721 27.1193 24.4265C25.9556 25.2795 27.4033 26.9348 28.5688 26.0803C28.5688 26.0803 28.5688 26.0803 28.5688 26.0803ZM25.6143 6.11197C26.7778 5.25892 25.3302 3.60368 24.1647 4.45813C23.0011 5.31113 24.4487 6.96637 25.6143 6.11197C25.6143 6.11197 25.6143 6.11197 25.6143 6.11197ZM41.2785 11.2928C42.4421 10.4398 40.9944 8.78457 39.8289 9.63897C38.6653 10.492 40.113 12.1472 41.2785 11.2928C41.2785 11.2928 41.2785 11.2928 41.2785 11.2928ZM0.763875 18.8512C1.23708 18.5043 0.648394 17.8312 0.174429 18.1786C-0.298777 18.5255 0.28991 19.1986 0.763875 18.8512C0.763875 18.8512 0.763875 18.8512 0.763875 18.8512ZM6.31815 19.4518C6.7913 19.1049 6.20261 18.4317 5.72865 18.7792C5.25544 19.1261 5.84413 19.7992 6.31815 19.4518C6.31815 19.4518 6.31815 19.4518 6.31815 19.4518ZM3.24345 26.5187C3.71666 26.1718 3.12791 25.4987 2.65395 25.8462C2.18074 26.1931 2.76949 26.8662 3.24345 26.5187C3.24345 26.5187 3.24345 26.5187 3.24345 26.5187ZM16.7954 27.5805C17.2686 27.2336 16.6798 26.5605 16.2059 26.908C15.7327 27.2549 16.3214 27.928 16.7954 27.5805C16.7954 27.5805 16.7954 27.5805 16.7954 27.5805ZM26.3465 35.8106C26.8197 35.4637 26.231 34.7906 25.757 35.1381C25.2838 35.485 25.8725 36.1581 26.3465 35.8106C26.3465 35.8106 26.3465 35.8106 26.3465 35.8106ZM24.3985 27.9807C24.8717 27.6338 24.283 26.9607 23.809 27.3082C23.3359 27.6551 23.9246 28.3282 24.3985 27.9807C24.3985 27.9807 24.3985 27.9807 24.3985 27.9807ZM35.2584 25.9613C35.7316 25.6144 35.1429 24.9413 34.6689 25.2888C34.1957 25.6357 34.7844 26.3088 35.2584 25.9613C35.2584 25.9613 35.2584 25.9613 35.2584 25.9613ZM36.2838 30.9334C36.757 30.5865 36.1682 29.9133 35.6943 30.2608C35.2211 30.6077 35.8098 31.2808 36.2838 30.9334C36.2838 30.9334 36.2838 30.9334 36.2838 30.9334ZM42.8674 18.3828C43.3406 18.0359 42.7519 17.3628 42.2779 17.7102C41.8047 18.0571 42.3935 18.7303 42.8674 18.3828C42.8674 18.3828 42.8674 18.3828 42.8674 18.3828ZM33.7838 13.1301C34.257 12.7832 33.6683 12.1101 33.1943 12.4576C32.7211 12.8044 33.3098 13.4775 33.7838 13.1301C33.7838 13.1301 33.7838 13.1301 33.7838 13.1301ZM31.0412 5.25453C31.5144 4.90763 30.9257 4.2345 30.4517 4.58198C29.9785 4.92887 30.5673 5.60201 31.0412 5.25453C31.0412 5.25453 31.0412 5.25453 31.0412 5.25453ZM26.8372 15.6882C27.3105 15.3413 26.7217 14.6682 26.2477 15.0156C25.7745 15.3625 26.3633 16.0356 26.8372 15.6882C26.8372 15.6882 26.8372 15.6882 26.8372 15.6882ZM12.7896 20.3437C13.2628 19.9968 12.674 19.3238 12.2001 19.6712C11.7268 20.0181 12.3156 20.6912 12.7896 20.3437C12.7896 20.3437 12.7896 20.3437 12.7896 20.3437ZM20.9428 13.8144C21.416 13.4675 20.8272 12.7944 20.3533 13.1418C19.88 13.4887 20.4688 14.1619 20.9428 13.8144C20.9428 13.8144 20.9428 13.8144 20.9428 13.8144ZM10.7016 11.0136C11.1748 10.6668 10.586 9.99367 10.1121 10.3412C9.63885 10.688 10.2276 11.3611 10.7016 11.0137C10.7016 11.0137 10.7016 11.0136 10.7016 11.0136Z" style="fill:#FFFFFF;mix-blend-mode:normal;" transform="translate(2.864 2.915)" />
            <path id="Group" d="M23.1551 0.533824L23.941 0.455712L23.3992 0.982847C23.3684 1.01105 23.3529 1.05331 23.3573 1.09354L23.4427 1.81226L22.8685 1.31878C22.8355 1.28855 22.7915 1.27646 22.7431 1.28047L21.9594 1.35655L22.499 0.831443C22.5321 0.801267 22.5475 0.758952 22.5431 0.718719L22.4577 0L23.0319 0.49755C23.0649 0.523714 23.1111 0.537837 23.1551 0.533824ZM31.718 3.57113L30.7545 4.09345L31.1147 3.1243C31.1343 3.06983 31.1273 3.00708 31.0978 2.95732L30.523 2.07826L31.5827 2.40766C31.6422 2.42564 31.7108 2.41911 31.7666 2.38669L32.7265 1.86646L32.37 2.83353C32.349 2.8935 32.3537 2.95283 32.3892 3.00387L32.958 3.8817L31.8983 3.55224C31.8388 3.53432 31.7701 3.54079 31.718 3.57113ZM21.3924 9.3464L20.4289 9.86872L20.7891 8.89956C20.8087 8.84516 20.8016 8.7824 20.7722 8.73259L20.1973 7.85353L21.2571 8.18293C21.3166 8.20091 21.3852 8.19443 21.441 8.16196L22.4009 7.64178L22.0444 8.6088C22.0234 8.66877 22.0281 8.72815 22.0636 8.77914L22.6324 9.65697L21.5726 9.32757C21.5131 9.30959 21.4445 9.31606 21.3924 9.3464ZM31.1242 8.59585L31.9101 8.51774L31.3683 9.04487C31.3375 9.07307 31.322 9.11534 31.3264 9.15557L31.4118 9.87429L30.8377 9.3808C30.8046 9.35057 30.7606 9.33848 30.7122 9.3425L29.9285 9.41857L30.4681 8.89347C30.5012 8.86329 30.5166 8.82103 30.5122 8.78074L30.4268 8.06208L31.001 8.55958C31.034 8.58574 31.0803 8.59986 31.1242 8.59585ZM8.9031 10.2787L7.93954 10.801L8.29973 9.83186C8.31933 9.77745 8.31225 9.71464 8.28288 9.66488L7.70794 8.78582L8.76772 9.11522C8.82722 9.1332 8.89584 9.12673 8.95165 9.09425L9.91146 8.57407L9.55502 9.54109C9.53402 9.60106 9.53875 9.66045 9.57426 9.71143L10.1431 10.5893L9.08327 10.2599C9.02378 10.2419 8.95516 10.2484 8.9031 10.2787ZM1.19574 13.3378L1.98157 13.2597L1.4398 13.7868C1.40897 13.815 1.39353 13.8572 1.39791 13.8975L1.48333 14.6162L0.90909 14.1227C0.876094 14.0925 0.832105 14.0804 0.783666 14.0844L0 14.1605L0.539605 13.6354C0.572659 13.6052 0.588044 13.5629 0.583714 13.5227L0.498302 12.804L1.07248 13.3015C1.10548 13.3277 1.15169 13.3418 1.19574 13.3378ZM31.2831 16.1483L30.3195 16.6706L30.6797 15.7014C30.6993 15.647 30.6922 15.5843 30.6628 15.5345L30.0879 14.6555L31.1477 14.9849C31.2072 15.0028 31.2758 14.9963 31.3316 14.9638L32.2914 14.4437L31.935 15.4107C31.914 15.4706 31.9187 15.53 31.9542 15.5811L32.523 16.4588L31.4632 16.1294C31.4038 16.1115 31.3351 16.118 31.2831 16.1483ZM15.6861 18.4312L16.4719 18.3531L15.9302 18.8803C15.8994 18.9084 15.8839 18.9507 15.8883 18.9909L15.9737 19.7097L15.3995 19.2162C15.3665 19.186 15.3225 19.1739 15.274 19.1779L14.4904 19.2539L15.03 18.7288C15.063 18.6986 15.0784 18.6564 15.074 18.6161L14.9886 17.8974L15.5629 18.3949C15.5958 18.4211 15.6421 18.4352 15.6861 18.4312ZM25.3554 20.1358L26.1413 20.0577L25.5995 20.5849C25.5686 20.613 25.5532 20.6553 25.5576 20.6956L25.643 21.4143L25.0688 20.9208C25.0358 20.8906 24.9918 20.8785 24.9433 20.8824L24.1597 20.9586L24.6993 20.4334C24.7323 20.4032 24.7478 20.361 24.7434 20.3207L24.658 19.602L25.2322 20.0995C25.2652 20.1257 25.3114 20.1399 25.3554 20.1358ZM3.23288 26.8736L2.26927 27.396L2.62951 26.4268C2.64911 26.3724 2.64203 26.3096 2.61261 26.2598L2.03773 25.3808L3.09751 25.7102C3.15701 25.7281 3.22563 25.7217 3.28138 25.6892L4.24125 25.169L3.88475 26.136C3.86381 26.196 3.86854 26.2554 3.90399 26.3064L4.47285 27.1842L3.41306 26.8548C3.35357 26.8369 3.28495 26.8433 3.23288 26.8736ZM22.0471 30.3718L21.0835 30.8942L21.4437 29.925C21.4633 29.8705 21.4562 29.8078 21.4269 29.758L20.8519 28.879L21.9117 29.2084C21.9712 29.2264 22.0398 29.2198 22.0956 29.1874L23.0555 28.6672L22.699 29.6342C22.678 29.6942 22.6828 29.7536 22.7183 29.8046L23.2871 30.6824L22.2273 30.353C22.1678 30.335 22.0992 30.3415 22.0471 30.3718ZM14.4395 33.3577L15.2254 33.2796L14.6836 33.8068C14.6527 33.8349 14.6373 33.8772 14.6417 33.9174L14.7271 34.6362L14.1529 34.1427C14.1199 34.1125 14.0759 34.1004 14.0275 34.1044L13.2438 34.1805L13.7834 33.6553C13.8164 33.6252 13.8319 33.5829 13.8275 33.5426L13.7421 32.8239L14.3163 33.3214C14.3493 33.3476 14.3955 33.3617 14.4395 33.3577Z" style="fill:#FFFFFF;fill-rule:evenodd;mix-blend-mode:normal;" transform="translate(8.878 2.949)" />
            <g id="Group" transform="translate(2.137 1.611)">
              <path id="Path" d="M9.26932 0.348059C9.19245 1.67411 8.61061 3.01953 7.69152 4.07326C6.63518 5.13663 5.34713 5.96395 3.84702 6.32658C2.58827 6.63233 1.13297 5.95229 0.388615 4.98153C0.952495 4.29213 1.5878 3.64778 2.28466 3.06554C2.80472 2.62582 3.35205 2.22136 3.89978 1.81332C3.98408 1.75152 4.55136 1.4103 4.47203 1.26714C4.35024 1.035 3.27085 1.53731 3.08746 1.61976C2.44612 1.90486 1.84123 2.26385 1.27869 2.66322C0.824321 2.98331 0.397622 3.33507 0 3.70776C0.154266 3.13033 0.81672 2.75187 1.36843 2.39289C2.15538 1.88094 2.89932 1.28356 3.05926 0.364273C3.05973 0.360689 3.06054 0.353574 3.06101 0.349987C5.07546 -0.126592 7.23101 -0.105996 9.26933 0.348059C9.26933 0.348059 9.26932 0.348059 9.26932 0.348059Z" style="fill:#FFDEEB;fill-opacity:0.3;mix-blend-mode:normal;" transform="translate(5.906 7.797)" />
              <path id="Path" d="M0.176233 3.19609C0.360684 2.08998 0.704783 1.01618 1.19174 0C2.37326 1.93937 1.78457 4.55307 0.230229 6.33226C0.174011 6.38967 0.113873 6.4467 0.0560172 6.50212C-0.0481138 5.40302 -0.00652122 4.28792 0.176233 3.19609C0.176233 3.19609 0.176233 3.19609 0.176233 3.19609Z" style="fill:#FFDEEB;fill-opacity:0.3;mix-blend-mode:normal;" transform="translate(3.416 15.427)" />
              <path id="Path" d="M2.46279 8.14345C2.51538 8.39383 2.57581 8.64507 2.64835 8.89389C2.01456 9.37802 1.31274 9.77231 0.550245 10.0488C0.35228 9.3854 0.207436 8.70573 0.113307 8.01494C-0.249979 5.3523 0.262248 2.45698 1.62208 0.00213528C2.37188 -0.0215101 3.12184 0.149527 3.6649 0.598982C3.66841 0.602942 3.67403 0.605296 3.67748 0.609256C3.08715 1.66545 2.66438 2.80345 2.43886 3.97211C2.17683 5.3462 2.17443 6.77342 2.46278 8.14345C2.46278 8.14345 2.46279 8.14345 2.46279 8.14345Z" style="fill:#FFDEEB;fill-opacity:0.3;mix-blend-mode:normal;" transform="translate(0 13.74)" />
              <path id="Path" d="M6.63144 1.33921C7.16373 2.64729 8.03626 3.76431 9.17514 4.65042C9.02591 5.85738 8.46729 7.05921 7.63238 8.01868C6.5761 9.08204 5.29021 9.90777 3.7901 10.2704C3.28442 10.3943 2.7488 10.3584 2.24067 10.2081C1.40166 9.36838 0.648297 8.4562 0 7.48973C0.222298 7.00202 0.811222 6.66123 1.30935 6.3383C2.09839 5.82475 2.84023 5.22903 3.00239 4.30808C3.15373 3.46 2.68304 2.68805 2.72241 1.85393C2.75535 1.12184 3.35965 0.604113 4.05381 0.322596C4.69562 0.0663853 5.49157 -0.0625477 6.22937 0.0298462C6.32508 0.479244 6.46138 0.918324 6.63144 1.33921C6.63144 1.33921 6.63144 1.33921 6.63144 1.33921Z" style="fill:#FFDEEB;fill-opacity:0.3;mix-blend-mode:normal;" transform="translate(2.59 20.636)" />
              <path id="Path" d="M8.74794 3.29732C8.4868 3.86222 8.14036 4.39867 7.72635 4.87423C6.67007 5.93765 5.38419 6.76337 3.88408 7.12599C2.45493 7.4723 0.776031 6.55338 0.16301 5.376C0.121414 5.29613 0.0880089 5.21342 0.0606346 5.12953C-0.245846 4.17231 0.6726 3.66459 1.40157 3.19186C2.19238 2.68035 2.93246 2.08259 3.09632 1.16368C3.16816 0.763552 3.10024 0.378245 3.01378 0C3.98452 0.268998 4.92211 0.650023 5.80745 1.13752C6.88326 1.7289 7.87524 2.45966 8.74795 3.29731C8.74795 3.29731 8.74794 3.29732 8.74794 3.29732Z" style="fill:#FFDEEB;fill-opacity:0.3;mix-blend-mode:normal;" transform="translate(32.413 0.475)" />
              <path id="Path" d="M9.41921 0.726192C9.35451 0.935968 9.28595 1.14531 9.21562 1.35273C8.29782 4.06481 6.97314 6.63676 5.43155 9.09498C4.88352 9.24344 4.32461 9.33493 3.75178 9.36194C4.17983 8.67147 4.5836 7.96955 4.96665 7.26014C5.66491 5.96244 6.29647 4.62922 6.79688 3.25572C6.99186 2.71665 7.20761 2.1526 7.27407 1.58433C7.28951 1.45614 7.32514 1.19297 7.11934 1.31458C6.92173 1.43351 6.77928 1.73274 6.66309 1.91212C6.416 2.29459 6.18925 2.68808 5.96039 3.08318C5.24213 4.31759 4.53691 5.55869 3.80011 6.78399C3.30473 7.60826 2.79069 8.42345 2.26373 9.23189C1.08559 8.85188 0.155445 7.70564 0.0136414 6.60814C0.00229263 6.52227 -0.00297165 6.43523 0.00170517 6.34738C0.0486221 5.35175 1.09507 5.13994 1.95321 4.90374C2.87845 4.6509 3.79139 4.30304 4.26689 3.48037C4.70745 2.71912 4.53388 1.85268 4.86446 1.07132C5.15146 0.390045 5.90482 0.0748291 6.66106 0.0139961C7.58647 -0.0604229 8.6813 0.159786 9.41922 0.726192C9.41922 0.726192 9.41921 0.726192 9.41921 0.726192Z" style="fill:#FFDEEB;fill-opacity:0.3;mix-blend-mode:normal;" transform="translate(34.799 19.051)" />
              <path id="Path" d="M8.98292 0.146271C9.09102 0.885321 8.96244 1.65818 8.45513 2.2217C6.46116 4.44329 2.78407 4.1775 0.349478 2.5787C0.232122 2.48941 0.113016 2.39809 0 2.30559C0.809757 1.71848 1.7027 1.22622 2.65333 0.844341C4.68685 0.0289993 6.87375 -0.177883 8.98291 0.146271C8.98291 0.146271 8.98292 0.146271 8.98292 0.146271Z" style="fill:#FFDEEB;fill-opacity:0.3;mix-blend-mode:normal;" transform="translate(24.917 0)" />
              <path id="Path" d="M6.58825 2.64765C5.57544 2.54535 4.8869 1.89811 4.28786 1.20357C3.73369 0.561038 3.13277 -0.252804 2.10277 0.0750971C2.01274 0.103718 1.92539 0.139405 1.84156 0.180707C0.584869 0.799812 -0.333933 2.37966 0.115984 3.66671C0.588663 5.01882 1.55514 6.152 2.77007 7.06354C5.20296 8.66212 8.88091 8.92801 10.8744 6.70589C11.677 5.8112 11.5344 4.39287 10.9929 3.4067C10.6524 2.78658 10.0563 2.26239 9.2562 2.26827C8.34167 2.27507 7.52331 2.74207 6.58825 2.64764C6.58825 2.64764 6.58825 2.64765 6.58825 2.64765Z" style="fill:#FFDEEB;fill-opacity:0.3;mix-blend-mode:normal;" transform="translate(27.122 7.514)" />
              <path id="Path" d="M10.9925 3.40747C11.0233 3.46285 11.0537 3.52175 11.0801 3.58028C10.6333 4.09944 10.199 4.62883 9.80938 5.18079C9.73806 5.2818 9.61194 5.47814 9.67863 5.51366C9.67863 5.51366 9.65874 5.54774 9.65874 5.54774C9.58083 5.50746 9.27235 5.54844 9.18022 5.56086C7.3862 5.76228 5.60932 5.88608 3.79869 5.88218C2.99688 5.87891 2.19731 5.85789 1.39896 5.8099C0.835426 5.171 0.391588 4.454 0.115995 3.66562C-0.334047 2.37846 0.585398 0.798443 1.84039 0.18047C1.92422 0.13847 2.01338 0.10236 2.10329 0.0753975C3.13225 -0.253574 3.73369 0.562248 4.28909 1.20393C4.88731 1.89862 5.57421 2.54459 6.5885 2.64849C7.52315 2.74264 8.34215 2.27538 9.25551 2.26826C9.28711 2.26784 9.31647 2.26896 9.34589 2.27013C9.27639 2.37312 9.20684 2.47606 9.13728 2.57899C8.97401 2.82204 8.78389 3.0751 8.68204 3.34784C8.62465 3.49705 8.62956 3.60384 8.82677 3.52096C9.27915 3.33221 9.67543 2.88913 10.013 2.57342C10.0441 2.54411 10.0774 2.51323 10.1067 2.48193C10.4895 2.69171 10.7875 3.03175 10.9926 3.40748C10.9926 3.40748 10.9925 3.40747 10.9925 3.40747Z" style="fill:#FFDEEB;fill-opacity:0.3;mix-blend-mode:normal;" transform="translate(23.063 32.714)" />
              <path id="Path" d="M4.94664 1.13928C5.48806 2.1256 5.63063 3.54405 4.82724 4.4382C3.97806 5.38547 2.82075 5.87992 1.58523 6.0096C1.08763 5.59182 0.55674 5.20491 0 4.85325C0.0236912 4.75471 0.0473804 4.65616 0.0749378 4.55798C0.470161 3.09278 1.17088 1.70884 2.21884 0.534674C2.36883 0.369572 2.52229 0.208376 2.68128 0.049536C2.68128 0.049536 2.68128 0.049536 2.68344 0.0479851C2.85649 0.0185599 3.03216 0.000208378 3.20954 4.91142e-05C4.0104 -0.00583673 4.60547 0.519106 4.94664 1.13928C4.94664 1.13928 4.94664 1.13928 4.94664 1.13928Z" style="fill:#FFDEEB;fill-opacity:0.3;mix-blend-mode:normal;" transform="translate(20.899 3.388)" />
              <path id="Path" d="M3.60884 1.52263C3.05759 1.44783 2.69571 1.0812 2.38385 0.690437C2.09533 0.328934 1.78504 -0.127043 1.21479 0.0329189C1.165 0.0468788 1.11645 0.0647488 1.06971 0.0857773C0.369051 0.400625 -0.16839 1.24694 0.0488205 1.95876C0.27697 2.70653 0.779898 3.34388 1.42351 3.86475C2.71747 4.78383 4.72163 4.99783 5.86074 3.82057C6.31938 3.34661 6.27305 2.56877 5.99915 2.0197C5.82687 1.67441 5.51284 1.37679 5.07538 1.36513C4.57544 1.35176 4.11774 1.5917 3.60884 1.52263C3.60884 1.52263 3.60884 1.52263 3.60884 1.52263Z" style="fill:#FFDEEB;fill-opacity:0.3;mix-blend-mode:normal;" transform="translate(16.952 27.867)" />
              <path id="Path" d="M2.46806 1.4859C2.31017 1.94579 2.20428 2.43259 2.46566 2.88065C2.70925 3.29634 3.19445 3.48937 3.4804 3.86424C3.7309 4.19049 3.65602 4.59922 3.45648 4.93066C3.13642 5.46074 2.48322 5.95909 1.79215 5.90393C1.05616 5.84604 0.449167 5.51814 0 5.04216C0.851524 3.87886 1.40868 2.50925 1.57553 1.14008C1.62098 0.762531 1.64134 0.380653 1.63789 0C1.84393 0.0243435 2.04037 0.0783768 2.21393 0.158951C2.25851 0.181473 2.3049 0.20598 2.34685 0.233639C2.82619 0.557686 2.61209 1.05877 2.46806 1.48591C2.46806 1.48591 2.46806 1.4859 2.46806 1.4859Z" style="fill:#FFDEEB;fill-opacity:0.3;mix-blend-mode:normal;" transform="translate(25.288 17.965)" />
              <path id="Path" d="M7.64371 2.57554C7.58082 2.81977 7.48722 3.07347 7.37192 3.32679C5.98786 4.54285 4.12172 5.32636 2.19554 5.38109C1.53098 5.40067 0.877127 5.33122 0.254806 5.18025C-0.016695 4.55451 -0.0608006 3.79123 0.0731049 3.12168C0.26604 2.33721 0.744218 1.60672 1.4182 1.05101C1.83062 1.16101 2.2737 1.16422 2.7114 1.03165C3.31693 0.847506 3.78124 0.477921 4.0858 0.0111351C4.08796 0.00952721 4.08796 0.00952721 4.08796 0.00952721C4.39163 -0.00855446 4.70618 -0.00208092 5.02642 0.0391674C5.39163 0.0831451 5.73269 0.164354 6.04824 0.277296C7.09405 0.725037 7.83816 1.50111 7.64371 2.57555C7.64371 2.57555 7.64371 2.57554 7.64371 2.57554Z" style="fill:#FFDEEB;fill-opacity:0.2;mix-blend-mode:normal;" transform="translate(15.02 19.829)" />
              <path id="Path" d="M7.74618 3.10767C7.14608 0.899557 4.82352 -0.25251 2.77794 0.0467129C1.4676 0.291315 0.0621967 1.1318 0.019146 2.3126C-0.309042 5.28094 3.65697 6.60523 6.14363 6.27321C7.3069 6.03952 7.81708 5.11841 7.88488 4.06392C7.88173 3.75502 7.83627 3.43343 7.74618 3.10767C7.74618 3.10767 7.74618 3.10767 7.74618 3.10767Z" style="fill:#FFDEEB;fill-opacity:0.2;mix-blend-mode:normal;" transform="translate(29.481 16.617)" />
              <path id="Path" d="M1.99655 5.98965C4.28594 6.88016 6.68977 5.87714 7.65947 4.20302C8.23441 3.09879 8.34625 1.56649 7.34099 0.824448C4.94629 -1.2016 1.40307 0.898066 0.19656 2.9141C-0.299463 3.90439 0.197906 4.83133 1.07798 5.51544C1.34965 5.69905 1.65783 5.85939 1.99655 5.98966C1.99655 5.98966 1.99655 5.98965 1.99655 5.98965Z" style="fill:#FFDEEB;fill-opacity:0.2;mix-blend-mode:normal;" transform="translate(24.627 24.946)" />
              <path id="Path" d="M3.77004 0.013813C2.77092 1.51914 1.73149 2.99874 0.673046 4.47282C0.187378 3.89042 -0.0746994 3.17004 0.0187225 2.31254C0.0624275 1.131 1.46818 0.292063 2.77887 0.0455856C3.10372 -0.0010128 3.43823 -0.0124092 3.77004 0.0138035C3.77004 0.0138035 3.77004 0.013813 3.77004 0.013813Z" style="fill:#FFDEEB;fill-opacity:0.2;mix-blend-mode:normal;" transform="translate(32.757 29.084)" />
              <path id="Path" d="M4.87305 0.604071C4.78449 0.733919 4.69416 0.861782 4.60559 0.991623C3.60079 2.44592 2.52972 3.86104 1.40582 5.24022C1.34573 5.31351 1.28349 5.3883 1.22131 5.46315C0.779346 5.28708 0.362473 5.06666 0 4.80307C1.40546 3.31165 2.66281 1.69178 3.77905 0C4.169 0.149212 4.53873 0.352293 4.87305 0.604071C4.87305 0.604071 4.87305 0.604071 4.87305 0.604071Z" style="fill:#FFDEEB;fill-opacity:0.2;mix-blend-mode:normal;" transform="translate(34.135 29.412)" />
              <path id="Path" d="M0.370186 0.215712C0.764595 0.475346 1.10588 0.816088 1.36071 1.20407C1.23517 1.11751 1.11173 1.02939 0.994383 0.94005C0.621094 0.635693 0.286764 0.319077 0 0C0.128117 0.0651646 0.251492 0.137069 0.370186 0.215712C0.370186 0.215712 0.370186 0.215712 0.370186 0.215712Z" style="fill:#FFDEEB;fill-opacity:0.2;mix-blend-mode:normal;" transform="translate(16.637 15.73)" />
              <path id="Path" d="M9.07032 6.55397C9.08494 6.90686 9.07197 7.26065 9.0282 7.60771C7.63917 7.8499 5.79824 7.55635 3.8541 6.56574C3.61858 4.77387 2.05985 3.34798 0.167259 2.84557C0.121395 2.83374 0.075532 2.82192 0.0296679 2.8101C-0.0308218 2.49397 -0.000400543 2.19244 0.135552 1.91419C0.982225 0.627832 3.24664 -0.321095 5.80116 0.102036C5.80116 0.102036 5.80292 0.104016 5.80292 0.104016C7.68639 1.82752 8.95777 4.06794 9.07032 6.55397C9.07032 6.55397 9.07032 6.55397 9.07032 6.55397Z" style="fill:#FFDEEB;fill-opacity:0.2;mix-blend-mode:normal;" transform="translate(15.655 11.271)" />
              <path id="Path" d="M1.075 3.90411C0.990526 2.56003 0.607058 1.22734 0 0C1.37282 1.21793 1.55675 2.83336 1.075 3.90411C1.075 3.90411 1.075 3.90411 1.075 3.90411Z" style="fill:#FFDEEB;fill-opacity:0.2;mix-blend-mode:normal;" transform="translate(25.83 13.56)" />
              <path id="Path" d="M11.1831 6.33838C11.1217 6.43859 11.0514 6.53243 10.9718 6.6199C10.91 6.61011 10.8481 6.60027 10.7862 6.59042C6.99485 5.94719 3.27869 4.71321 0.0298929 2.80535C-0.0310078 2.4928 -0.00058651 2.19128 0.137121 1.91495C1.43734 -0.0610771 6.08897 -1.24359 9.9853 2.12814C11.5966 3.4115 11.7708 5.22243 11.1831 6.33838C11.1831 6.33838 11.1831 6.33838 11.1831 6.33838Z" style="fill:#FFDEEB;fill-opacity:0.2;mix-blend-mode:normal;" transform="translate(9.267 31.441)" />
              <path id="Path" d="M3.11748 0C3.11748 0 3.11924 0.00197935 3.11924 0.00197935C3.74472 1.10857 4.19897 2.29526 4.44 3.51811C4.92508 5.97135 4.81475 8.44208 4.28948 10.8566C1.79522 10.5388 -1.231 7.1591 0.520729 2.56281C0.980949 1.17988 2.04442 0.335334 3.11749 -4.29153e-06C3.11749 -4.29153e-06 3.11748 0 3.11748 0Z" style="fill:#FFDEEB;fill-opacity:0.2;mix-blend-mode:normal;" transform="translate(40.464 6.878)" />
            </g>
            <path id="Group" d="M44.8731 4.27464C42.1752 1.6869 38.4196 -0.0215142 34.4655 0.000204693C30.6438 0.0190378 26.9156 1.74875 24.6146 4.53963C23.4289 5.97386 22.6052 7.75637 22.5678 9.57296C18.8246 7.38459 14.0117 6.66555 9.75042 7.92885C5.22744 9.27031 2.0369 12.8529 0.711237 16.9388C-0.510946 20.7052 -0.123733 24.7401 1.60945 28.3175C3.67695 32.5883 7.5104 35.86 11.9903 38.0018C16.1759 40.0023 20.9277 41.0161 25.637 41.139C27.8376 41.1948 30.0895 41.0863 32.2546 40.7006C33.0722 40.5558 34.0235 40.3975 34.7452 40.0016C34.8779 39.9302 34.8965 39.8907 34.8593 39.8725C34.7814 39.8322 34.4729 39.8732 34.3807 39.8856C32.5867 40.087 30.8099 40.2109 28.9992 40.2069C26.7138 40.2003 24.4369 40.025 22.1909 39.642C17.4727 38.8406 12.8704 37.1262 9.13695 34.3333C5.46713 31.5845 2.84533 27.7103 2.25103 23.3661C1.65316 18.9857 3.42911 13.9754 7.43624 11.3204C10.5934 9.22678 14.7873 8.93183 18.429 10.0483C22.8285 11.4017 26.6654 15.0377 26.863 19.4356C26.9415 21.2225 26.2697 23.0203 24.9637 24.3577C23.55 25.8032 21.4876 26.7599 19.3537 26.8207C17.1506 26.8836 15.0634 25.9849 13.7995 24.3201C12.556 22.6827 11.8727 20.141 13.1762 18.3672C14.4662 16.6064 17.3298 16.3613 19.1448 17.557C20.0852 18.1763 20.7198 19.2567 20.624 20.3303C20.5428 21.2504 19.6914 22.0694 18.6263 21.8305C17.6457 21.6111 17.1034 20.7616 16.817 19.9487C16.6881 19.5788 16.6289 20.0541 16.6326 20.2203C16.6473 20.6544 16.8282 21.0835 17.0821 21.4461C17.6736 22.2952 18.7874 22.8003 19.8696 22.4712C20.9803 22.1343 21.611 21.1687 21.6726 20.1331C21.7962 18.026 20.0893 16.2932 17.96 15.7272C15.7787 15.1507 13.2626 15.8003 11.895 17.501C10.4886 19.2465 10.5624 21.6277 11.3593 23.586C12.0148 25.1966 13.1874 26.5223 14.74 27.4754C16.5718 28.597 18.9907 28.8695 21.1165 28.4672C23.2136 28.0728 25.0916 27.076 26.5451 25.6435C27.8898 24.3136 28.7804 22.5144 29.0009 20.7162C29.2493 18.7027 28.7616 16.6313 27.7832 14.8223C26.6959 12.8203 25.0439 11.1219 23.0367 9.85273C23.0604 9.75419 23.0841 9.65564 23.1117 9.55752C23.5068 8.09226 24.2076 6.70837 25.2556 5.53421C26.4505 4.20361 27.9827 3.14854 29.7079 2.45539C33.1933 1.05626 37.1249 1.45045 40.3584 3.22338C43.7858 5.10423 46.3291 8.40277 47.0421 12.0072C47.7072 15.3708 47.253 18.7658 46.1524 22.0146C44.9498 25.5685 43.0492 28.8809 40.8784 32.0147C39.8736 33.469 38.8025 34.8841 37.6786 36.2633C36.7997 37.3427 35.8065 38.3728 35.0099 39.5056C34.9386 39.6065 34.8125 39.8029 34.8791 39.8384C34.9029 39.8534 34.9536 39.8423 35.0457 39.7975C35.5659 39.5363 36.0201 39.1026 36.4464 38.7382C37.5871 37.7591 38.6469 36.6996 39.65 35.6039C42.1963 32.8215 44.458 29.751 46.1896 26.4846C47.9172 23.2179 49.1858 19.6219 49.3533 15.9727C49.5106 12.5713 48.7213 9.17534 46.644 6.31128C46.1201 5.58801 45.5262 4.90642 44.8731 4.27464ZM12.0098 11.1763C11.9795 11.1963 11.9562 11.2118 11.9436 11.221C11.3959 11.629 10.8486 12.0335 10.3285 12.4732C7.89784 14.5084 6.22976 17.2476 5.73018 20.2343C5.54017 21.3705 5.50331 22.5275 5.62008 23.6694C5.68566 24.3032 5.79101 24.9339 5.90462 25.5617C5.90874 25.5852 5.91873 25.6251 5.93126 25.6752C5.9861 25.8942 6.08957 26.3075 5.96218 26.393C5.75422 26.5324 5.2885 25.5555 5.21993 25.4044C4.93288 24.7933 4.73491 24.1462 4.60048 23.4946C4.31219 22.1246 4.31453 20.6974 4.57661 19.3233C5.12353 16.4838 6.82366 13.8379 9.3226 12.0709C9.88508 11.6715 10.49 11.3125 11.1314 11.0274C11.1395 11.0238 11.1493 11.0193 11.1608 11.0141C11.4083 10.902 12.3995 10.4529 12.5159 10.6748C12.5834 10.7967 12.1827 11.0619 12.0098 11.1763ZM35.2135 36.8982C35.5182 36.6098 35.8143 36.3116 36.1029 36.0091C38.4195 33.5802 40.3475 30.8095 41.9033 27.922C42.6016 26.6243 43.2331 25.291 43.7336 23.9176C43.9286 23.3785 44.1443 22.8144 44.2108 22.2462L44.2117 22.2384C44.2275 22.1076 44.2577 21.8572 44.0561 21.9765C43.8584 22.0953 43.7159 22.3946 43.5998 22.574C43.3527 22.9564 43.126 23.3499 42.8971 23.745C42.1788 24.9794 41.4736 26.2206 40.7368 27.4458C39.0368 30.2702 37.1438 32.9795 35.2074 35.672C34.9119 36.0802 34.6164 36.4884 34.3377 36.9037C34.1745 37.1468 33.9843 37.3998 33.8825 37.6726C33.8252 37.8218 33.83 37.9286 34.0272 37.8458C34.4796 37.657 34.8759 37.2139 35.2135 36.8982Z" style="fill:#BA0000;fill-rule:evenodd;mix-blend-mode:normal;" />
          </g>
        </g>
      </g>
    </g>
  </g>
</svg>