
    <svg style="z-index: 99;" width="32" height="32" viewBox="0 0 32 32" fill="none" stroke="none" version="1.1" xmlns:xlink="http://www.w3.org/1999/xlink" xmlns="http://www.w3.org/2000/svg">
      <defs>
        <path id="path_1" d="M32 0L32 0L32 32L0 32L0 0L32 0Z" />
        <rect id="rect_2" x="0" y="0" width="32" height="32" />
        <clipPath id="clip_path_3">
          <use xlink:href="#rect_2" />
        </clipPath>
      </defs>
      <g id="Mouse" opacity="1" clip-path="url(#clip_path_3)">
        <g>
          <use xlink:href="#path_1" style="mix-blend-mode:normal;" />
          <g>
            <path id="Shape" d="M10 28C15.5228 28 20 23.5229 20 18C20 18 20 10 20 10C20 4.47715 15.5228 0 10 0C4.47715 0 0 4.47715 0 10C0 10 0 18 0 18C0 23.5228 4.47715 28 10 28C10 28 10 28 10 28ZM2 10C2 5.58172 5.58172 2 10 2C14.4183 2 18 5.58172 18 10C18 10 18 18 18 18C18 22.4183 14.4183 26 10 26C5.58172 26 2 22.4183 2 18C2 18 2 10 2 10Z" style="fill:#DAA520;mix-blend-mode:normal;" transform="translate(6 2)" />
            <path id="Path" d="M1 6C1.55228 6 2 5.55229 2 5C2 5 2 1 2 1C2 0.447715 1.55228 0 1 0C0.447715 0 0 0.447715 0 1C0 1 0 5 0 5C0 5.55228 0.447715 6 1 6C1 6 1 6 1 6Z" style="fill:#DAA520;fill-rule:evenodd;mix-blend-mode:normal;" transform="translate(15 6)" />
          </g>
        </g>
      </g>
    </svg>