<svg id="Layer_1" enable-background="new 0 0 512 512" height="512" viewBox="0 0 512 512" width="512" xmlns="http://www.w3.org/2000/svg"><g><path d="m378.8954 505.654c-8.768-1.1171-17.6239-2.2404-26.4784-3.3746-18.3464-2.3499-36.6923-4.7035-55.0378-7.0597-19.5454-2.5101-39.0887-5.0363-58.6356-7.5347-22.1766-2.8347-44.358-5.6321-66.5338-8.4724-20.5017-2.6259-40.9986-5.2898-61.4983-7.9319-13.959-1.7991-27.9215-3.5714-41.8774-5.3938-4.7852-.6249-6.9395-3.6041-6.2719-8.4298 3.9674-28.6785 7.9257-57.3583 11.8913-86.037 4.1858-30.2714 8.3645-60.5438 12.5681-90.8127 4.9224-35.4455 9.889-70.8849 14.7979-106.3322 4.4457-32.1024 8.8254-64.214 13.2614-96.3178 2.983-21.5881 6.0163-43.1692 9.0205-64.7544.7071-5.0805 3.0076-6.1823 8.0135-5.0872 5.3191 1.1636 10.8204 1.5114 16.2496 2.1512 23.9641 2.8244 47.9315 5.6209 71.8966 8.4367 19.8102 2.3276 39.6192 4.6656 59.4281 7.0038 24.2013 2.8565 48.4004 5.7312 72.6034 8.5734 22.5261 2.6454 45.0549 5.2671 67.5846 7.8806 6.7102.7784 13.4278 1.4919 20.1416 2.2393 3.2007.3563 5.1369 2.7949 4.7022 6.0983-2.7278 20.7295-5.4913 41.4542-8.2322 62.1819-2.52 19.0567-5.0245 38.1155-7.5392 57.173-3.4823 26.391-6.9754 52.7807-10.4497 79.1727-3.1383 23.8398-6.2469 47.6835-9.3884 71.5229-3.1309 23.7596-6.3006 47.5141-9.4268 71.2743-2.6857 20.4124-5.3231 40.8312-8.002 61.2445-2.0614 15.7081-4.1355 31.4146-6.2469 47.1161-.4916 3.6525-2.9067 5.6173-6.5404 5.4695zm-295.8092-57.2653c-.1668-.3242-.3336-.6485-.5004-.9727l.0079.0143c-.3197-1.4592-.6395-2.9184-.9593-4.3777 0 0-.0137.0282-.0136.0279.1009-.1225.2731-.2347.2924-.369 1.2049-8.3617 2.4-16.7248 3.5899-25.0886.9108-6.4022 1.8723-12.798 2.7008-19.2108.6339-4.9066 1.0953-9.8356 1.6334-14.7546.144-.8047.2881-1.6095.4321-2.4143.1724-.3433.4532-.6722.5007-1.032.5346-4.0472.9876-8.1055 1.5498-12.1487 2.2374-16.0909 4.4899-32.1798 6.7675-48.2651 2.042-14.4213 4.1284-28.8363 6.1874-43.2551 2.4097-16.8745 4.8361-33.7468 7.1822-50.6302.2765-1.99.0921-4.0441.1214-6.0684.2844-1.4292.5688-2.8585.8533-4.2877.1915-.5754.4769-1.1377.5592-1.7283.5521-3.9642 1.0263-7.9394 1.591-11.9017 1.231-8.6386 2.5206-17.2688 3.749-25.9078 1.0483-7.3728 2.0266-14.7556 3.0689-22.1293 1.0418-7.3705 2.1436-14.7325 3.1841-22.1032 1.0855-7.6893 2.1165-15.3863 3.1949-23.0765 1.1785-8.4041 2.3907-16.8034 3.5757-25.2066 1.0955-7.7686 2.2157-15.5341 3.2484-23.3111.9062-6.8246 1.706-13.6633 2.5528-20.4958.2693-5.2653 2.6413-7.3394 6.8351-6.1706 1.8072.5037 3.7245.6125 5.5918.9007 2.8203.4817 5.6286 1.0536 8.463 1.4284 8.657 1.1447 17.3228 2.2245 25.988 3.3062 3.2964.4115 6.6008.7595 10.3049 1.1825-1.2554-5.3328.3171-9.7095 2.833-14.1013-1.131-.2074-1.9731-.4084-2.827-.5112-7.7159-.9291-15.4308-1.868-23.1524-2.7483-5.0936-.5806-10.1977-1.0695-15.2971-1.5995-7.908-.9114-15.816-1.8227-23.8009-2.743-.2173 1.8097-.3379 2.9915-.504 4.1668-.7151 5.0588-1.4895 10.1097-2.1555 15.1748-.8009 6.0907-1.4614 12.2-2.2775 18.2885-1.1345 8.464-2.3648 16.915-3.5396 25.3736-1.0884 7.8359-2.1419 15.6766-3.2414 23.511-.6653 4.7409-1.421 9.4692-2.0754 14.2115-.469 3.3988-.7633 6.8225-1.2665 10.2156-.9725 6.5582-2.1328 13.0894-3.0413 19.6559-1.2582 9.0947-2.3249 18.2156-3.5317 27.3176-1.0482 7.9062-2.1654 15.8034-3.274 23.7015-.9442 6.7263-1.9095 13.4496-2.8845 20.1715-.7893 5.4418-1.6788 10.8701-2.3942 16.3215-.9373 7.1418-1.6867 14.3082-2.6281 21.4494-1.0022 7.6024-2.1064 15.1918-3.2171 22.7794-1.1681 7.979-2.4312 15.9442-3.588 23.9248-.938 6.471-1.806 12.9526-2.6573 19.4357-.7812 5.9497-1.48 11.9102-2.2491 17.8616-.8306 6.4275-1.7005 12.85-2.5538 19.2736-.7982 4.7116-1.7034 9.4083-2.3666 14.1389-.78 5.5637-1.35 11.1567-2.011 16.737-.3246 2.4177-.6492 4.8353-.9738 7.253l.0067-.0127c-.1609 1.1249-.3218 2.2499-.4827 3.3748-.4814 2.4937-1.0978 4.9702-1.4187 7.4845-.9502 7.447-1.7154 14.9177-2.6821 22.3623-.9688 7.4609-2.0932 14.9016-3.1494 22.3511.1692.471.3384.942.5076 1.413.3132.0041.6264.0082.9396.0122 3.7081.4874 7.4162.9748 11.1244 1.4622.6416.0428 1.2886.0469 1.924.1343 7.835 1.0784 15.6686 2.1665 23.5018 3.2573 5.5189.7686 11.0339 1.566 16.556 2.3111 4.0333.5442 8.0712 1.0589 12.1143 1.5241 5.3159.6116 10.6492 1.0809 15.9556 1.763 4.5948.5906 9.1494 1.4944 13.7448 2.0789 8.389 1.0671 16.8023 1.9432 25.1921 3.0047 9.495 1.2013 18.9698 2.562 28.4638 3.772 7.4528.9498 14.9297 1.7106 22.3805 2.675 7.4519.9645 14.875 2.1533 22.3286 3.1034 6.8954.879 13.8145 1.5719 20.7231 2.3468 29.2046 3.7894 58.4092 7.5787 87.7131 11.381.9105-6.7834 1.7563-13.053 2.5926-19.3239 1.102-8.2632 2.2083-16.5259 3.2911-24.7917 1.1767-8.983 2.3217-17.9701 3.4929-26.9538 1.2023-9.222 2.4117-18.4432 3.6322-27.6628 1.3467-10.173 2.7184-20.3428 4.063-30.5161 1.229-9.2985 2.4348-18.5999 3.6537-27.8997 1.042-7.9493 2.0847-15.8986 3.1335-23.847 1.2059-9.1393 2.423-18.2772 3.6277-27.4166 1.0477-7.9489 2.0871-15.8988 3.1261-23.8488 1.2051-9.2217 2.4039-18.4442 3.609-27.6659 1.0173-7.7852 2.0397-15.5698 3.0598-23.3546 6.9523-52.6864 13.9046-105.3729 20.8884-158.2978-20.7542-2.4442-41.2115-4.8535-61.6995-7.2664.6445 3.0439 1.2346 5.8304 1.8246 8.617-.6121 2.4684-1.2242 4.9369-1.9169 7.7306 4.3012.53 8.5731 1.0554 12.8448 1.5829 11.5389 1.4249 23.0749 2.875 34.6186 4.2601 3.142.377 5.0284 2.7445 4.4832 5.8941-.1093.6314-.2528 1.2579-.336 1.8925-1.1777 8.9844-2.3192 17.9736-3.5273 26.9539-1.3576 10.0921-2.8083 20.1718-4.1551 30.2653-1.559 11.6845-3.0229 23.3817-4.576 35.0671-1.6797 12.6377-3.43 25.266-5.121 37.9023-1.372 10.2525-2.6859 20.5127-4.0552 30.7655-1.2101 9.0602-2.4638 18.1146-3.6934 27.1722-1.2511 9.2169-2.506 18.4333-3.7411 27.6524-1.1713 8.7425-2.3154 17.4886-3.4781 26.2322-1.2155 9.1407-2.4429 18.2798-3.6576 27.4205-1.2043 9.0622-2.3955 18.1261-3.5993 27.1883-1.2141 9.1405-2.4474 18.2785-3.6523 27.4202-1.2259 9.3015-2.4274 18.6062-3.6395 27.9095-.1448.3627-.3711.7143-.4225 1.0898-1.1343 8.2905-2.2955 16.5778-3.3521 24.8784-.7445 5.8486-1.3419 11.7159-2.0049 17.5748l-.0037.0123c-.1655 1.2982-.331 2.5965-.4964 3.8947-.4621 2.843-.8103 5.7107-1.4208 8.5214-.5299 2.4395-2.9814 4.1374-5.4042 3.8327-5.0084-.6299-10.002-1.377-15.0029-2.0665-9.7663-1.3466-19.5337-2.6844-29.3-4.0304-10.0045-1.3789-20.0063-2.7771-30.0128-4.1411-8.9742-1.2232-17.9532-2.4115-26.9315-3.6148-8.5182-1.2766-17.0296-2.6011-25.5567-3.8147-6.8048-.9685-13.626-1.8235-20.4451-2.6886-5.9436-.7539-11.8944-1.4514-17.8421-2.1739l.0225.0102c-3.7561-.6466-7.4996-1.3807-11.2709-1.9215-7.918-1.1356-15.8468-2.199-23.7786-3.235-5.7093-.7457-11.4306-1.3991-17.1465-2.0937l.0272.0125c-2.7309-.4845-5.4509-1.0446-8.1948-1.4391-7.916-1.1382-15.8348-2.2623-23.7658-3.2901-5.9486-.7709-11.9176-1.3841-17.8775-2.0675-.1025-.0147-.2047-.013-.3067.0052-1.0033-.1589-2.0067-.3178-3.01-.4767l.0255.0114c-1.278-.1485-2.5559-.2971-3.8339-.4456-1.6274-.3049-3.2549-.6097-4.8823-.9146-.3208-.1926-.6417-.3852-.9625-.5778l.0119.0052c-.3281-.3211-.6562-.6423-.9843-.9635zm233.7876-351.6559v2.4949c3.6375.4888 7.1195.9568 10.6016 1.4247 2.9387.3712 5.8676.9064 8.8179 1.0821 8.0087.4769 16.0265.8014 24.0406 1.1864 4.2047-.1798 7.477-1.7032 8.7657-6.0842 3.3142-7.9426 2.4882-16.5025 4.0446-24.8597-1.8985-.2559-3.4642-.4669-4.9858-.672-.9983 5.4105-2.0007 10.6649-2.9291 15.9324-.7115 4.0368-2.6453 7.1529-6.4122 8.9854-1.7198.3317-3.4323.8968-5.1609.9517-5.3442.17-10.6946.1457-16.0428.1968-6.8547-.7641-13.7095-1.5282-20.7396-2.3118zm-129.9409-45.8898c-.9139 4.6998-2.051 9.3697-2.6852 14.1069-.7888 5.8924 1.7721 10.2736 6.96 13.1321 1.5269.8732 2.9996 1.8633 4.5897 2.6001 8.8493 4.1005 18.3071 5.9667 27.8699 7.3704 4.0975.6014 8.2289.9723 12.3571 1.4493.3005-1.3413.5208-2.3241.8042-3.5891-4.6604-.5931-9.0636-.9805-13.4004-1.7447-7.1044-1.2519-14.328-2.2097-21.2032-4.281-8.2778-2.4938-10.5666-6.9587-9.219-15.4605.7866-4.9628 1.8039-9.889 2.7401-14.9543-.4729-.0314-1.0174-.0675-1.5618-.1035-2.1735-.3403-4.3471-.6805-6.6664-1.0436-.2343 1.0086-.4097 1.7633-.585 2.5179zm63.3046 30.3909c-.558-.0715-1.2403-.3877-1.6547-.1769-4.3892 2.2325-5.7062 6.3071-6.1022 10.7797-.3422 3.8661 2.3211 5.9221 5.3379 7.2113 3.075 1.3142 6.3433 2.45 9.6342 2.9326 9.1992 1.3493 18.4443 2.409 27.69 3.4099 6.2198.6733 12.464 1.2124 18.7116 1.5054 4.0167.1884 5.8555-2.3913 4.8519-6.136.2819-.1092.765-.1596.8165-.336 1.5918-5.4499 1.3394-13.1877-6.9495-14.3298-6.1143-.8425-12.2451-1.6214-18.3129-2.7326-9.5493-1.7487-19.0845-3.5534-28.8397-3.3811-1.7345.0308-3.4557.8165-5.1831 1.2535zm116.7714-27.991c-.6017-1.7299-.8733-3.6989-1.902-5.1195-.9438-1.3033-2.6094-2.655-4.1209-2.8792-7.3084-1.0839-14.673-1.7864-22.0159-2.6397-10.216-1.1871-20.4308-2.384-30.6453-3.584-13.0865-1.5373-26.1724-3.0799-39.2581-4.624-10.2142-1.2052-20.4255-2.4356-30.6422-3.619-9.4165-1.0907-18.8386-2.1336-28.2582-3.1976-2.4851-1.0294-4.8562-.5756-6.1181 1.6879-1.2498 2.2416-2.1453 4.8491-2.4735 7.3895-.3397 2.63 1.536 4.7786 3.4925 5.019 8.1206.9977 16.2467 1.9518 24.3616 2.9938 15.7503 2.0224 31.4895 4.131 47.2423 6.1328 14.7196 1.8705 29.4552 3.6158 44.176 5.4771 14.1625 1.7907 28.3137 3.6701 42.4771 5.4537.5556.07 1.4971-.2832 1.7287-.7201 1.2779-2.4112 2.5478-4.8717 1.956-7.7707zm-4.8649 22.2764c.2577-1.5568.5154-3.1135.8088-4.8863-54.3686-6.9-108.4151-13.7591-162.7748-20.658-.2855 2.8706-.5453 5.4833-.8051 8.0961-.4514 3.4143-.9346 6.8248-1.3432 10.2442-.2837 2.3742.812 4.1781 2.9178 5.0433 2.8792 1.1831 5.8241 2.4709 8.8618 2.9542 9.5146 1.5139 19.0843 2.684 28.6396 3.9339.5331.0697 1.351-.1653 1.6627-.5563 4.5049-5.6518 10.6867-6.5244 17.2258-5.8162 11.5649 1.2526 23.1147 2.669 34.6438 4.2186 5.3151.7144 10.6059 1.7338 15.8313 2.9447 3.0754.7127 5.2914 2.8401 6.8592 5.6834.4895.8877 1.632 1.8076 2.6014 1.9723 4.8285.8202 9.6915 1.4558 14.5564 2.0394 7.7417.9287 15.4879 1.8502 23.3018.7171 2.5076-.3636 4.1878-1.6099 4.7099-4.1171.8178-3.9273 1.54-7.8745 2.3028-11.8133zm-182.4708-18.8924c.859-2.9214 1.718-5.8427 2.6488-9.0082-2.5675-.2246-4.7686-.4171-6.9697-.6097-9.1527-1.2324-18.3028-2.4856-27.4662-3.633-.439-.055-1.3559.7667-1.4372 1.2777-.479 3.0085-.776 6.046-1.1343 9.0738-1.0044 6.7418-2.058 13.4768-3.002 20.2271-1.5566 11.1304-3.0424 22.2708-4.558 33.407-.179.8626-.4078 1.7183-.5298 2.5889-4.756 33.9431-9.4931 67.8888-14.2521 101.8315-5.0604 36.0923-10.1462 72.181-15.2103 108.2727-4.9633 35.3734-9.9137 70.7485-14.8682 106.1231-.7113 5.0786-1.4137 10.1583-2.1353 15.3459.8364.1875 1.4411.369 2.059.4548 14.2629 1.9784 28.5267 3.9502 42.7913 5.9154 28.9326 3.9861 57.8641 7.98 86.8 11.9418 6.6858.9154 13.3875 1.715 20.0819 2.5679 7.5551 1.1078 15.1032 2.2655 22.6665 3.3145 29.0866 4.0341 58.1777 8.0349 87.2679 12.0434 2.9871.4116 5.9785.7915 9.0364 1.1952.1692-.8996.2973-1.4401.3701-1.988 2.1396-16.108 4.2567-32.2191 6.4122-48.325 4.1082-30.6971 8.2513-61.3894 12.3543-92.0872 3.6344-27.1915 7.2249-54.3889 10.8516-81.5815 3.3076-24.8003 6.6406-49.5972 9.9572-74.3962 3.3169-24.8004 6.6403-49.5999 9.9334-74.4034 1.1005-8.2892 2.1167-16.5895 3.1714-24.8848.2271-1.2854.4541-2.5709.71-4.019-12.1388-1.545-23.9333-3.0461-35.9414-4.5744-.1756 1.7444-.3257 3.2357-.4757 4.727-.6551 5.097-1.0194 10.2521-2.0235 15.2793-2.3809 11.9204-6.3083 15.3307-18.3556 16.6344-14.2571-.9276-28.5459-1.5577-42.7208-4.656-2.5193 7.1296-7.746 9.5722-14.9545 8.8058-9.5067-1.0107-19.0338-1.8284-28.5454-2.7943-8.0734-.8199-16.147-1.6649-23.8934-4.3266-4.4432-1.5267-8.4321-3.7364-10.8044-7.949-.8344-1.4816-1.7816-1.9289-3.3344-2.1309-7.0851-.9215-14.2055-1.7012-21.2141-3.0478-8.9429-1.7183-17.6185-4.3801-25.2899-9.5748-6.356-4.3041-9.768-10.0948-9.0257-17.9509.2866-3.0342.6833-6.058 1.0299-9.0865z" fill="#2d120d"/><path d="m137.7547 107.3615c1.5156-11.1362 3.0014-22.2765 4.558-33.407.944-6.7503 1.9976-13.4852 3.002-20.227 2.1522.1625 4.3044.3252 6.4567.4873 6.5363.4921 13.0724.9861 19.609 1.4746 1.7927.134 2.8294.8399 2.5357 2.8827-.2611 1.8157-.4953 3.66-.4683 5.4876.0665 4.4861.0848 8.9896.5112 13.449.3965 4.1465 1.4285 8.1677 3.7915 11.7724 4.4118 6.73 11.1617 9.426 18.5838 10.7944 10.36 1.91 20.7698 3.5492 31.1487 5.3586.68.1186 1.6135.545 1.8646 1.0889 2.4677 5.3456 6.7445 8.6325 12.2398 10.0088 5.8626 1.4684 11.8451 2.6469 17.8461 3.3289 8.4906.9649 17.0463 1.3567 25.5737 2.0001.6362.048 1.2674.2037 1.9028.2169 5.8983.122 11.8875 1.2983 17.5999-1.076 2.5738-1.0698 4.9875-2.5208 7.4961-3.7535.612-.3008 1.3331-.6476 1.9672-.5872 2.2206.2116 4.4293.5659 6.6352.9128 9.0394 1.4214 18.0241 1.0583 26.8926-1.1054 4.4077-1.0754 8.4284-3.002 10.925-7.1303 12.0473-1.3038 15.9747-4.714 18.3556-16.6344 1.0041-5.0273 1.3684-10.1824 2.0235-15.2793.7233.0157 1.4517-.0189 2.169.0547 7.5481.774 15.0981 1.5319 22.6396 2.3663 3.6416.4029 7.2663.9588 10.8986 1.4454-1.0547 8.2952-2.0709 16.5956-3.1714 24.8848-3.2931 24.8035-6.6165 49.603-9.9334 74.4034-3.3167 24.7991-6.6497 49.596-9.9572 74.3962-3.6267 27.1926-7.2172 54.39-10.8516 81.5815-4.103 30.6978-8.246 61.3901-12.3543 92.0872-2.1555 16.1059-4.2726 32.2169-6.4122 48.325-.0728.5479-.2009 1.0885-.3701 1.988-3.0579-.4037-6.0493-.7836-9.0364-1.1952-29.0901-4.0085-58.1813-8.0093-87.2679-12.0434-7.5632-1.049-15.1114-2.2067-22.6665-3.3145-.6406-.2983-1.2528-.7267-1.9263-.8734-3.9815-.8672-7.9822-1.646-11.9673-2.4971-11.263-2.4055-22.5562-4.6828-33.7732-7.2877-13.874-3.2219-27.74-6.5089-41.5033-10.1673-11.9245-3.1697-23.6956-6.9152-35.5496-10.3542-1.4135-.4101-1.9586-1.1236-1.864-2.5756.3593-5.5136.6598-11.0312.9746-16.5476.324-5.6768.6451-11.3538.9566-17.0312.4915-8.9578 1.001-17.9148 1.4519-26.8747.3626-7.2047.6911-14.4117.96-21.6204.3649-9.7812.6679-19.5648.9789-29.348.1862-5.8569.3101-11.7158.5146-17.5719.109-3.1221.2878-6.2432.5081-9.3596.609-8.6188 1.2493-17.2354 1.8917-25.8517.3212-4.3085.638-8.6179 1.021-12.9211.5952-6.6875 1.2407-13.3706 1.8738-20.0547.3544-3.7414.6656-7.4883 1.1054-11.2199.7103-6.0276 1.5277-12.0426 2.2679-18.0668.7016-5.7107 1.3954-11.4227 2.0325-17.1408.805-7.2251 1.5759-14.4543 2.3105-21.6869.5495-5.4093 1.0435-10.8246 1.5167-16.2412.6471-7.4073 1.4062-14.8098 1.8197-22.2308.2817-5.0559.0706-10.1402.0369-15.2116-.0052-.7705-.2434-1.539-.3737-2.3081z" fill="#fefefe"/><path d="m137.7547 107.3615c.1304.7691.3686 1.5376.3737 2.3075.0336 5.0713.2448 10.1557-.0369 15.2116-.4135 7.4211-1.1725 14.8235-1.8197 22.2308-.4732 5.4166-.9673 10.8319-1.5167 16.2412-.7346 7.2326-1.5056 14.4618-2.3105 21.6869-.6371 5.7181-1.3308 11.4301-2.0325 17.1408-.7402 6.0242-1.5576 12.0392-2.2679 18.0668-.4397 3.7316-.751 7.4785-1.1054 11.2199-.6332 6.6841-1.2786 13.3672-1.8738 20.0547-.383 4.3033-.6998 8.6126-1.021 12.9211-.6424 8.6164-1.2826 17.233-1.8917 25.8517-.2202 3.1164-.399 6.2375-.5081 9.3596-.2045 5.8562-.3284 11.7151-.5146 17.5719-.311 9.7832-.6141 19.5668-.9789 29.348-.2689 7.2088-.5975 14.4157-.96 21.6204-.4509 8.9599-.9603 17.9169-1.4519 26.8747-.3115 5.6775-.6326 11.3545-.9566 17.0312-.3148 5.5165-.6153 11.034-.9746 16.5476-.0946 1.452.4505 2.1655 1.864 2.5756 11.854 3.4391 23.625 7.1845 35.5496 10.3542 13.7633 3.6584 27.6293 6.9454 41.5033 10.1673 11.217 2.6049 22.5101 4.8822 33.7732 7.2877 3.9851.8512 7.9858 1.63 11.9673 2.4971.6735.1467 1.2857.5751 1.9263.8734-6.6943-.8528-13.396-1.6524-20.0818-2.5678-28.9359-3.9618-57.8674-7.9557-86.8-11.9418-14.2647-1.9653-28.5285-3.937-42.7913-5.9154-.618-.0858-1.2226-.2673-2.059-.4548.7216-5.1876 1.4241-10.2673 2.1353-15.3459 4.9545-35.3746 9.905-70.7498 14.8682-106.1231 5.064-36.0917 10.1498-72.1804 15.2103-108.2727 4.7591-33.9427 9.4962-67.8884 14.2521-101.8315.1218-.8704.3506-1.726.5296-2.5887z" fill="#d0eaf5"/><path d="m262.8491 474.4346c8.9768 1.2037 17.9558 2.3919 26.93 3.6151 10.0065 1.364 20.0084 2.7622 30.0128 4.1411 9.7664 1.346 19.5338 2.6838 29.3 4.0304 5.0009.6895 9.9945 1.4367 15.0029 2.0665 2.4229.3047 4.8744-1.3932 5.4042-3.8327.6105-2.8108.9587-5.6785 1.4212-8.5219.1656-1.2984.3308-2.5963.4961-3.8943 0 0 .0037-.0123.0038-.0124.3263-1.6133.7362-3.2148.9645-4.8416 1.0864-7.7418 2.1789-15.4836 3.1582-23.2394.6492-5.1418 1.111-10.3071 1.6567-15.4619 1.2122-9.3033 2.4137-18.608 3.6396-27.9095 1.2049-9.1417 2.4381-18.2797 3.6523-27.4202 1.2037-9.0623 2.395-18.1262 3.5993-27.1883 1.2147-9.1407 2.4421-18.2798 3.6576-27.4205 1.1627-8.7437 2.3068-17.4897 3.4781-26.2322 1.2351-9.2191 2.49-18.4355 3.7411-27.6524 1.2296-9.0576 2.4833-18.112 3.6934-27.1722 1.3693-10.2528 2.6831-20.513 4.0552-30.7655 1.691-12.6362 3.4413-25.2645 5.121-37.9023 1.5531-11.6854 3.017-23.3826 4.576-35.0671 1.3468-10.0936 2.7975-20.1732 4.1551-30.2653 1.208-8.9803 2.3495-17.9695 3.5273-26.9539.0832-.6346.2267-1.2612.336-1.8925.5451-3.1496-1.3412-5.5171-4.4832-5.8941-11.5437-1.385-23.0797-2.8352-34.6186-4.2601-4.2717-.5275-8.5436-1.0529-12.8448-1.5829.6927-2.7937 1.3048-5.2622 1.9167-7.7306 3.0092.3998 6.0333.7129 9.0253 1.2161 7.9604 1.3388 15.9037 2.7782 23.86 4.1417 5.9091 1.0126 11.831 1.9504 17.7399 2.9642 1.3929.239 2.0462.7046 1.7483 2.5828-1.0886 6.8635-1.8395 13.7816-2.6666 20.6852-.5801 4.8421-1.0871 9.693-1.6093 14.5418-.7616 7.0721-1.5356 14.1431-2.2491 21.2201-.4174 4.1397-.7079 8.292-1.0905 12.4354-.588 6.3686-1.2484 12.7307-1.7975 19.1024-.4123 4.7847-.6772 9.582-1.0446 14.3709-.612 7.9763-1.2343 15.952-1.8899 23.9249-.4128 5.0199-.9502 10.0301-1.3117 15.0532-.1119 1.5549.1705 3.1382.2724 4.7085-1.0202 7.7848-2.0425 15.5694-3.0598 23.3546-1.2051 9.2217-2.4038 18.4442-3.609 27.6659-1.039 7.95-2.0784 15.9-3.1261 23.8488-1.2046 9.1394-2.4217 18.2773-3.6277 27.4166-1.0488 7.9484-2.0915 15.8976-3.1335 23.847-1.219 9.2998-2.4247 18.6013-3.6537 27.8997-1.3446 10.1733-2.7163 20.343-4.063 30.5161-1.2205 9.2197-2.4299 18.4408-3.6322 27.6628-1.1712 8.9837-2.3162 17.9708-3.4929 26.9538-1.0828 8.2657-2.1891 16.5285-3.2911 24.7917-.8363 6.2709-1.6821 12.5405-2.5926 19.3239-29.3039-3.8023-58.5085-7.5916-87.713-11.3802-.5569-.4467-1.0457-1.1028-1.681-1.3104-8.4667-2.7653-16.9539-5.4677-25.436-8.1859.5242-.0303 1.0483-.0606 1.5724-.0909z" fill="#c13303"/><path d="m86.0156 361.4751c.8528-6.4247 1.7227-12.8471 2.5533-19.2746.7691-5.9514 1.4679-11.9118 2.2491-17.8616.8513-6.4832 1.7192-12.9647 2.6573-19.4357 1.1569-7.9806 2.4199-15.9458 3.588-23.9248 1.1108-7.5876 2.2149-15.177 3.2171-22.7794.9414-7.1412 1.6908-14.3076 2.6281-21.4494.7154-5.4513 1.6048-10.8797 2.3942-16.3215.975-6.7219 1.9403-13.4453 2.8845-20.1715 1.1087-7.8981 2.2258-15.7952 3.274-23.7015 1.2068-9.102 2.2735-18.223 3.5317-27.3176.9085-6.5665 2.0687-13.0977 3.0413-19.6559.5032-3.3932.7975-6.8168 1.2665-10.2156.6544-4.7423 1.4101-9.4706 2.0754-14.2115 1.0995-7.8343 2.153-15.6751 3.2414-23.511 1.1748-8.4586 2.4051-16.9097 3.5396-25.3736.8161-6.0885 1.4766-12.1978 2.2775-18.2885.666-5.0652 1.4404-10.116 2.1555-15.1748.1661-1.1753.2867-2.357.504-4.1668 7.9849.9202 15.8929 1.8316 23.802 2.7429-.8584 3.3955-1.9659 6.7528-2.4953 10.1991-.3917 2.5504-1.5955 3.1701-3.8183 2.8441-1.8673-.2882-3.7845-.3971-5.5918-.9007-4.1938-1.1688-6.5659.9053-6.8352 6.1711-.6442 3.675-1.3795 7.3363-1.9133 11.0267-1.0871 7.5156-2.0419 15.0501-3.0953 22.5707-1.0421 7.4397-2.1555 14.8695-3.2067 22.308-1.0848 7.6761-2.1171 15.3597-3.2016 23.0358-.671 4.7488-1.4239 9.486-2.0916 14.2352-1.1013 7.8341-2.156 15.6747-3.2441 23.5106-1.0116 7.2849-2.0577 14.5651-3.0576 21.8516-.9128 6.6514-1.7943 13.3072-2.6705 19.9636-.7615 5.784-1.4964 11.5716-2.2431 17.3576-.2844 1.4292-.5688 2.8585-.8535 4.2883-.1685.945-.3696 1.8849-.4999 2.8345-1.032 7.5223-2.0427 15.0476-3.0754 22.5698-1.0651 7.7578-2.1373 15.5146-3.2256 23.2691-1.0217 7.2797-2.0553 14.5579-3.1085 21.8331-.8701 6.0104-1.8184 12.0097-2.6557 18.0246-.9366 6.7278-1.7554 13.4721-2.6859 20.2009-.6676 4.8274-1.4718 9.6358-2.1481 14.4621-.9644 6.8832-1.8994 13.7709-2.7869 20.6645-.752 5.8411-1.4186 11.6932-2.123 17.5404-.144.8047-.2881 1.6095-.4321 2.4142-.1338.1949-.3584.3771-.3882.5868-1.0095 7.098-1.973 14.2026-3.005 21.2973-.5811 3.9949-1.2707 7.974-1.9114 11.9603.1571-4.6405.319-9.2809.4704-13.9215.329-10.0843.642-20.1691.9907-30.2527.0495-1.4308.3867-2.8574.3712-4.2836-.0272-2.5241-.2235-5.0462-.3492-7.5691z" fill="#a52300"/><path d="m358.4259 109.3378c-2.4966 4.1283-6.5173 6.0549-10.925 7.1303-8.8685 2.1637-17.8533 2.5269-26.8926 1.1054-2.2059-.3469-4.4146-.7011-6.6352-.9128-.6341-.0604-1.3552.2864-1.9672.5872-2.5086 1.2328-4.9223 2.6837-7.4961 3.7535-5.7123 2.3744-11.7015 1.1981-17.5999 1.076-.6354-.0131-1.2666-.1689-1.9028-.2169-8.5274-.6434-17.0831-1.0352-25.5737-2.0001-6.001-.682-11.9835-1.8605-17.8461-3.3289-5.4952-1.3764-9.772-4.6633-12.2398-10.0088-.2511-.5439-1.1846-.9704-1.8646-1.0889-10.379-1.8094-20.7888-3.4485-31.1487-5.3586-7.4221-1.3684-14.172-4.0644-18.5838-10.7944-2.3631-3.6047-3.395-7.6259-3.7915-11.7724-.4264-4.4593-.4447-8.9628-.5112-13.449-.0271-1.8276.2072-3.6719.4683-5.4876.2937-2.0428-.743-2.7487-2.5357-2.8827-6.5366-.4885-13.0727-.9825-19.609-1.4746-2.1523-.1621-4.3045-.3248-6.4567-.4873.3583-3.0278.6553-6.0653 1.1343-9.0738.0813-.511.9982-1.3326 1.4372-1.2777 9.1633 1.1474 18.3135 2.4006 27.466 3.6329-.3655 2.9496-.7308 5.8992-1.1034 8.9088 2.1312.2786 3.7778.4938 5.4245.7091-.3466 3.0285-.7432 6.0523-1.0299 9.0864-.7423 7.8561 2.6697 13.6468 9.0257 17.9509 7.6713 5.1948 16.347 7.8566 25.2899 9.5748 7.0086 1.3466 14.1291 2.1262 21.2141 3.0478 1.5528.202 2.5.6492 3.3344 2.1309 2.3724 4.2126 6.3612 6.4223 10.8044 7.949 7.7464 2.6616 15.82 3.5067 23.8934 4.3266 9.5117.966 19.0387 1.7836 28.5454 2.7943 7.2085.7664 12.4352-1.6762 14.9545-8.8058 14.1749 3.0987 28.4637 3.7289 42.7208 4.6564z" fill="#d0ebf6"/><path d="m362.144 75.5193c-.7628 3.9388-1.485 7.886-2.3029 11.8134-.5222 2.5072-2.2023 3.7534-4.7099 4.1171-7.8139 1.1331-15.5601.2117-23.3018-.7171-4.8649-.5836-9.7279-1.2193-14.5564-2.0394-.9693-.1646-2.1119-1.0845-2.6014-1.9723-1.5677-2.8432-3.7838-4.9706-6.8592-5.6834-5.2254-1.211-10.5162-2.2303-15.8313-2.9447-11.5291-1.5496-23.0789-2.966-34.6438-4.2186-6.5391-.7082-12.7209.1644-17.2258 5.8162-.3117.391-1.1296.6261-1.6627.5563-9.5553-1.2499-19.125-2.42-28.6396-3.9339-3.0376-.4833-5.9826-1.7711-8.8618-2.9542-2.1058-.8653-3.2015-2.6691-2.9178-5.0433.4086-3.4194.8918-6.8299 1.3432-10.2442 2.1494.1988 4.3002.3822 6.4477.5995 5.9609.6032 11.9221 1.2042 17.8798 1.8373 5.1633.5487 10.3237 1.1269 15.4825 1.7167 4.6825.5353 9.3601 1.1129 14.0417 1.6552 6.1899.717 12.382 1.4149 18.5726 2.1261 6.4274.7384 12.8514 1.5079 19.2821 2.2165 5.0845.5602 10.1803 1.0171 15.2648 1.577 6.6683.7343 13.3254 1.572 19.9967 2.2762 5.4855.5791 10.9863 1.0123 16.4776 1.5394 6.4437.6181 12.884 1.268 19.3257 1.9042z" fill="#fdfcfc"/><path d="m367.0089 53.2429c.5918 2.899-.678 5.3594-1.9561 7.7708-.2316.4369-1.1731.7901-1.7287.7201-14.1633-1.7836-28.3146-3.663-42.4771-5.4537-14.7208-1.8613-29.4564-3.6066-44.176-5.4771-15.7528-2.0018-31.4921-4.1104-47.2423-6.1328-8.1149-1.042-16.241-1.996-24.3616-2.9938-1.9565-.2404-3.8322-2.389-3.4925-5.019.3281-2.5404 1.2237-5.1479 2.4735-7.3895 1.2619-2.2635 3.633-2.7173 6.1183-1.6875-.1647.1294-.3296.2584-.4945.3874.0436.0468.0819.1277.1317.1354 5.2102.8164 10.4161 1.6619 15.6334 2.4303 7.5103 1.1062 15.0316 2.1379 22.5433 3.2354 6.8022.9938 13.5959 2.0462 20.3969 3.0487 8.2241 1.2122 16.4666 2.3079 24.674 3.6232 7.8137 1.2522 15.5922 2.7233 23.3865 4.0963 11.6519 2.0526 23.3008 4.1227 34.9577 6.1464 5.1959.902 10.4084 1.7092 15.6135 2.5594z" fill="#c33300"/><path d="m261.2768 474.5255c8.4821 2.7181 16.9693 5.4206 25.436 8.1859.6353.2076 1.1241.8637 1.681 1.3104-6.9087-.7757-13.8278-1.4687-20.7232-2.3476-7.4536-.9501-14.8767-2.1389-22.3286-3.1034-7.4507-.9644-14.9277-1.7252-22.3805-2.675-9.494-1.21-18.9688-2.5707-28.4638-3.772-8.3898-1.0615-16.803-1.9376-25.1921-3.0047-4.5954-.5845-9.15-1.4883-13.7448-2.0789-5.3064-.682-10.6397-1.1513-15.9556-1.763-4.0431-.4652-8.081-.9799-12.1143-1.5241-5.5221-.745-11.0371-1.5425-16.556-2.3111-7.8332-1.0908-15.6669-2.1788-23.5018-3.2573-.6355-.0875-1.2824-.0916-1.9242-.1344-.9608-.1713-1.9214-.3425-2.8821-.5137.1562-2.7452.3125-5.4904.4688-8.2356.322.0132.644.0263.966.0396 0 0-.0119-.0051-.0119-.0051.3208.1926.6417.3852.9625.5778 1.6274.3048 3.2548.6097 4.8816.9144 1.2777.1484 2.5561.2971 3.8345.4458 0 0-.0255-.0114-.0254-.0114 1.0034.1589 2.0067.3178 3.0099.4767.1019-.0182.2042-.02.3076-.005 4.141.6566 8.2746 1.3569 12.4224 1.9595 6.6156.9611 13.2342 1.907 19.8636 2.7659 5.8418.7569 11.7001 1.3857 17.5511 2.0711 0 0-.0272-.0125-.0271-.0124 4.9208.8074 9.8326 1.6746 14.7644 2.4074 6.6159.9832 13.2407 1.9122 19.8737 2.7714 5.8439.7569 11.7045 1.3859 17.5577 2.0714 0 0-.0225-.0102-.0224-.0101.1908.1391.368.3747.574.4035 7.2728 1.0137 14.5497 1.9976 21.823 3.0082 6.4829.9007 12.9574 1.8629 19.4442 2.7339 6.8052.9135 13.6207 1.751 20.4318 2.6219z" fill="#a52300"/><path d="m413.3884 212.121c-.1018-1.5703-.3843-3.1535-.2723-4.7085.3615-5.0232.8989-10.0334 1.3117-15.0532.6556-7.9729 1.2779-15.9485 1.8899-23.9249.3674-4.7889.6323-9.5861 1.0446-14.3709.5491-6.3718 1.2095-12.7339 1.7975-19.1024.3826-4.1434.6731-8.2957 1.0905-12.4354.7135-7.077 1.4875-14.148 2.2491-21.2201.5221-4.8488 1.0291-9.6998 1.6093-14.5418.8271-6.9036 1.578-13.8217 2.6666-20.6852.2979-1.8782-.3554-2.3438-1.7483-2.5828-5.9089-1.0138-11.8308-1.9516-17.7399-2.9642-7.9563-1.3635-15.8997-2.8028-23.86-4.1417-2.992-.5032-6.0161-.8163-9.0253-1.2161-.5898-2.7866-1.1799-5.5732-1.8244-8.617 20.4881 2.4129 40.9453 4.8222 61.6995 7.2664-6.9839 52.9249-13.9362 105.6113-20.8885 158.2978z" fill="#ea5913"/><path d="m362.144 75.5193c-6.4417-.6362-12.882-1.2861-19.3254-1.9045-5.4912-.527-10.992-.9603-16.4776-1.5394-6.6713-.7042-13.3284-1.542-19.9967-2.2762-5.0845-.5599-10.1804-1.0168-15.2648-1.577-6.4307-.7086-12.8547-1.4781-19.2821-2.2165-6.1906-.7112-12.3827-1.4091-18.5726-2.1261-4.6817-.5423-9.3593-1.1199-14.0417-1.6552-5.1588-.5897-10.3192-1.168-15.4825-1.7167-5.9577-.6331-11.9189-1.2341-17.8798-1.8373-2.1475-.2173-4.2983-.4007-6.4477-.5995.2598-2.6127.5196-5.2254.8051-8.096 54.3596 6.8988 108.4061 13.758 162.7748 20.658-.2936 1.7729-.5513 3.3296-.809 4.8864z" fill="#cfe9f4"/><path d="m308.7072 100.7599c1.0027 3.7449-.8361 6.3246-4.8528 6.1362-6.2477-.2931-12.4918-.8321-18.7116-1.5054-9.2457-1.0009-18.4908-2.0606-27.69-3.4099-3.2909-.4827-6.5592-1.6185-9.6342-2.9326-3.0168-1.2893-5.6802-3.3453-5.3379-7.2113.3959-4.4726 1.713-8.5472 6.1022-10.7797.4144-.2108 1.0967.1054 1.6544.1768.3047.351.6098.7022.9148 1.0533.0045 1.3646.0217 2.7294.0113 4.0939-.0448 5.921-.39 5.4977 6.1221 7.901.7409.2735 1.5471.4341 2.3358.504 7.5463.669 15.0952 1.3096 22.6437 1.9532 3.2579.2778 6.5195.5143 9.7746.8212 5.2376.4939 10.4712 1.0306 15.7065 1.5493.3202.5499.6407 1.1.9611 1.65z" fill="#667e99"/><path d="m150.5826 34.4259c2.2227.326 3.4266-.2937 3.8183-2.8441.5293-3.4462 1.6369-6.8036 2.4953-10.1991 5.0983.53 10.2024 1.0189 15.296 1.5996 7.7216.8802 15.4364 1.8192 23.1524 2.7483.854.1028 1.6961.3038 2.827.5112-2.5159 4.3918-4.0884 8.7685-2.833 14.1013-3.7041-.423-7.0085-.771-10.3049-1.1825-8.6653-1.0817-17.331-2.1615-25.988-3.3062-2.8345-.3749-5.6428-.9468-8.4631-1.4285z" fill="#c33300"/><path d="m367.0089 53.2429c-5.205-.8502-10.4176-1.6574-15.6136-2.5594-11.657-2.0237-23.3058-4.0938-34.9577-6.1464-7.7943-1.373-15.5728-2.8441-23.3865-4.0963-8.2074-1.3153-16.4498-2.411-24.674-3.6232-6.801-1.0025-13.5947-2.0549-20.3969-3.0487-7.5117-1.0974-15.0329-2.1292-22.5433-3.2354-5.2173-.7684-10.4232-1.6139-15.6334-2.4303-.0498-.0078-.088-.0887-.1317-.1354.1649-.129.3298-.258.4945-.3874 9.4194 1.0636 18.8415 2.1065 28.258 3.1972 10.2167 1.1834 20.428 2.4137 30.6422 3.619 13.0857 1.5441 26.1716 3.0866 39.2581 4.624 10.2145 1.2 20.4293 2.3969 30.6453 3.584 7.3429.8532 14.7076 1.5558 22.0159 2.6397 1.5116.2242 3.1771 1.5759 4.1209 2.8792 1.0289 1.4206 1.3005 3.3895 1.9022 5.1194z" fill="#e85814"/><path d="m83.0956 449.301c-.1563 2.7452-.3125 5.4904-.4691 8.2358-2.7475-.3161-5.4947-.6324-8.2418-.9486-.3132-.0041-.6264-.0082-.9399-.0122-.1693-.4709-.3383-.942-.5073-1.4131 1.0562-7.4496 2.1806-14.8902 3.1494-22.3511.9667-7.4446 1.7319-14.9153 2.6821-22.3623.3208-2.5143.9373-4.9908 1.4186-7.4843.1609-1.1248.3218-2.2499.4827-3.375 0 0-.0067.0127-.0067.0126.3246-2.4177.6492-4.8353.9737-7.2529.661-5.5803 1.231-11.1734 2.011-16.737.6632-4.7306 1.5684-9.4272 2.3669-14.1383.126 2.5234.3223 5.0455.3498 7.5695.0156 1.4262-.3217 2.8528-.3712 4.2836-.3487 10.0836-.6617 20.1684-.9907 30.2527-.1514 4.6407-.3133 9.281-.4704 13.9211.004.141.0026.2824-.0043.4237-.1536.9845-.3071 1.9691-.4607 2.9536-.2866 2.6771-.5654 5.355-.8616 8.031-.5229 4.7243-1.0564 9.4474-1.5855 14.171l.0137-.028c-.82 1.709-.6875 3.2092.9593 4.3775l-.0079-.0142c.1668.3243.3336.6485.5004.9727l-.009-.0116c.0063.3079.0124.6158.0185.9238z" fill="#8a1600"/><path d="m194.1841 49.3687c.5445.0361 1.089.0722 1.5619.1036-.9362 5.0653-1.9534 9.9916-2.7401 14.9543-1.3476 8.5018.9412 12.9667 9.219 15.4605 6.8752 2.0713 14.0989 3.0291 21.2032 4.281 4.3368.7642 8.74 1.1515 13.4004 1.7447-.2834 1.265-.5037 2.2478-.8042 3.5891-4.1282-.477-8.2596-.8479-12.3571-1.4493-9.5628-1.4037-19.0206-3.2698-27.8699-7.3704-1.5901-.7368-3.0628-1.7269-4.5897-2.6001.0171-4.7255.0343-9.4508.0514-14.1763.9751-4.8458 1.9501-9.6914 2.9251-14.5371z" fill="#c8e4ee"/><path d="m251.152 82.2871c-.305-.3511-.6101-.7023-.9148-1.0533 1.7277-.4369 3.449-1.2226 5.1836-1.2532 9.7553-.1723 19.2904 1.6324 28.8397 3.3811 6.0678 1.1112 12.1986 1.8901 18.3129 2.7326 8.2889 1.1421 8.5412 8.8799 6.9495 14.3298-.0515.1765-.5346.2268-.816.3359-.32-.5501-.6404-1.1002-.9611-1.65-.4927-1.6785-1.0829-3.3361-1.4516-5.0415-.4158-1.9234-1.4773-3.0036-3.345-3.6404-13.5613-4.6242-27.4905-7.2062-41.8055-7.734-3.3312-.1229-6.6612-.2707-9.9917-.407z" fill="#d3dbe1"/><path d="m414.5121 81.2905c-3.6323-.4866-7.257-1.0425-10.8986-1.4454-7.5415-.8344-15.0915-1.5923-22.6396-2.3663-.7173-.0736-1.4457-.039-2.169-.0547.1501-1.4913.3002-2.9826.4757-4.727 12.008 1.5283 23.8026 3.0295 35.9414 4.5744-.2557 1.4481-.4828 2.7335-.7099 4.019z" fill="#cfe9f4"/><path d="m358.8171 96.223c3.767-1.8325 5.7007-4.9486 6.4122-8.9854.9285-5.2675 1.9308-10.522 2.9291-15.9324 1.5216.2051 3.0873.4161 4.9858.672-1.5565 8.3571-.7304 16.9171-4.0447 24.8598-.7266-.1956-1.449-.5398-2.1805-.5604-2.699-.0759-5.401-.0447-8.1019-.0536z" fill="#cfe9f4"/><path d="m358.8171 96.223c2.7009.009 5.403-.0223 8.102.0535.7315.0205 1.4539.3648 2.1805.5604-1.2887 4.3809-4.5609 5.9043-8.7657 6.0841-.5621-.2818-1.1038-.7526-1.6895-.8157-5.05-.5439-10.1219-.9039-15.1584-1.5451-3.4252-.436-6.8042-1.2353-10.2039-1.8721 1.4438-.4389 2.8876-.8777 4.3314-1.3166 5.348-.0511 10.6984-.0268 16.0427-.1968 1.7286-.055 3.4411-.62 5.1609-.9517z" fill="#b0dff2"/><path d="m191.2591 63.9057c-.0172 4.7254-.0343 9.4508-.0514 14.1763-5.1879-2.8585-7.7488-7.2396-6.96-13.132.6342-4.7372 1.7712-9.4071 2.6852-14.1069.4885.6808 1.2421 1.2993 1.4194 2.0533.7475 3.1784 1.2949 6.4033 1.99 9.5949.1118.5137.6017.945.9168 1.4144z" fill="#98d5ee"/><path d="m113.4318 215.556c.7467-5.786 1.4816-11.5735 2.243-17.3576.8763-6.6563 1.7578-13.3121 2.6705-19.9636.9999-7.2865 2.0461-14.5667 3.0576-21.8516 1.0881-7.836 2.1428-15.6766 3.2441-23.5106.6676-4.7492 1.4206-9.4864 2.0916-14.2352 1.0846-7.6761 2.1169-15.3597 3.2016-23.0358 1.0512-7.4385 2.1646-14.8682 3.2067-22.308 1.0535-7.5206 2.0082-15.0551 3.0953-22.5707.5338-3.6904 1.2691-7.3517 1.9133-11.0267-.8468 6.832-1.6466 13.6707-2.5528 20.4953-1.0327 7.777-2.1528 15.5425-3.2484 23.3111-1.185 8.4032-2.3972 16.8025-3.5757 25.2066-1.0784 7.6903-2.1093 15.3873-3.1949 23.0765-1.0406 7.3707-2.1423 14.7327-3.1841 22.1032-1.0423 7.3737-2.0206 14.7565-3.0689 22.1293-1.2284 8.6389-2.518 17.2692-3.749 25.9078-.5647 3.9623-1.0389 7.9375-1.591 11.9017-.082.5906-.3674 1.1529-.5589 1.7283z" fill="#883829"/><path d="m90.2695 381.2432c.7044-5.8472 1.371-11.6993 2.123-17.5404.8874-6.8936 1.8225-13.7813 2.7869-20.6645.6762-4.8263 1.4805-9.6347 2.1481-14.4621.9305-6.7288 1.7493-13.473 2.6859-20.2009.8373-6.0149 1.7856-12.0142 2.6557-18.0246 1.0532-7.2753 2.0868-14.5534 3.1085-21.8331 1.0883-7.7545 2.1605-15.5114 3.2256-23.2691 1.0327-7.5222 2.0434-15.0475 3.0754-22.5698.1303-.9496.3314-1.8895.4999-2.8345-.029 2.0238.1554 4.0778-.1211 6.0678-2.3461 16.8834-4.7726 33.7556-7.1822 50.6302-2.059 14.4189-4.1455 28.8338-6.1874 43.2551-2.2776 16.0853-4.5301 32.1742-6.7675 48.2651-.5622 4.0432-1.0152 8.1015-1.5498 12.1487-.0478.3599-.3286.6889-.501 1.0321z" fill="#883829"/><path d="m179.6732 56.6269c-1.6467-.2152-3.2934-.4305-5.4245-.7091.3727-3.0096.738-5.9592 1.1034-8.9088 2.2013.1926 4.4024.3851 6.9699.6097-.9308 3.1655-1.7898 6.0868-2.6488 9.0082z" fill="#98d5ee"/><path d="m333.2821 98.6881c3.3996.6368 6.7787 1.4361 10.2039 1.8721 5.0366.6412 10.1085 1.0011 15.1584 1.5451.5856.0631 1.1273.5339 1.6895.8157-8.0141-.3849-16.0319-.7095-24.0406-1.1864-2.9503-.1757-5.8792-.7109-8.8179-1.0821.6575-.6548 1.3151-1.3095 1.9727-1.9643 1.278 0 2.556-.0001 3.834-.0001z" fill="#98d5ee"/><path d="m191.2591 63.9057c-.3151-.4694-.805-.9007-.9169-1.4144-.6951-3.1917-1.2426-6.4166-1.99-9.5949-.1773-.754-.9309-1.3725-1.4194-2.0533.1753-.7547.3507-1.5093.585-2.5179 2.3192.3631 4.4928.7033 6.6663 1.0436-.975 4.8456-1.95 9.6912-2.925 14.5369z" fill="#b0dff2"/><path d="m261.2768 474.5255c-6.811-.8708-13.6265-1.7084-20.4318-2.6221-6.4868-.871-12.9613-1.8332-19.4442-2.7339-7.2733-1.0106-14.5502-1.9945-21.823-3.0082-.206-.0287-.3832-.2643-.574-.4035 5.9475.7224 11.8983 1.4199 17.8419 2.1738 6.8191.8651 13.6404 1.7201 20.4451 2.6886 8.5272 1.2136 17.0385 2.5381 25.5575 3.8145-.5233.0302-1.0474.0605-1.5715.0908z" fill="#883829"/><path d="m84.5286 417.9252c.0069-.1414.0083-.2827.0043-.4237.6407-3.9858 1.3303-7.965 1.9114-11.9599 1.032-7.0946 1.9955-14.1993 3.005-21.2973.0298-.2097.2544-.3919.3882-.5868-.5382 4.919-.9995 9.848-1.6334 14.7546-.8285 6.4129-1.79 12.8087-2.7008 19.2108-1.1899 8.3638-2.385 16.7269-3.5899 25.0886-.0193.1343-.1915.2465-.2925.3691.529-4.7234 1.0625-9.4465 1.5854-14.1708.2962-2.676.575-5.3539.8614-8.0313.1535-.9846.3072-1.969.4609-2.9533z" fill="#883829"/><path d="m199.0262 465.7679c-5.8532-.6855-11.7137-1.3145-17.5577-2.0714-6.633-.8592-13.2579-1.7882-19.8737-2.7714-4.9318-.7328-9.8436-1.6-14.7644-2.4074 5.7158.6946 11.4371 1.348 17.1463 2.0937 7.9318 1.036 15.8605 2.0995 23.7786 3.235 3.7713.5408 7.5149 1.275 11.2709 1.9215z" fill="#883829"/><path d="m333.2821 98.6881c-1.278 0-2.556.0001-3.8342-.0002-4.1915-.6519-8.3828-1.3035-12.5741-1.9551 0-.5281 0-1.0561 0-1.6731 7.0301.7836 13.8848 1.5477 20.7396 2.3118-1.4437.4389-2.8875.8777-4.3313 1.3166z" fill="#c8e4ee"/><path d="m316.8738 96.7328c4.1913.6516 8.3826 1.3032 12.5741 1.9551-.6573.655-1.3149 1.3098-1.9725 1.9645-3.4821-.4679-6.9641-.9359-10.6016-1.4247 0-.9754 0-1.7351 0-2.4949z" fill="#b0dff2"/><g fill="#883829"><path d="m146.8575 458.5302c-5.851-.6854-11.7093-1.3143-17.5511-2.0711-6.6294-.8589-13.248-1.8048-19.8636-2.7659-4.1478-.6026-8.2814-1.3029-12.4224-1.9595 5.959.6832 11.928 1.2965 17.8766 2.0674 7.9309 1.0278 15.8497 2.1519 23.7658 3.2901 2.7438.3944 5.4638.9545 8.1947 1.439z"/><path d="m377.1996 428.4836c-.5457 5.1548-1.0074 10.3202-1.6567 15.4619-.9793 7.7558-2.0719 15.4976-3.1582 23.2394-.2283 1.6269-.6382 3.2284-.9645 4.8416.663-5.8589 1.2604-11.7262 2.0049-17.5748 1.0566-8.3006 2.2178-16.5879 3.3521-24.8784.0513-.3755.2776-.727.4224-1.0897z"/><path d="m74.3847 456.5881c2.7472.3163 5.4943.6326 8.2418.9487.9609.171 1.9216.3422 2.8824.5134-3.7079-.4873-7.416-.9747-11.1242-1.4621z"/><path d="m81.6375 392.3499c-.3246 2.4176-.6491 4.8352-.9737 7.2529.3245-2.4176.6491-4.8353.9737-7.2529z"/><path d="m82.5937 447.4303c-1.6467-1.1683-1.7792-2.6685-.9593-4.3775.3198 1.459.6396 2.9182.9593 4.3775z"/><path d="m93.7283 451.2734c-1.2784-.1487-2.5567-.2973-3.8345-.4458 1.2786.1487 2.5565.2972 3.8345.4458z"/><path d="m371.4164 472.0389c-.1653 1.298-.3305 2.5959-.4961 3.8943.1651-1.2979.3306-2.5961.4961-3.8943z"/><path d="m80.6704 399.5901c-.1609 1.125-.3218 2.2501-.4827 3.375.161-1.1251.3219-2.25.4827-3.375z"/><path d="m96.7128 451.7386c-1.0033-.1589-2.0065-.3177-3.0099-.4767 1.0032.159 2.0065.3178 3.0099.4767z"/><path d="m83.0956 449.301c-.0061-.308-.0123-.6159-.0184-.9239.3281.3211.6562.6423.9843.9635-.3219-.0133-.6439-.0264-.9659-.0396z"/><path d="m72.9375 455.1629c.169.4711.338.9422.5073 1.4131-.1689-.4711-.3381-.9421-.5073-1.4131z"/><path d="m83.0863 448.3887c-.1668-.3242-.3336-.6484-.5004-.9727.1668.3243.3335.6485.5004.9727z"/><path d="m85.0122 449.9132c-.3208-.1926-.6416-.3852-.9624-.5778.3207.1926.6415.3852.9624.5778z"/></g><path d="m251.152 82.2871c3.3305.1363 6.6606.2841 9.9916.4069 14.3149.5278 28.2441 3.1098 41.8055 7.734 1.8677.6369 2.9293 1.717 3.345 3.6404.3687 1.7055.9589 3.363 1.4516 5.0415-5.235-.5189-10.4685-1.0556-15.7062-1.5495-3.2551-.3069-6.5167-.5434-9.7746-.8212-7.5486-.6436-15.0974-1.2842-22.6437-1.9532-.7886-.0699-1.5948-.2306-2.3358-.504-6.5121-2.4033-6.167-1.9801-6.1221-7.901.0103-1.3645-.0068-2.7292-.0113-4.0939z" fill="#869db4"/><path d="m84.5286 417.9252c-.1537.9843-.3073 1.9687-.4608 2.9533.1537-.9842.3072-1.9688.4608-2.9533z" fill="#a52300"/></g></svg>